<svg width="136" height="194" viewBox="0 0 136 194" fill="none" xmlns="http://www.w3.org/2000/svg">
<path d="M136 4.12121H4.12122V180.097L17.103 193.697H136V4.12121Z" fill="#40A0CC"/>
<path d="M131.879 0H0V41.4182L4.12121 46.3636V64.0848L0 69.2364V175.976L12.9818 189.576H131.879V0Z" fill="#C5E1ED"/>
<path fill-rule="evenodd" clip-rule="evenodd" d="M6.59394 45.4684V64.9522L2.47273 70.1038V174.985L14.0399 187.103H129.406V2.47273H2.47273V40.5229L6.59394 45.4684ZM0 41.4182V0H131.879V189.576H12.9818L0 175.976V69.2364L4.12121 64.0848V46.3636L0 41.4182Z" fill="#40A0CC"/>
<path d="M18.7781 18.2188V21.2841H30.2497V25.0419H18.7781V32.083H14.0121V14.461H30.8792V18.2188H18.7781Z" fill="#40A0CC"/>
<path d="M37.5823 32.083V14.461H42.3483V32.083H37.5823Z" fill="#40A0CC"/>
<path d="M50.5159 32.083V14.461H55.2818V28.2226H68.1665V32.083H50.5159Z" fill="#40A0CC"/>
<path d="M97.4661 23.2848C97.4661 24.7982 97.1877 26.1364 96.6311 27.2992C96.0744 28.4535 95.2779 29.4196 94.2417 30.1977C93.2054 30.9758 91.9465 31.5657 90.4649 31.9676C88.9919 32.3609 87.3347 32.5576 85.4934 32.5576C83.6521 32.5576 81.9864 32.3609 80.4963 31.9676C79.0147 31.5657 77.7515 30.9758 76.7066 30.1977C75.6618 29.4196 74.8568 28.4535 74.2916 27.2992C73.7263 26.1364 73.4437 24.7982 73.4437 23.2848C73.4437 21.7715 73.7263 20.4376 74.2916 19.2833C74.8568 18.1205 75.6618 17.1501 76.7066 16.372C77.7515 15.5939 79.0147 15.0082 80.4963 14.6149C81.9864 14.2131 83.6521 14.0121 85.4934 14.0121C87.3347 14.0121 88.9919 14.2131 90.4649 14.6149C91.9465 15.0082 93.2054 15.5939 94.2417 16.372C95.2779 17.1501 96.0744 18.1205 96.6311 19.2833C97.1877 20.4376 97.4661 21.7715 97.4661 23.2848ZM92.6488 23.2848C92.6488 22.6265 92.5417 21.9724 92.3276 21.3226C92.1221 20.6642 91.7495 20.0742 91.21 19.5527C90.679 19.0311 89.9511 18.6079 89.0261 18.283C88.1012 17.9581 86.9236 17.7956 85.4934 17.7956C84.5342 17.7956 83.6907 17.8726 82.9627 18.0265C82.2348 18.1718 81.6053 18.377 81.0743 18.6421C80.5434 18.9071 80.098 19.2192 79.7383 19.5783C79.3786 19.9289 79.0918 20.3094 78.8776 20.7198C78.6635 21.1216 78.5094 21.5449 78.4152 21.9895C78.3295 22.4255 78.2867 22.8573 78.2867 23.2848C78.2867 23.7209 78.3295 24.1612 78.4152 24.6059C78.5094 25.0505 78.6635 25.478 78.8776 25.8884C79.0918 26.2903 79.3786 26.6665 79.7383 27.017C80.098 27.3676 80.5434 27.6754 81.0743 27.9404C81.6053 28.197 82.2348 28.4022 82.9627 28.5561C83.6907 28.7014 84.5342 28.7741 85.4934 28.7741C86.9236 28.7741 88.1012 28.6116 89.0261 28.2867C89.9511 27.9618 90.679 27.5386 91.21 27.017C91.7495 26.4955 92.1221 25.9098 92.3276 25.26C92.5417 24.6016 92.6488 23.9432 92.6488 23.2848Z" fill="#40A0CC"/>
<path d="M114.074 18.2958V32.083H109.308V18.2958H101.818V14.461H121.576V18.2958H114.074Z" fill="#40A0CC"/>
<path d="M2.47272 169.382H129.406V187.103H14.0121L2.47272 174.945V169.382Z" fill="#C5E1ED"/>
<path d="M4.94543 173.091H7.41816V180.921H4.94543V173.091Z" fill="#40A0CC"/>
<path d="M37.503 173.091H39.9757V187.103H37.503V173.091Z" fill="#40A0CC"/>
<path d="M69.6485 173.091H72.1212V187.103H69.6485V173.091Z" fill="#40A0CC"/>
<path d="M102.206 173.091H104.679V187.103H102.206V173.091Z" fill="#40A0CC"/>
<path d="M42.8606 173.091H45.3333V187.103H42.8606V173.091Z" fill="#40A0CC"/>
<path d="M10.303 173.091H12.7758V185.867H10.303V173.091Z" fill="#40A0CC"/>
<path d="M75.4182 173.091H77.8909V187.103H75.4182V173.091Z" fill="#40A0CC"/>
<path d="M107.564 173.091H110.036V187.103H107.564V173.091Z" fill="#40A0CC"/>
<path d="M48.2182 173.091H50.6909V187.103H48.2182V173.091Z" fill="#40A0CC"/>
<path d="M53.5757 173.091H56.0485V187.103H53.5757V173.091Z" fill="#40A0CC"/>
<path d="M80.7758 173.091H83.2485V187.103H80.7758V173.091Z" fill="#40A0CC"/>
<path d="M15.6606 173.091H18.1333V187.103H15.6606V173.091Z" fill="#40A0CC"/>
<path d="M112.921 173.091H115.394V187.103H112.921V173.091Z" fill="#40A0CC"/>
<path d="M58.9333 173.091H61.4061V187.103H58.9333V173.091Z" fill="#40A0CC"/>
<path d="M86.1333 173.091H88.6061V187.103H86.1333V173.091Z" fill="#40A0CC"/>
<path d="M91.4909 173.091H93.9636V187.103H91.4909V173.091Z" fill="#40A0CC"/>
<path d="M118.279 173.091H121.164V187.103H118.279V173.091Z" fill="#40A0CC"/>
<path d="M64.2909 173.091H66.7636V187.103H64.2909V173.091Z" fill="#40A0CC"/>
<path d="M124.048 173.091H126.521V187.103H124.048V173.091Z" fill="#40A0CC"/>
<path d="M96.8485 173.091H99.3212V187.103H96.8485V173.091Z" fill="#40A0CC"/>
<path d="M21.0182 173.091H23.4909V187.103H21.0182V173.091Z" fill="#40A0CC"/>
<path d="M26.3758 173.091H29.2606V187.103H26.3758V173.091Z" fill="#40A0CC"/>
<path d="M32.1454 173.091H34.6182V187.103H32.1454V173.091Z" fill="#40A0CC"/>
</svg>
