<svg width="131" height="128" viewBox="0 0 131 128" fill="none" xmlns="http://www.w3.org/2000/svg">
<path d="M95.4293 2.86846L3.63712 27.4641L36.4569 149.949L48.0292 156.994L130.786 134.82L95.4293 2.86846Z" fill="black"/>
<path d="M91.7922 0.768605L0 25.3643L7.72457 54.1928L11.5154 56.8663L14.8205 69.2009L12.9127 73.5552L32.8198 147.85L44.392 154.894L127.148 132.72L91.7922 0.768605Z" fill="#E0E0E0"/>
<path fill-rule="evenodd" clip-rule="evenodd" d="M13.0696 55.7821L16.7033 69.3435L14.7956 73.6977L34.3562 146.699L44.6673 152.976L124.966 131.46L90.5323 2.95088L2.18227 26.6242L9.27871 53.1085L13.0696 55.7821ZM7.72457 54.1928L0 25.3643L91.7922 0.768605L127.148 132.72L44.392 154.894L32.8198 147.85L12.9127 73.5552L14.8205 69.2009L11.5154 56.8663L7.72457 54.1928Z" fill="black"/>
<path d="M36.2322 117.797L36.676 119.454L36.1044 119.607L35.6606 117.951L34.7624 118.191L34.6389 117.731L37.0085 117.096L37.132 117.556L36.2322 117.797Z" fill="black"/>
<path d="M38.8419 118.873L38.2703 119.026L37.7031 116.91L39.1359 116.526C39.29 116.484 39.4247 116.465 39.5401 116.468C39.6564 116.471 39.7558 116.493 39.8383 116.534C39.9218 116.574 39.9896 116.632 40.0416 116.707C40.0945 116.781 40.1345 116.869 40.1618 116.971C40.1857 117.06 40.1938 117.142 40.186 117.215C40.1792 117.289 40.1607 117.355 40.1305 117.415C40.1011 117.474 40.0625 117.527 40.0148 117.575C39.9671 117.623 39.9149 117.666 39.858 117.704L40.7755 118.355L40.1068 118.534L39.257 117.926L38.633 118.094L38.8419 118.873ZM39.5832 117.122C39.5722 117.081 39.5572 117.048 39.5381 117.022C39.5202 116.996 39.4955 116.978 39.4641 116.968C39.4324 116.956 39.3929 116.953 39.3455 116.957C39.2992 116.96 39.2426 116.971 39.1758 116.989L38.3931 117.199L38.5145 117.652L39.2972 117.442C39.364 117.424 39.4183 117.405 39.4603 117.385C39.5033 117.365 39.5358 117.342 39.5578 117.317C39.5796 117.292 39.5917 117.263 39.5943 117.232C39.5979 117.2 39.5942 117.164 39.5832 117.122Z" fill="black"/>
<path d="M43.0944 117.304L41.9143 117.621L41.8228 118.075L41.185 118.245L41.7255 115.832L42.3634 115.661L44.0384 117.481L43.4005 117.652L43.0944 117.304ZM42.0085 117.153L42.782 116.946L42.1879 116.269L42.0085 117.153Z" fill="black"/>
<path d="M47.0095 115.549C47.0459 115.684 47.0633 115.809 47.0619 115.923C47.0602 116.035 47.0425 116.138 47.009 116.231C46.9765 116.323 46.9296 116.407 46.8681 116.482C46.8078 116.556 46.7357 116.622 46.6521 116.68C46.5685 116.737 46.4753 116.788 46.3726 116.832C46.2696 116.875 46.1601 116.912 46.0441 116.943L44.7006 117.303L44.1333 115.187L45.4737 114.827C45.5898 114.796 45.7033 114.774 45.8143 114.761C45.9249 114.747 46.0309 114.744 46.1322 114.752C46.2344 114.76 46.3309 114.78 46.4215 114.815C46.5118 114.848 46.5942 114.896 46.6688 114.961C46.7442 115.025 46.8108 115.105 46.8687 115.202C46.9265 115.298 46.9735 115.414 47.0095 115.549ZM46.4333 115.703C46.4061 115.601 46.369 115.517 46.3223 115.449C46.2765 115.381 46.2179 115.33 46.1464 115.298C46.0756 115.264 45.9904 115.248 45.8906 115.249C45.7905 115.249 45.6732 115.268 45.5386 115.304L44.8284 115.494L45.1487 116.69L45.859 116.499C45.9935 116.463 46.1044 116.421 46.1915 116.372C46.2784 116.323 46.344 116.265 46.3883 116.201C46.4334 116.135 46.4587 116.061 46.4643 115.979C46.4709 115.897 46.4606 115.805 46.4333 115.703Z" fill="black"/>
<path d="M48.1314 116.384L47.5642 114.267L48.1358 114.114L48.703 116.231L48.1314 116.384Z" fill="black"/>
<path d="M51.6824 115.433L49.8645 114.361L50.2542 115.815L49.6826 115.969L49.1154 113.852L49.7363 113.685L51.5574 114.763L51.166 113.302L51.7345 113.15L52.3018 115.267L51.6824 115.433Z" fill="black"/>
<path d="M54.0617 112.468C54.2691 112.413 54.4665 112.379 54.6539 112.368C54.8419 112.355 55.0179 112.356 55.1817 112.371L55.3204 112.889C55.253 112.872 55.1783 112.858 55.096 112.847C55.0149 112.836 54.928 112.83 54.8354 112.829C54.7427 112.829 54.6452 112.834 54.5428 112.847C54.4403 112.859 54.3346 112.879 54.2258 112.908C54.0902 112.945 53.9747 112.986 53.8792 113.033C53.7838 113.079 53.7045 113.128 53.6415 113.18C53.5784 113.233 53.5296 113.287 53.4952 113.344C53.4606 113.399 53.4365 113.455 53.423 113.511C53.4095 113.568 53.4045 113.623 53.408 113.677C53.4115 113.731 53.4197 113.783 53.4326 113.831C53.4439 113.873 53.4603 113.918 53.4817 113.965C53.5041 114.012 53.5338 114.056 53.5706 114.099C53.6085 114.142 53.655 114.18 53.7103 114.214C53.7655 114.248 53.8323 114.273 53.9104 114.289C53.9896 114.305 54.0809 114.311 54.1843 114.307C54.2874 114.301 54.4062 114.28 54.5407 114.244C54.6085 114.226 54.667 114.208 54.7163 114.19C54.7655 114.173 54.8097 114.155 54.8488 114.137C54.889 114.118 54.9257 114.099 54.9589 114.079C54.9931 114.059 55.0283 114.038 55.0643 114.016L54.9957 113.761L54.3548 113.932L54.2305 113.468L55.4431 113.144L55.7329 114.225C55.6637 114.271 55.5848 114.318 55.4961 114.365C55.4081 114.41 55.3158 114.454 55.219 114.495C55.1234 114.537 55.0265 114.576 54.928 114.611C54.8295 114.646 54.7356 114.676 54.6463 114.7C54.5076 114.737 54.3721 114.763 54.2398 114.779C54.1075 114.794 53.9808 114.798 53.8597 114.79C53.7393 114.78 53.6254 114.758 53.5181 114.723C53.4117 114.687 53.3152 114.637 53.2284 114.573C53.1427 114.507 53.0677 114.427 53.0034 114.331C52.9399 114.233 52.8904 114.118 52.8549 113.986C52.8196 113.854 52.8062 113.73 52.8146 113.613C52.8229 113.497 52.8489 113.388 52.8927 113.289C52.9374 113.189 52.998 113.096 53.0745 113.012C53.152 112.927 53.2411 112.851 53.3419 112.784C53.4434 112.714 53.5548 112.654 53.6762 112.601C53.7986 112.549 53.9271 112.505 54.0617 112.468Z" fill="black"/>
<path d="M38.0319 121.457C37.9866 121.448 37.9278 121.441 37.8555 121.434C37.7831 121.427 37.7025 121.423 37.6135 121.424C37.5242 121.424 37.4289 121.429 37.3274 121.441C37.2257 121.452 37.1235 121.471 37.0208 121.499C36.9386 121.521 36.869 121.542 36.8118 121.563C36.7557 121.583 36.7087 121.603 36.6708 121.622C36.634 121.641 36.6053 121.659 36.5847 121.677C36.5648 121.693 36.5503 121.708 36.541 121.723C36.5317 121.738 36.5265 121.751 36.5254 121.764C36.5253 121.776 36.5265 121.786 36.529 121.796C36.5373 121.826 36.56 121.849 36.5971 121.865C36.634 121.879 36.6816 121.888 36.74 121.893C36.7981 121.896 36.8647 121.896 36.94 121.894C37.015 121.89 37.0944 121.886 37.1782 121.883C37.2627 121.877 37.3498 121.874 37.4395 121.872C37.53 121.869 37.6184 121.87 37.7046 121.875C37.7919 121.88 37.8758 121.892 37.9563 121.909C38.0365 121.924 38.1097 121.949 38.1758 121.982C38.2418 122.015 38.2985 122.058 38.3459 122.111C38.3932 122.165 38.4274 122.231 38.4486 122.31C38.4759 122.412 38.4813 122.504 38.4649 122.586C38.4485 122.669 38.4167 122.743 38.3696 122.81C38.3235 122.876 38.2651 122.935 38.1942 122.987C38.1231 123.038 38.0461 123.084 37.9632 123.124C37.8813 123.163 37.7964 123.198 37.7084 123.227C37.6215 123.255 37.5379 123.281 37.4578 123.302C37.2483 123.358 37.0495 123.393 36.8614 123.406C36.6746 123.419 36.506 123.419 36.3557 123.404L36.2203 122.899C36.3819 122.939 36.5585 122.957 36.7501 122.953C36.9427 122.949 37.1417 122.919 37.3471 122.864C37.4683 122.832 37.5653 122.799 37.638 122.767C37.7115 122.733 37.7671 122.7 37.805 122.669C37.8427 122.637 37.866 122.607 37.8751 122.579C37.8842 122.551 37.8858 122.527 37.8801 122.505C37.871 122.471 37.8477 122.446 37.8103 122.43C37.7726 122.412 37.7246 122.402 37.6662 122.397C37.6076 122.392 37.5408 122.391 37.4658 122.395C37.3905 122.398 37.3107 122.402 37.2265 122.408C37.143 122.413 37.0566 122.417 36.9675 122.421C36.8783 122.425 36.7903 122.426 36.7036 122.423C36.6176 122.418 36.5348 122.409 36.4551 122.395C36.3752 122.38 36.3025 122.357 36.2369 122.326C36.1711 122.294 36.1148 122.253 36.0681 122.201C36.021 122.149 35.9869 122.083 35.9657 122.004C35.9407 121.911 35.9355 121.826 35.9502 121.749C35.9649 121.673 35.9937 121.603 36.0365 121.541C36.08 121.478 36.1343 121.421 36.1992 121.372C36.2652 121.322 36.3365 121.279 36.4133 121.24C36.49 121.202 36.5692 121.169 36.6507 121.14C36.7323 121.112 36.8105 121.088 36.8855 121.068C36.9677 121.046 37.053 121.027 37.1415 121.012C37.231 120.997 37.3199 120.986 37.4083 120.979C37.4963 120.971 37.582 120.966 37.6653 120.964C37.7496 120.963 37.8281 120.964 37.9006 120.967L38.0319 121.457Z" fill="black"/>
<path d="M39.4729 122.701L38.9056 120.584L41.0488 120.01L41.1697 120.461L39.6136 120.878L39.7073 121.228L41.1833 120.832L41.3043 121.284L39.8283 121.679L39.9389 122.092L41.5166 121.67L41.6375 122.121L39.4729 122.701Z" fill="black"/>
<path d="M43.2487 119.914L43.6925 121.57L43.1209 121.724L42.6771 120.067L41.7789 120.308L41.6555 119.847L44.0251 119.212L44.1485 119.673L43.2487 119.914Z" fill="black"/>
<path d="M46.0294 119.169L46.4732 120.825L45.9016 120.978L45.4578 119.322L44.5596 119.563L44.4361 119.102L46.8057 118.467L46.9292 118.928L46.0294 119.169Z" fill="black"/>
<path d="M48.0675 120.398L47.5003 118.281L48.0719 118.128L48.6391 120.245L48.0675 120.398Z" fill="black"/>
<path d="M51.6185 119.447L49.8006 118.375L50.1903 119.829L49.6187 119.982L49.0515 117.866L49.6724 117.699L51.4935 118.777L51.1021 117.316L51.6707 117.164L52.2379 119.281L51.6185 119.447Z" fill="black"/>
<path d="M53.9978 116.482C54.2053 116.427 54.4027 116.393 54.59 116.381C54.7781 116.369 54.954 116.37 55.1178 116.385L55.2565 116.903C55.1892 116.886 55.1144 116.872 55.0322 116.861C54.951 116.85 54.8641 116.844 54.7715 116.843C54.6789 116.843 54.5813 116.848 54.4789 116.86C54.3764 116.872 54.2707 116.893 54.1619 116.922C54.0263 116.959 53.9108 117 53.8153 117.046C53.7199 117.093 53.6407 117.142 53.5776 117.194C53.5145 117.247 53.4657 117.301 53.4313 117.357C53.3967 117.413 53.3726 117.469 53.3591 117.525C53.3456 117.582 53.3406 117.637 53.3441 117.691C53.3476 117.745 53.3558 117.797 53.3687 117.845C53.38 117.887 53.3964 117.932 53.4178 117.979C53.4403 118.025 53.4699 118.07 53.5067 118.113C53.5446 118.156 53.5912 118.194 53.6464 118.228C53.7017 118.261 53.7684 118.287 53.8465 118.303C53.9258 118.319 54.017 118.325 54.1204 118.32C54.2235 118.315 54.3423 118.294 54.4768 118.258C54.5446 118.24 54.6031 118.222 54.6524 118.204C54.7016 118.187 54.7458 118.169 54.785 118.151C54.8251 118.132 54.8618 118.113 54.895 118.093C54.9293 118.073 54.9644 118.052 55.0004 118.03L54.9318 117.774L54.2909 117.946L54.1666 117.482L55.3792 117.158L55.669 118.239C55.5999 118.285 55.5209 118.332 55.4322 118.378C55.3443 118.424 55.2519 118.468 55.1551 118.509C55.0596 118.551 54.9626 118.59 54.8641 118.625C54.7657 118.66 54.6718 118.69 54.5824 118.714C54.4437 118.751 54.3082 118.777 54.1759 118.793C54.0436 118.808 53.9169 118.812 53.7958 118.804C53.6754 118.794 53.5615 118.772 53.4542 118.737C53.3478 118.701 53.2513 118.651 53.1645 118.586C53.0788 118.521 53.0038 118.441 52.9396 118.345C52.876 118.247 52.8265 118.132 52.791 118C52.7558 117.868 52.7423 117.744 52.7507 117.627C52.759 117.511 52.7851 117.402 52.8288 117.303C52.8735 117.202 52.9341 117.11 53.0106 117.026C53.0881 116.941 53.1772 116.865 53.278 116.797C53.3795 116.728 53.4909 116.668 53.6123 116.615C53.7347 116.563 53.8632 116.518 53.9978 116.482Z" fill="black"/>
<path d="M39.7818 126.46C39.7161 126.51 39.6491 126.558 39.5807 126.603C39.5124 126.648 39.4405 126.689 39.365 126.728C39.2899 126.768 39.2088 126.805 39.1219 126.838C39.0361 126.871 38.9423 126.901 38.8406 126.928C38.6249 126.986 38.42 127.016 38.2258 127.019C38.0326 127.021 37.8579 126.993 37.7017 126.936C37.5462 126.878 37.4134 126.789 37.3033 126.67C37.193 126.55 37.1129 126.397 37.0631 126.211C37.0133 126.025 37.0062 125.853 37.042 125.695C37.0775 125.535 37.1481 125.392 37.2538 125.265C37.3602 125.136 37.4976 125.024 37.666 124.93C37.8354 124.835 38.028 124.758 38.2437 124.7C38.3454 124.673 38.4416 124.652 38.5324 124.638C38.6243 124.623 38.7127 124.614 38.7978 124.611C38.8826 124.607 38.9658 124.608 39.0474 124.612C39.1289 124.617 39.2108 124.625 39.2931 124.636L39.4309 125.15C39.3639 125.134 39.2938 125.119 39.2209 125.106C39.1476 125.091 39.0687 125.082 38.984 125.078C38.8991 125.074 38.8078 125.076 38.7102 125.086C38.6123 125.094 38.5048 125.114 38.3878 125.146C38.208 125.194 38.0635 125.252 37.9543 125.321C37.8461 125.39 37.7648 125.465 37.7104 125.545C37.6561 125.626 37.6252 125.71 37.6179 125.798C37.6104 125.885 37.618 125.971 37.6408 126.056C37.656 126.112 37.6771 126.167 37.7043 126.219C37.7312 126.27 37.7657 126.316 37.8077 126.358C37.8494 126.399 37.8988 126.433 37.956 126.462C38.0133 126.491 38.0803 126.511 38.1571 126.522C38.2339 126.533 38.3203 126.535 38.4164 126.528C38.5133 126.52 38.6218 126.5 38.742 126.468C38.8591 126.436 38.9624 126.401 39.052 126.361C39.1414 126.321 39.2218 126.278 39.2932 126.232C39.3647 126.187 39.4286 126.14 39.4851 126.092C39.5413 126.043 39.5942 125.994 39.644 125.945L39.7818 126.46Z" fill="black"/>
<path d="M42.2783 125.517L41.0981 125.833L41.0067 126.287L40.3688 126.458L40.9094 124.044L41.5472 123.873L43.2222 125.693L42.5844 125.864L42.2783 125.517ZM41.1924 125.365L41.9658 125.158L41.3717 124.482L41.1924 125.365Z" fill="black"/>
<path d="M44.456 125.363L43.8844 125.516L43.3172 123.399L44.75 123.015C44.9041 122.974 45.0388 122.955 45.1542 122.958C45.2705 122.961 45.37 122.983 45.4524 123.023C45.5359 123.064 45.6037 123.121 45.6558 123.197C45.7086 123.27 45.7486 123.358 45.7759 123.46C45.7998 123.549 45.8079 123.631 45.8001 123.704C45.7933 123.778 45.7749 123.844 45.7447 123.904C45.7152 123.963 45.6766 124.016 45.6289 124.064C45.5813 124.112 45.529 124.155 45.4721 124.194L46.3896 124.844L45.7209 125.024L44.8711 124.416L44.2471 124.583L44.456 125.363ZM45.1973 123.612C45.1863 123.571 45.1713 123.537 45.1523 123.511C45.1343 123.485 45.1096 123.467 45.0782 123.457C45.0466 123.446 45.007 123.442 44.9596 123.446C44.9133 123.449 44.8567 123.46 44.7899 123.478L44.0073 123.688L44.1286 124.141L44.9113 123.931C44.9781 123.913 45.0324 123.894 45.0744 123.874C45.1174 123.854 45.1499 123.831 45.1719 123.807C45.1937 123.781 45.2058 123.753 45.2084 123.721C45.212 123.689 45.2083 123.653 45.1973 123.612Z" fill="black"/>
<path d="M49.4239 122.895C49.4603 123.031 49.4777 123.156 49.4763 123.269C49.4745 123.382 49.4569 123.485 49.4234 123.577C49.3909 123.67 49.344 123.753 49.2825 123.828C49.2221 123.903 49.1501 123.969 49.0665 124.026C48.9829 124.084 48.8897 124.135 48.787 124.179C48.684 124.222 48.5745 124.259 48.4584 124.29L47.115 124.65L46.5477 122.533L47.8881 122.174C48.0042 122.143 48.1177 122.121 48.2287 122.108C48.3393 122.093 48.4453 122.09 48.5465 122.098C48.6488 122.106 48.7453 122.127 48.8359 122.161C48.9262 122.194 49.0086 122.243 49.0832 122.308C49.1586 122.371 49.2252 122.452 49.2831 122.548C49.3409 122.645 49.3879 122.761 49.4239 122.895ZM48.8477 123.05C48.8205 122.948 48.7834 122.863 48.7366 122.795C48.6909 122.727 48.6322 122.677 48.5608 122.644C48.49 122.611 48.4048 122.594 48.305 122.596C48.2049 122.596 48.0876 122.614 47.953 122.65L47.2428 122.841L47.5631 124.036L48.2734 123.846C48.4079 123.81 48.5188 123.768 48.6059 123.719C48.6928 123.669 48.7584 123.612 48.8027 123.547C48.8477 123.481 48.8731 123.407 48.8787 123.325C48.8853 123.243 48.875 123.151 48.8477 123.05Z" fill="black"/>
<path d="M16.468 34.5431L17.0397 36.6766L25.0244 34.5371L25.7252 37.1527L17.7405 39.2922L19.0537 44.193L15.7365 45.0819L12.4499 32.8163L24.19 29.6706L24.8908 32.2862L16.468 34.5431Z" fill="black"/>
<path d="M32.1421 40.686L28.8556 28.4205L32.1728 27.5316L35.4594 39.7972L32.1421 40.686Z" fill="black"/>
<path d="M41.1443 38.2739L37.8578 26.0083L41.175 25.1195L43.7416 34.698L52.7098 32.295L53.4298 34.982L41.1443 38.2739Z" fill="black"/>
<path d="M72.1824 23.3937C72.4647 24.4471 72.5205 25.4304 72.3499 26.3436C72.1777 27.2508 71.8036 28.0718 71.2274 28.8067C70.6512 29.5415 69.885 30.1869 68.9287 30.743C67.9768 31.2914 66.86 31.7374 65.5784 32.0808C64.2968 32.4242 63.1008 32.598 61.9902 32.6021C60.884 32.5987 59.8948 32.4237 59.0224 32.077C58.1501 31.7303 57.4095 31.2079 56.8008 30.5099C56.1906 29.806 55.7443 28.9273 55.462 27.8739C55.1798 26.8206 55.1277 25.8395 55.3059 24.9306C55.4824 24.0158 55.8618 23.1902 56.4439 22.4538C57.026 21.7174 57.796 21.0741 58.7539 20.5241C59.7161 19.9664 60.8381 19.5159 62.1197 19.1725C63.4013 18.8291 64.5922 18.6599 65.6924 18.6649C66.797 18.6623 67.7825 18.8352 68.6489 19.1835C69.5153 19.5318 70.2506 20.0587 70.8549 20.7643C71.4577 21.4639 71.9002 22.3404 72.1824 23.3937ZM68.8294 24.2922C68.7066 23.8339 68.5101 23.3986 68.2399 22.9862C67.9741 22.5663 67.6047 22.2252 67.1319 21.9628C66.6651 21.6988 66.0795 21.54 65.3751 21.4863C64.6707 21.4327 63.8208 21.5392 62.8253 21.8059C62.1577 21.9848 61.5849 22.1957 61.1069 22.4386C60.6273 22.6755 60.2275 22.9358 59.9073 23.2193C59.5872 23.5028 59.3354 23.8031 59.152 24.1201C58.9671 24.4312 58.8383 24.7495 58.7658 25.0751C58.6918 25.3948 58.6634 25.7181 58.6808 26.0451C58.7025 26.3646 58.7532 26.6731 58.8329 26.9707C58.9143 27.2742 59.0262 27.5727 59.1687 27.8662C59.3172 28.1581 59.5042 28.4269 59.7298 28.6727C59.9538 28.9124 60.2236 29.1208 60.5394 29.2977C60.8551 29.4746 61.2225 29.6058 61.6415 29.6913C62.0589 29.7708 62.5353 29.7962 63.0707 29.7676C63.6045 29.733 64.2052 29.6262 64.8728 29.4474C65.8683 29.1806 66.6576 28.8479 67.2408 28.4493C67.824 28.0506 68.2517 27.6203 68.524 27.1582C68.8023 26.6946 68.9524 26.2174 68.9742 25.7268C69.0005 25.2286 68.9522 24.7504 68.8294 24.2922Z" fill="black"/>
<path d="M82.8114 16.8238L85.3827 26.4202L82.0655 27.3091L79.4941 17.7127L74.2813 19.1095L73.5661 16.4403L87.318 12.7555L88.0332 15.4247L82.8114 16.8238Z" fill="black"/>
<path d="M86.916 77.6993C89.764 88.3282 79.8021 100.233 64.6654 104.288C49.5287 108.344 34.9492 103.016 32.1012 92.3869C29.2532 81.758 39.2151 69.8537 54.3518 65.7978C69.4885 61.7419 84.068 67.0704 86.916 77.6993Z" fill="#C4C4C4"/>
<path d="M83.2789 75.5995C86.1269 86.2284 76.1649 98.1327 61.0282 102.189C45.8916 106.244 31.3121 100.916 28.4641 90.2871C25.6161 79.6582 35.578 67.7538 50.7147 63.698C65.8514 59.6421 80.4309 64.9706 83.2789 75.5995Z" fill="#C5E1ED"/>
<path fill-rule="evenodd" clip-rule="evenodd" d="M77.4103 90.1096C81.1561 85.6334 82.6199 80.6363 81.4049 76.1016C80.1898 71.567 76.4235 67.9713 70.9415 65.9677C65.4663 63.9666 58.4483 63.6381 51.2178 65.5755C43.9873 67.513 38.0738 71.3064 34.3327 75.777C30.5869 80.2532 29.123 85.2503 30.3381 89.7849C31.5531 94.3196 35.3194 97.9153 40.8015 99.9189C46.2767 101.92 53.2946 102.248 60.5251 100.311C67.7557 98.3736 73.6692 94.5801 77.4103 90.1096ZM61.0282 102.189C76.1649 98.1327 86.1269 86.2284 83.2789 75.5995C80.4309 64.9706 65.8514 59.6421 50.7147 63.698C35.578 67.7538 25.6161 79.6582 28.4641 90.2871C31.3121 100.916 45.8916 106.244 61.0282 102.189Z" fill="black"/>
<path fill-rule="evenodd" clip-rule="evenodd" d="M67.9507 90.6777C66.3112 92.0653 64.5619 92.9069 63.4069 93.2636L62.8309 91.3893C63.748 91.1062 65.2694 90.3864 66.7083 89.1686C68.1407 87.9563 69.4463 86.2898 70.0327 84.1214L71.8927 84.6557C71.1769 87.3022 69.5966 89.2847 67.9507 90.6777Z" fill="black"/>
<path d="M49.1375 81.5247C50.3453 86.0325 48.0549 90.5629 44.0216 91.6436C39.9883 92.7243 35.7395 89.9461 34.5317 85.4383C33.3238 80.9305 35.6143 76.4002 39.6475 75.3194C43.6808 74.2387 47.9296 77.0169 49.1375 81.5247Z" fill="white"/>
<path fill-rule="evenodd" clip-rule="evenodd" d="M43.5217 89.778C46.3057 89.032 48.2434 85.7264 47.2529 82.0297C46.2623 78.333 42.9314 76.4391 40.1474 77.1851C37.3635 77.931 35.4258 81.2366 36.4163 84.9333C37.4068 88.63 40.7377 90.5239 43.5217 89.778ZM44.0216 91.6436C48.0549 90.5629 50.3453 86.0325 49.1375 81.5247C47.9296 77.0169 43.6808 74.2387 39.6475 75.3194C35.6143 76.4002 33.3238 80.9305 34.5317 85.4383C35.7395 89.9461 39.9883 92.7243 44.0216 91.6436Z" fill="black"/>
<path d="M37.7276 83.6192C37.4156 82.4545 38.0858 81.263 39.2246 80.9579C40.3634 80.6527 41.5396 81.3495 41.8516 82.5142L42.1028 83.4515C42.4149 84.6162 41.7447 85.8077 40.6058 86.1129C39.467 86.418 38.2909 85.7212 37.9788 84.5565L37.7276 83.6192Z" fill="black"/>
<path d="M59.4475 78.7622C60.6553 83.2699 58.4033 87.79 54.4175 88.858C50.4317 89.926 46.2213 87.1375 45.0135 82.6297C43.8056 78.1219 46.0576 73.6019 50.0435 72.5339C54.0293 71.4659 58.2396 74.2544 59.4475 78.7622Z" fill="white"/>
<path fill-rule="evenodd" clip-rule="evenodd" d="M53.9176 86.9924C56.6688 86.2552 58.5756 82.9579 57.585 79.2612C56.5945 75.5645 53.2946 73.6623 50.5433 74.3995C47.7921 75.1367 45.8854 78.434 46.8759 82.1307C47.8665 85.8274 51.1664 87.7296 53.9176 86.9924ZM54.4175 88.858C58.4033 87.79 60.6553 83.2699 59.4475 78.7622C58.2396 74.2544 54.0293 71.4659 50.0435 72.5339C46.0576 73.6019 43.8056 78.1219 45.0135 82.6297C46.2213 87.1375 50.4317 89.926 54.4175 88.858Z" fill="black"/>
<path d="M48.1004 81.091C47.7536 79.7969 48.5111 78.4695 49.7923 78.1262C51.0735 77.7829 52.3931 78.5537 52.7399 79.8478L52.8655 80.3165C53.2122 81.6106 52.4547 82.9379 51.1736 83.2812C49.8924 83.6245 48.5727 82.8537 48.226 81.5596L48.1004 81.091Z" fill="black"/>
<path fill-rule="evenodd" clip-rule="evenodd" d="M58.98 43.338L56.1516 60.4778L51.2041 54.119L48.442 70.0162L46.5193 69.6916L50.0373 49.4436L54.9535 55.7621L57.0545 43.0296L58.98 43.338Z" fill="black"/>
<path d="M54.742 44.0176C54.2588 42.2145 55.3289 40.3611 57.132 39.878C58.9351 39.3949 60.7885 40.4649 61.2716 42.268C61.7548 44.0711 60.6847 45.9245 58.8816 46.4077C57.0785 46.8908 55.2251 45.8208 54.742 44.0176Z" fill="black"/>
<path fill-rule="evenodd" clip-rule="evenodd" d="M68.6625 82.8666C68.4788 81.882 68.6797 80.8947 68.8969 80.374L70.717 81.0765C70.6237 81.3002 70.4891 81.9153 70.5976 82.4972C70.6939 83.0133 70.9514 83.4252 71.6136 83.6059C72.3658 83.8111 73.0046 83.6109 73.5382 83.2615C74.0958 82.8964 74.4714 82.4051 74.5847 82.215L76.2812 83.1631C76.0427 83.5632 75.4705 84.2929 74.6181 84.8511C73.7416 85.425 72.5082 85.8504 71.0596 85.4552C69.5209 85.0354 68.8584 83.9168 68.6625 82.8666Z" fill="black"/>
<path d="M73.4645 61.6539C74.1511 64.2162 72.5151 66.8809 69.8104 67.6056C67.1058 68.3303 64.3566 66.8406 63.67 64.2783C62.9835 61.716 64.6195 59.0513 67.3241 58.3266C70.0288 57.6019 72.778 59.0915 73.4645 61.6539Z" fill="white"/>
<path fill-rule="evenodd" clip-rule="evenodd" d="M69.3132 65.7498C71.0743 65.2779 71.9883 63.6069 71.5989 62.1538C71.2096 60.7006 69.5825 59.7105 67.8214 60.1824C66.0603 60.6543 65.1463 62.3253 65.5357 63.7784C65.925 65.2315 67.552 66.2217 69.3132 65.7498ZM69.8104 67.6056C72.5151 66.8809 74.1511 64.2162 73.4645 61.6539C72.778 59.0915 70.0288 57.6019 67.3241 58.3266C64.6195 59.0513 62.9835 61.716 63.67 64.2783C64.3566 66.8406 67.1058 68.3303 69.8104 67.6056Z" fill="black"/>
<path d="M92.1902 43.5603C93.9956 50.2982 89.6893 57.3065 82.5717 59.2136C75.4541 61.1208 68.2206 57.2046 66.4152 50.4666C64.6097 43.7287 68.9161 36.7204 76.0336 34.8133C83.1512 32.9061 90.3847 36.8223 92.1902 43.5603Z" fill="white"/>
<path fill-rule="evenodd" clip-rule="evenodd" d="M82.0688 57.3367C88.2515 55.68 91.8171 49.6661 90.3156 44.0625C88.8141 38.459 82.7193 35.0336 76.5366 36.6902C70.3538 38.3469 66.7882 44.3608 68.2897 49.9644C69.7912 55.5679 75.886 58.9933 82.0688 57.3367ZM82.5717 59.2136C89.6893 57.3065 93.9956 50.2982 92.1902 43.5603C90.3847 36.8223 83.1512 32.9061 76.0336 34.8133C68.9161 36.7204 64.6097 43.7287 66.4152 50.4666C68.2206 57.2046 75.4541 61.1208 82.5717 59.2136Z" fill="black"/>
<path d="M72.0397 48.7754L74.6172 48.0848L75.9984 53.2397L73.4209 53.9304L72.0397 48.7754Z" fill="black"/>
<path d="M75.2091 44.7953L77.9584 44.0586L79.3858 49.3854L76.6364 50.1221L75.2091 44.7953Z" fill="black"/>
<path d="M78.4246 40.9869L81.1739 40.2503L82.6933 45.9208L79.944 46.6574L78.4246 40.9869Z" fill="black"/>
<path d="M83.1134 42.6774L85.8628 41.9407L87.2901 47.2675L84.5408 48.0042L83.1134 42.6774Z" fill="black"/>
<path fill-rule="evenodd" clip-rule="evenodd" d="M73.4234 46.3788L75.7255 54.9704L74.6945 55.2467L72.3924 46.655L73.4234 46.3788Z" fill="black"/>
<path fill-rule="evenodd" clip-rule="evenodd" d="M77.0993 44.2888L79.3554 52.7086L78.3244 52.9849L76.0683 44.5651L77.0993 44.2888Z" fill="black"/>
<path fill-rule="evenodd" clip-rule="evenodd" d="M79.7622 38.4186L81.9723 46.6666L80.9413 46.9428L78.7312 38.6948L79.7622 38.4186Z" fill="black"/>
<path fill-rule="evenodd" clip-rule="evenodd" d="M84.8655 41.6554L87.0755 49.9034L86.0445 50.1796L83.8345 41.9316L84.8655 41.6554Z" fill="black"/>
<path d="M62.1018 111.411C61.7622 110.144 62.5143 108.841 63.7817 108.501L107.096 96.8952C108.364 96.5557 109.666 97.3078 110.006 98.5752L112.004 106.033C112.344 107.301 111.592 108.603 110.324 108.943L67.0098 120.549C65.7425 120.889 64.4397 120.137 64.1002 118.869L62.1018 111.411Z" fill="white"/>
<path fill-rule="evenodd" clip-rule="evenodd" d="M107.557 98.6163L64.2428 110.222C63.926 110.307 63.738 110.633 63.8229 110.95L65.8213 118.408C65.9062 118.725 66.2318 118.913 66.5487 118.828L109.863 107.222C110.18 107.137 110.368 106.811 110.283 106.494L108.285 99.0363C108.2 98.7195 107.874 98.5315 107.557 98.6163ZM63.7817 108.501C62.5143 108.841 61.7622 110.144 62.1018 111.411L64.1002 118.869C64.4397 120.137 65.7425 120.889 67.0098 120.549L110.324 108.943C111.592 108.603 112.344 107.301 112.004 106.033L110.006 98.5752C109.666 97.3078 108.364 96.5557 107.096 96.8952L63.7817 108.501Z" fill="black"/>
<path d="M70.8863 112.72L70.9245 113.546L71.5623 113.375L71.7833 114.199L70.965 114.419L71.0048 115.482L70.1543 115.71L70.1146 114.647L69.3092 114.862L69.3489 115.925L68.4985 116.153L68.4587 115.09L67.7919 115.269L67.5709 114.444L68.4085 114.22L68.38 113.392L67.7325 113.565L67.5115 112.741L68.3426 112.518L68.2885 111.466L69.139 111.238L69.1931 112.29L69.9985 112.074L69.9444 111.022L70.7948 110.794L70.8489 111.846L71.5029 111.671L71.7239 112.496L70.8863 112.72ZM69.2305 113.164L69.2622 113.991L70.074 113.773L70.0358 112.948L69.2305 113.164Z" fill="black"/>
<path d="M74.6701 114.5L73.7206 110.956L72.6312 111.645L72.3938 110.759L73.4841 110.073L74.6728 109.755L75.8589 114.181L74.6701 114.5Z" fill="black"/>
<path d="M82.2567 110.098C82.351 110.45 82.3691 110.789 82.3109 111.113C82.2543 111.434 82.1363 111.728 81.9569 111.995C81.7769 112.259 81.5429 112.49 81.255 112.687C80.9665 112.882 80.6397 113.028 80.2746 113.126C80.0297 113.191 79.789 113.229 79.5524 113.24C79.3159 113.25 79.0872 113.234 78.8664 113.192C78.6478 113.15 78.4409 113.082 78.2457 112.989C78.0521 112.894 77.8765 112.775 77.7188 112.633C77.561 112.491 77.4234 112.326 77.3059 112.136C77.1905 111.946 77.1012 111.733 77.0379 111.497C76.9752 111.263 76.9462 111.034 76.9511 110.812C76.9576 110.587 76.9936 110.374 77.0593 110.172C77.1249 109.97 77.218 109.781 77.3385 109.603C77.4606 109.423 77.6057 109.26 77.7736 109.114C77.9437 108.967 78.1339 108.839 78.344 108.73C78.5541 108.62 78.7816 108.533 79.0264 108.467C79.3915 108.37 79.7479 108.334 80.0957 108.36C80.4429 108.385 80.7609 108.468 81.0497 108.609C81.3378 108.748 81.5871 108.944 81.7973 109.196C82.0092 109.445 82.1623 109.746 82.2567 110.098ZM81.0615 110.418C81.0016 110.195 80.91 110.008 80.7867 109.857C80.6633 109.706 80.5203 109.589 80.3577 109.506C80.1972 109.422 80.024 109.373 79.8383 109.358C79.6525 109.344 79.4662 109.361 79.2793 109.411C79.0925 109.461 78.9212 109.54 78.7655 109.646C78.6098 109.752 78.4823 109.882 78.3829 110.035C78.2857 110.187 78.2204 110.36 78.187 110.553C78.1557 110.746 78.17 110.954 78.2298 111.177C78.2897 111.401 78.3813 111.588 78.5046 111.739C78.6301 111.889 78.7731 112.006 78.9336 112.09C79.0957 112.171 79.271 112.22 79.4595 112.236C79.6474 112.25 79.8348 112.232 80.0217 112.182C80.2085 112.132 80.3787 112.054 80.5323 111.948C80.6852 111.841 80.8106 111.711 80.9084 111.561C81.0078 111.408 81.0731 111.235 81.1043 111.042C81.1356 110.85 81.1213 110.642 81.0615 110.418Z" fill="black"/>
<path d="M86.8479 108.706C87.0824 108.696 87.2875 108.705 87.4632 108.734C87.6384 108.761 87.7878 108.807 87.9113 108.873C88.0343 108.937 88.1336 109.02 88.2092 109.121C88.2842 109.221 88.3395 109.337 88.3752 109.47C88.4374 109.702 88.4284 109.922 88.3483 110.13C88.2703 110.338 88.1352 110.529 87.9429 110.705C87.7522 110.878 87.513 111.033 87.2251 111.17C86.9378 111.309 86.6181 111.426 86.2659 111.52C86.0296 111.584 85.8098 111.631 85.6065 111.662C85.4037 111.696 85.2143 111.719 85.0381 111.732C84.8641 111.744 84.7021 111.749 84.5522 111.748C84.4017 111.745 84.2608 111.739 84.1296 111.73L83.8456 110.67C83.9977 110.706 84.164 110.729 84.3443 110.74C84.5268 110.751 84.7116 110.754 84.8986 110.747C85.0872 110.738 85.2746 110.72 85.4607 110.693C85.6463 110.664 85.8197 110.628 85.9807 110.585C86.2728 110.507 86.5012 110.427 86.666 110.346C86.8302 110.263 86.9502 110.183 87.026 110.105C87.1012 110.025 87.1434 109.95 87.1525 109.881C87.1637 109.811 87.1618 109.748 87.1469 109.693C87.1215 109.598 87.0685 109.525 86.9878 109.473C86.9093 109.42 86.7866 109.392 86.6199 109.388C86.4554 109.384 86.2392 109.406 85.9714 109.455C85.7031 109.502 85.3689 109.577 84.9689 109.682L84.7341 108.806C85.097 108.709 85.3957 108.621 85.63 108.542C85.8665 108.462 86.0524 108.387 86.1877 108.316C86.323 108.246 86.4127 108.177 86.4568 108.11C86.5032 108.042 86.5163 107.971 86.4961 107.895C86.4898 107.872 86.4786 107.847 86.4625 107.822C86.4486 107.795 86.4247 107.771 86.3909 107.747C86.3571 107.724 86.3117 107.705 86.2548 107.691C86.198 107.676 86.1237 107.669 86.032 107.671C85.9404 107.673 85.8295 107.684 85.6993 107.705C85.5691 107.726 85.4149 107.76 85.2367 107.808C85.0691 107.853 84.9007 107.907 84.7314 107.971C84.5641 108.034 84.4025 108.105 84.2463 108.184C84.0901 108.263 83.9414 108.347 83.8 108.438C83.6586 108.529 83.5313 108.625 83.4181 108.727L83.135 107.67C83.4012 107.495 83.6947 107.341 84.0155 107.207C84.3357 107.07 84.659 106.958 84.9855 106.871C85.3055 106.785 85.613 106.726 85.908 106.693C86.2051 106.659 86.4727 106.661 86.7106 106.699C86.9501 106.733 87.1523 106.809 87.3171 106.926C87.4814 107.041 87.592 107.205 87.649 107.417C87.6795 107.531 87.6881 107.645 87.675 107.759C87.6634 107.87 87.6261 107.98 87.5632 108.089C87.5003 108.198 87.4102 108.304 87.2927 108.407C87.1752 108.51 87.027 108.609 86.8479 108.706Z" fill="black"/>
<path d="M91.9036 109.046C92.2042 108.966 92.4548 108.87 92.6551 108.759C92.8577 108.647 93.0171 108.525 93.1336 108.392C93.2494 108.258 93.3258 108.117 93.3627 107.972C93.3991 107.824 93.4017 107.675 93.3706 107.524C93.2733 107.608 93.169 107.691 93.0576 107.774C92.9479 107.854 92.8273 107.932 92.6959 108.009C92.5661 108.083 92.4225 108.152 92.265 108.218C92.1097 108.282 91.9375 108.34 91.7485 108.39C91.4629 108.467 91.1902 108.51 90.9304 108.52C90.67 108.528 90.4338 108.496 90.2218 108.427C90.0091 108.355 89.8262 108.239 89.6731 108.08C89.5199 107.921 89.4085 107.711 89.3389 107.451C89.2612 107.161 89.2552 106.898 89.3208 106.662C89.3858 106.424 89.506 106.211 89.6814 106.023C89.8562 105.834 90.0783 105.671 90.3478 105.534C90.6168 105.395 90.9177 105.281 91.2506 105.192C91.6329 105.09 91.9945 105.043 92.3355 105.053C92.6787 105.063 92.9894 105.131 93.2677 105.259C93.546 105.387 93.7857 105.577 93.9868 105.83C94.1873 106.08 94.3388 106.396 94.4413 106.778C94.5287 107.105 94.5555 107.428 94.5215 107.748C94.4869 108.065 94.3806 108.364 94.2024 108.644C94.0259 108.922 93.772 109.173 93.4409 109.398C93.1113 109.619 92.6942 109.798 92.1895 109.933C92.0456 109.972 91.896 110.006 91.7406 110.036C91.5853 110.066 91.432 110.091 91.2807 110.111C91.1323 110.132 90.9893 110.149 90.852 110.16C90.7141 110.17 90.5923 110.175 90.4866 110.175L90.2216 109.186C90.2999 109.195 90.3942 109.203 90.5043 109.211C90.6166 109.217 90.7434 109.218 90.8846 109.212C91.0274 109.204 91.183 109.188 91.3514 109.163C91.5219 109.138 91.706 109.099 91.9036 109.046ZM93.0865 106.554C93.0387 106.47 92.9645 106.391 92.864 106.317C92.7657 106.242 92.646 106.182 92.5051 106.137C92.3656 106.089 92.2088 106.062 92.0345 106.056C91.8596 106.047 91.6744 106.069 91.479 106.122C91.3201 106.164 91.1753 106.217 91.0448 106.28C90.9137 106.34 90.8035 106.41 90.7142 106.489C90.6271 106.568 90.5641 106.655 90.5252 106.75C90.488 106.843 90.4837 106.943 90.5125 107.051C90.5436 107.167 90.5937 107.259 90.6628 107.328C90.7319 107.397 90.8185 107.445 90.9225 107.472C91.0259 107.498 91.1463 107.505 91.2836 107.493C91.4231 107.481 91.5777 107.452 91.7474 107.407C91.8869 107.369 92.022 107.319 92.1526 107.257C92.2853 107.194 92.4095 107.125 92.5253 107.05C92.6405 106.973 92.7454 106.892 92.8399 106.807C92.9366 106.721 93.0188 106.637 93.0865 106.554Z" fill="black"/>
<path d="M96.3577 108.688L96.1454 107.896C96.6501 107.478 97.0862 107.108 97.4534 106.786C97.8229 106.464 98.1234 106.181 98.3549 105.937C98.5887 105.692 98.7545 105.482 98.8524 105.306C98.9497 105.128 98.9808 104.974 98.9457 104.843C98.9359 104.806 98.9207 104.766 98.9 104.724C98.8809 104.678 98.8511 104.636 98.8105 104.596C98.7715 104.553 98.7199 104.515 98.6557 104.482C98.5915 104.448 98.5097 104.427 98.4103 104.416C98.3103 104.404 98.1908 104.405 98.0519 104.419C97.9124 104.431 97.7482 104.463 97.5592 104.513C97.3853 104.56 97.2069 104.62 97.0243 104.695C96.841 104.767 96.6625 104.848 96.4888 104.938C96.315 105.028 96.15 105.126 95.9937 105.23C95.8374 105.334 95.6971 105.441 95.5728 105.553L95.2906 104.5C95.5593 104.317 95.8649 104.143 96.2073 103.978C96.5512 103.81 96.924 103.672 97.3256 103.564C97.7015 103.463 98.0465 103.407 98.3607 103.394C98.6749 103.381 98.951 103.411 99.189 103.483C99.4285 103.552 99.6262 103.662 99.7819 103.814C99.9392 103.963 100.048 104.15 100.108 104.376C100.142 104.5 100.159 104.621 100.161 104.738C100.164 104.852 100.145 104.97 100.104 105.092C100.062 105.213 99.9969 105.342 99.907 105.479C99.8186 105.614 99.6998 105.763 99.5505 105.927C99.4033 106.091 99.2233 106.274 99.0104 106.476C98.797 106.676 98.5467 106.902 98.2597 107.153L100.772 106.48L101.029 107.437L96.3577 108.688Z" fill="black"/>
<path d="M104.189 105.755C104.49 105.674 104.74 105.578 104.941 105.467C105.143 105.355 105.303 105.233 105.419 105.1C105.535 104.966 105.611 104.826 105.648 104.68C105.684 104.532 105.687 104.383 105.656 104.232C105.559 104.316 105.454 104.399 105.343 104.482C105.233 104.562 105.113 104.64 104.981 104.717C104.851 104.791 104.708 104.86 104.55 104.926C104.395 104.99 104.223 105.048 104.034 105.099C103.748 105.175 103.476 105.218 103.216 105.228C102.955 105.236 102.719 105.205 102.507 105.135C102.295 105.063 102.112 104.947 101.958 104.788C101.805 104.629 101.694 104.419 101.624 104.159C101.547 103.87 101.541 103.606 101.606 103.37C101.671 103.132 101.791 102.919 101.967 102.731C102.142 102.542 102.364 102.379 102.633 102.242C102.902 102.103 103.203 101.989 103.536 101.9C103.918 101.798 104.28 101.751 104.621 101.761C104.964 101.771 105.275 101.839 105.553 101.967C105.831 102.095 106.071 102.285 106.272 102.538C106.473 102.788 106.624 103.104 106.727 103.486C106.814 103.813 106.841 104.136 106.807 104.456C106.772 104.773 106.666 105.072 106.488 105.353C106.311 105.63 106.057 105.881 105.726 106.106C105.397 106.327 104.98 106.506 104.475 106.641C104.331 106.68 104.181 106.714 104.026 106.744C103.871 106.774 103.717 106.799 103.566 106.819C103.418 106.841 103.275 106.857 103.137 106.868C102.999 106.878 102.878 106.883 102.772 106.883L102.507 105.894C102.585 105.903 102.68 105.912 102.79 105.919C102.902 105.926 103.029 105.926 103.17 105.921C103.313 105.912 103.468 105.896 103.637 105.871C103.807 105.846 103.991 105.807 104.189 105.755ZM105.372 103.262C105.324 103.178 105.25 103.099 105.149 103.025C105.051 102.95 104.931 102.89 104.79 102.845C104.651 102.797 104.494 102.77 104.32 102.764C104.145 102.756 103.96 102.778 103.764 102.83C103.605 102.872 103.461 102.925 103.33 102.988C103.199 103.048 103.089 103.118 103 103.197C102.912 103.276 102.849 103.363 102.811 103.458C102.773 103.551 102.769 103.651 102.798 103.759C102.829 103.875 102.879 103.967 102.948 104.036C103.017 104.105 103.104 104.153 103.208 104.181C103.311 104.206 103.432 104.213 103.569 104.201C103.709 104.189 103.863 104.16 104.033 104.115C104.172 104.077 104.307 104.027 104.438 103.965C104.571 103.902 104.695 103.833 104.811 103.758C104.926 103.681 105.031 103.6 105.125 103.515C105.222 103.429 105.304 103.345 105.372 103.262Z" fill="black"/>
<path d="M33.3111 142.799L121.661 119.125L124.966 131.46L44.648 152.981L34.3488 146.671L33.3111 142.799Z" fill="#C4C4C4"/>
<path d="M103.421 126.78L105.142 126.319L107.755 136.072L106.034 136.533L103.421 126.78Z" fill="black"/>
<path d="M107.15 125.781L108.871 125.32L111.484 135.073L109.763 135.534L107.15 125.781Z" fill="black"/>
<path d="M110.879 124.781L112.6 124.32L115.213 134.073L113.492 134.534L110.879 124.781Z" fill="black"/>
<path d="M114.608 123.782L116.616 123.244L119.229 132.997L117.221 133.535L114.608 123.782Z" fill="black"/>
<path d="M118.624 122.706L120.345 122.245L122.958 131.998L121.237 132.459L118.624 122.706Z" fill="black"/>
<path d="M99.6917 127.779L101.413 127.318L104.026 137.071L102.305 137.532L99.6917 127.779Z" fill="black"/>
<path d="M93.7543 121.684L90.4808 118.411L94.9524 117.212L93.7543 121.684Z" fill="black"/>
<path d="M98.1577 119.582L97.5905 117.465L98.1621 117.312L98.7293 119.429L98.1577 119.582Z" fill="black"/>
<path d="M101.709 118.63L99.8908 117.559L100.28 119.013L99.7089 119.166L99.1416 117.049L99.7626 116.883L101.584 117.96L101.192 116.5L101.761 116.347L102.328 118.464L101.709 118.63Z" fill="black"/>
<path d="M104.849 116.159C104.804 116.15 104.745 116.142 104.673 116.135C104.6 116.128 104.52 116.125 104.431 116.126C104.341 116.125 104.246 116.131 104.145 116.143C104.043 116.154 103.941 116.173 103.838 116.2C103.756 116.222 103.686 116.244 103.629 116.265C103.573 116.285 103.526 116.305 103.488 116.324C103.451 116.342 103.423 116.361 103.402 116.378C103.382 116.395 103.368 116.41 103.358 116.425C103.349 116.439 103.344 116.453 103.343 116.465C103.343 116.477 103.344 116.488 103.346 116.497C103.355 116.528 103.377 116.551 103.414 116.566C103.451 116.581 103.499 116.59 103.557 116.594C103.615 116.597 103.682 116.598 103.757 116.595C103.832 116.592 103.912 116.588 103.995 116.584C104.08 116.579 104.167 116.576 104.257 116.574C104.347 116.57 104.436 116.571 104.522 116.577C104.609 116.582 104.693 116.593 104.774 116.61C104.854 116.626 104.927 116.651 104.993 116.683C105.059 116.716 105.116 116.76 105.163 116.813C105.21 116.866 105.245 116.933 105.266 117.012C105.293 117.113 105.299 117.205 105.282 117.288C105.266 117.371 105.234 117.445 105.187 117.512C105.141 117.578 105.082 117.637 105.011 117.689C104.94 117.74 104.863 117.786 104.78 117.825C104.699 117.865 104.614 117.899 104.526 117.928C104.439 117.957 104.355 117.982 104.275 118.004C104.066 118.06 103.867 118.094 103.679 118.107C103.492 118.121 103.323 118.121 103.173 118.106L103.038 117.6C103.199 117.641 103.376 117.659 103.567 117.655C103.76 117.651 103.959 117.621 104.164 117.566C104.286 117.534 104.383 117.501 104.455 117.468C104.529 117.434 104.584 117.402 104.622 117.371C104.66 117.339 104.683 117.309 104.692 117.281C104.701 117.253 104.703 117.228 104.697 117.207C104.688 117.173 104.665 117.148 104.628 117.131C104.59 117.114 104.542 117.103 104.483 117.099C104.425 117.094 104.358 117.093 104.283 117.097C104.208 117.099 104.128 117.103 104.044 117.11C103.96 117.114 103.874 117.119 103.785 117.123C103.696 117.127 103.608 117.127 103.521 117.124C103.435 117.12 103.352 117.11 103.272 117.097C103.192 117.082 103.12 117.059 103.054 117.028C102.988 116.996 102.932 116.954 102.885 116.903C102.838 116.851 102.804 116.785 102.783 116.706C102.758 116.612 102.753 116.527 102.767 116.451C102.782 116.374 102.811 116.305 102.854 116.243C102.897 116.179 102.952 116.123 103.016 116.074C103.082 116.024 103.154 115.98 103.231 115.942C103.307 115.904 103.386 115.871 103.468 115.842C103.55 115.814 103.628 115.789 103.703 115.769C103.785 115.747 103.87 115.729 103.959 115.714C104.048 115.699 104.137 115.688 104.226 115.68C104.314 115.672 104.399 115.667 104.483 115.666C104.567 115.664 104.645 115.665 104.718 115.669L104.849 116.159Z" fill="black"/>
<path d="M106.29 117.403L105.723 115.286L107.866 114.711L107.987 115.163L106.431 115.58L106.525 115.93L108.001 115.534L108.122 115.986L106.646 116.381L106.756 116.794L108.334 116.371L108.455 116.823L106.29 117.403Z" fill="black"/>
<path d="M109.895 116.437L109.323 116.59L108.756 114.473L110.189 114.089C110.343 114.048 110.478 114.029 110.593 114.032C110.71 114.035 110.809 114.057 110.891 114.097C110.975 114.138 111.043 114.196 111.095 114.271C111.148 114.345 111.188 114.432 111.215 114.534C111.239 114.623 111.247 114.705 111.239 114.779C111.232 114.852 111.214 114.919 111.184 114.978C111.154 115.037 111.116 115.09 111.068 115.138C111.02 115.186 110.968 115.229 110.911 115.268L111.829 115.919L111.16 116.098L110.31 115.49L109.686 115.657L109.895 116.437ZM110.636 114.686C110.625 114.645 110.61 114.611 110.591 114.586C110.573 114.56 110.549 114.541 110.517 114.531C110.486 114.52 110.446 114.516 110.399 114.52C110.352 114.524 110.296 114.534 110.229 114.552L109.446 114.762L109.568 115.215L110.35 115.005C110.417 114.987 110.472 114.968 110.513 114.948C110.556 114.928 110.589 114.906 110.611 114.881C110.633 114.855 110.645 114.827 110.647 114.795C110.651 114.763 110.647 114.727 110.636 114.686Z" fill="black"/>
<path d="M113.297 113.75L113.74 115.406L113.169 115.56L112.725 113.903L111.827 114.144L111.703 113.683L114.073 113.048L114.196 113.509L113.297 113.75Z" fill="black"/>
</svg>
