<svg width="131" height="138" viewBox="0 0 131 138" fill="none" xmlns="http://www.w3.org/2000/svg">
<path d="M130.017 5.23274L38.2248 -19.3629L5.40495 103.122L11.9043 115.01L94.6608 137.184L130.017 5.23274Z" fill="black"/>
<path d="M127.917 1.59565L36.1249 -23L28.4003 5.8285L30.3465 10.0393L27.0414 22.3739L23.2122 25.1909L3.30505 99.4853L9.80442 111.372L92.5609 133.547L127.917 1.59565Z" fill="#E0E0E0"/>
<path fill-rule="evenodd" clip-rule="evenodd" d="M32.2345 9.87736L28.6008 23.4388L24.7715 26.2558L5.21093 99.2569L11.0021 109.849L91.3009 131.365L125.735 2.85559L37.3848 -20.8177L30.2884 5.66654L32.2345 9.87736ZM28.4003 5.8285L36.1249 -23L127.917 1.59565L92.5609 133.547L9.80442 111.372L3.30505 99.4853L23.2122 25.1909L27.0414 22.3739L30.3465 10.0393L28.4003 5.8285Z" fill="black"/>
<path d="M21.2863 75.1655L20.8425 76.8218L20.2709 76.6686L20.7147 75.0124L19.8165 74.7717L19.9399 74.311L22.3095 74.9459L22.1861 75.4066L21.2863 75.1655Z" fill="black"/>
<path d="M23.0084 77.4021L22.4368 77.249L23.0041 75.132L24.4369 75.516C24.591 75.5573 24.7172 75.6081 24.8155 75.6686C24.9148 75.7293 24.99 75.7979 25.0411 75.8744C25.0932 75.9511 25.123 76.035 25.1305 76.1262C25.1393 76.2166 25.13 76.3127 25.1028 76.4144C25.0788 76.5037 25.0451 76.5783 25.0015 76.6382C24.959 76.6984 24.9097 76.7468 24.8536 76.7835C24.7988 76.8195 24.7388 76.8464 24.6735 76.8641C24.6082 76.8818 24.5413 76.8931 24.4729 76.8979L24.942 77.9202L24.2734 77.7411L23.8413 76.7897L23.2173 76.6225L23.0084 77.4021ZM24.5258 76.2565C24.5369 76.2154 24.5406 76.1789 24.537 76.1472C24.5344 76.1156 24.5221 76.0876 24.5001 76.063C24.4783 76.0373 24.446 76.0143 24.403 75.994C24.361 75.974 24.3066 75.955 24.2399 75.9371L23.4572 75.7274L23.3358 76.1803L24.1185 76.3901C24.1853 76.408 24.2418 76.4187 24.2882 76.4223C24.3356 76.4262 24.375 76.423 24.4064 76.4127C24.438 76.4014 24.4628 76.3827 24.4808 76.3567C24.4998 76.331 24.5148 76.2976 24.5258 76.2565Z" fill="black"/>
<path d="M27.4757 78.1698L26.2955 77.8535L25.9894 78.2009L25.3515 78.03L27.0265 76.2099L27.6644 76.3808L28.2049 78.7945L27.5671 78.6236L27.4757 78.1698ZM26.611 77.4955L27.3845 77.7028L27.2082 76.82L26.611 77.4955Z" fill="black"/>
<path d="M31.7441 78.6067C31.7078 78.7423 31.6606 78.859 31.6025 78.9568C31.5446 79.0536 31.478 79.1338 31.4026 79.1972C31.3283 79.261 31.2458 79.3099 31.1552 79.344C31.0657 79.3783 30.9703 79.3995 30.869 79.4076C30.7678 79.4157 30.6617 79.4132 30.5507 79.4C30.44 79.3857 30.3267 79.363 30.2106 79.3319L28.8671 78.972L29.4343 76.855L30.7748 77.2142C30.8908 77.2453 31.0002 77.2829 31.1029 77.3269C31.2059 77.3699 31.2992 77.4202 31.3828 77.4778C31.4675 77.5358 31.5405 77.6021 31.6019 77.6769C31.6636 77.7507 31.7106 77.8343 31.7428 77.9277C31.7763 78.0203 31.7939 78.123 31.7957 78.2358C31.7974 78.3485 31.7802 78.4722 31.7441 78.6067ZM31.1679 78.4523C31.1952 78.3507 31.2055 78.2587 31.1989 78.1766C31.1933 78.0947 31.1677 78.0218 31.1221 77.9579C31.0778 77.8932 31.012 77.8365 30.9249 77.7878C30.838 77.7381 30.7273 77.6952 30.5928 77.6592L29.8825 77.4689L29.5622 78.6644L30.2724 78.8548C30.407 78.8908 30.5242 78.9095 30.624 78.911C30.724 78.9114 30.8094 78.8946 30.8802 78.8607C30.9522 78.8261 31.0111 78.7747 31.0569 78.7066C31.1037 78.6388 31.1407 78.554 31.1679 78.4523Z" fill="black"/>
<path d="M32.298 79.8912L32.8652 77.7743L33.4368 77.9275L32.8696 80.0444L32.298 79.8912Z" fill="black"/>
<path d="M35.849 80.8427L34.8104 79.0056L34.4207 80.46L33.8491 80.3069L34.4164 78.19L35.0373 78.3563L36.0757 80.2L36.467 78.7394L37.0356 78.8918L36.4683 81.0087L35.849 80.8427Z" fill="black"/>
<path d="M39.3916 79.4653C39.599 79.5209 39.7868 79.5904 39.9549 79.674C40.1242 79.7568 40.276 79.8459 40.41 79.9413L40.2713 80.4589C40.2216 80.4104 40.1639 80.3608 40.0982 80.3102C40.0335 80.2598 39.9612 80.2113 39.8812 80.1645C39.8013 80.1178 39.7139 80.074 39.6192 80.0332C39.5244 79.9924 39.4226 79.9574 39.3137 79.9282C39.1782 79.8919 39.0574 79.87 38.9515 79.8626C38.8457 79.8551 38.7524 79.8582 38.6716 79.8718C38.5909 79.8854 38.5216 79.9081 38.4635 79.9399C38.4057 79.9706 38.3569 80.0071 38.317 80.0492C38.277 80.0914 38.2451 80.1367 38.221 80.1853C38.197 80.2339 38.1785 80.2824 38.1656 80.3307C38.1543 80.3728 38.1462 80.4196 38.1412 80.4711C38.1372 80.5229 38.1404 80.5766 38.1508 80.6322C38.1623 80.6881 38.1835 80.7444 38.2145 80.8012C38.2456 80.858 38.2908 80.913 38.3503 80.9664C38.4108 81.02 38.4869 81.0707 38.5787 81.1184C38.6708 81.1651 38.7841 81.2065 38.9187 81.2425C38.9864 81.2607 39.0461 81.2744 39.0975 81.2838C39.1489 81.2932 39.1961 81.2998 39.2391 81.3036C39.2832 81.3077 39.3246 81.3094 39.3633 81.3088C39.403 81.3084 39.4439 81.3078 39.4859 81.307L39.5545 81.0512L38.9135 80.8795L39.0378 80.4158L40.2503 80.7407L39.9605 81.8222C39.8776 81.8275 39.7861 81.8283 39.6858 81.8246C39.5868 81.8201 39.4851 81.8115 39.3806 81.7989C39.2768 81.7876 39.1735 81.7726 39.0706 81.7539C38.9678 81.7351 38.8716 81.7138 38.7823 81.6898C38.6436 81.6527 38.5131 81.6078 38.3907 81.5552C38.2683 81.5025 38.1567 81.4424 38.0559 81.3746C37.9565 81.3062 37.869 81.2299 37.7936 81.1458C37.7192 81.062 37.6606 80.9704 37.6179 80.8709C37.5763 80.7716 37.5516 80.6643 37.544 80.5489C37.5377 80.4327 37.5523 80.3084 37.5878 80.1759C37.6231 80.0444 37.6735 79.9302 37.7391 79.8333C37.8047 79.7364 37.8813 79.6556 37.9691 79.5911C38.0579 79.5268 38.1565 79.4772 38.2649 79.4424C38.3743 79.4079 38.4896 79.3865 38.6107 79.3782C38.7331 79.3692 38.86 79.3724 38.9913 79.3877C39.1236 79.4034 39.257 79.4292 39.3916 79.4653Z" fill="black"/>
<path d="M21.015 79.2349C20.9802 79.2047 20.9332 79.1684 20.874 79.1261C20.8149 79.0839 20.7466 79.0408 20.6692 78.997C20.5921 78.9521 20.5066 78.9094 20.4129 78.8688C20.3195 78.8273 20.2214 78.7927 20.1187 78.7652C20.0365 78.7432 19.9655 78.7269 19.9055 78.7164C19.8466 78.7061 19.7961 78.6997 19.7538 78.6972C19.7126 78.6949 19.6786 78.6963 19.652 78.7013C19.6266 78.7055 19.6063 78.7116 19.5909 78.7196C19.5756 78.7276 19.5643 78.7367 19.5572 78.7469C19.5511 78.7573 19.5468 78.7672 19.5443 78.7765C19.536 78.8073 19.5442 78.8386 19.5686 78.8705C19.5934 78.9013 19.63 78.9332 19.6785 78.966C19.7272 78.9977 19.7848 79.0313 19.8513 79.0668C19.918 79.1012 19.9886 79.1377 20.063 79.1763C20.1387 79.2142 20.2159 79.2548 20.2947 79.2979C20.3747 79.3402 20.4507 79.3853 20.5226 79.4332C20.5955 79.4814 20.6626 79.533 20.7239 79.5879C20.7854 79.6418 20.8365 79.6996 20.8773 79.7611C20.918 79.8227 20.9456 79.8884 20.9599 79.9583C20.9742 80.0282 20.9707 80.1027 20.9495 80.1818C20.9223 80.2834 20.8809 80.3659 20.8254 80.4292C20.7699 80.4925 20.7051 80.5412 20.6311 80.5753C20.558 80.6097 20.4778 80.6317 20.3904 80.6413C20.3034 80.6499 20.214 80.6507 20.1223 80.6437C20.0316 80.6371 19.9409 80.6243 19.8501 80.6055C19.7604 80.587 19.6755 80.567 19.5954 80.5455C19.3859 80.4894 19.1964 80.4199 19.0271 80.3371C18.8584 80.2556 18.7127 80.1708 18.5899 80.0829L18.7253 79.5775C18.8451 79.6933 18.9889 79.7973 19.1569 79.8897C19.3258 79.9823 19.513 80.0561 19.7184 80.1111C19.8396 80.1436 19.9399 80.1639 20.0192 80.1719C20.0998 80.1792 20.1643 80.1789 20.2126 80.1709C20.2613 80.1619 20.2965 80.1477 20.3182 80.1282C20.34 80.1087 20.3537 80.0882 20.3595 80.0666C20.3686 80.0327 20.361 79.9993 20.3368 79.9664C20.3129 79.9324 20.2767 79.8991 20.2282 79.8663C20.18 79.8325 20.1226 79.7983 20.0558 79.7639C19.9894 79.7285 19.9181 79.6924 19.8421 79.6555C19.7675 79.6179 19.6905 79.5785 19.6112 79.5375C19.5319 79.4964 19.4555 79.4528 19.382 79.4067C19.3098 79.3598 19.2427 79.3105 19.1806 79.2586C19.1188 79.2057 19.0673 79.1495 19.026 79.09C18.985 79.0295 18.957 78.9653 18.9422 78.8975C18.9276 78.8286 18.9309 78.7547 18.9521 78.6756C18.9771 78.5821 19.0152 78.5059 19.0662 78.4469C19.1172 78.3879 19.1768 78.3422 19.2449 78.3098C19.3144 78.2767 19.3895 78.255 19.4704 78.2448C19.5524 78.2348 19.6361 78.2324 19.7217 78.2378C19.8072 78.2431 19.8924 78.2538 19.9773 78.2699C20.0621 78.286 20.142 78.3042 20.217 78.3242C20.2992 78.3463 20.3823 78.3729 20.4664 78.4043C20.5515 78.4359 20.6341 78.4707 20.7142 78.5087C20.7946 78.5456 20.8712 78.5843 20.944 78.6247C21.0179 78.6654 21.0853 78.7055 21.1463 78.745L21.015 79.2349Z" fill="black"/>
<path d="M21.641 81.0325L22.2082 78.9156L24.3514 79.4898L24.2304 79.9413L22.6743 79.5243L22.5806 79.874L24.0566 80.2695L23.9356 80.721L22.4596 80.3255L22.349 80.7384L23.9267 81.1611L23.8057 81.6125L21.641 81.0325Z" fill="black"/>
<path d="M26.3045 80.5069L25.8607 82.1632L25.2891 82.01L25.7329 80.3538L24.8347 80.1131L24.9581 79.6524L27.3277 80.2873L27.2043 80.748L26.3045 80.5069Z" fill="black"/>
<path d="M29.0851 81.252L28.6414 82.9083L28.0698 82.7551L28.5135 81.0988L27.6153 80.8582L27.7388 80.3975L30.1084 81.0324L29.9849 81.4931L29.0851 81.252Z" fill="black"/>
<path d="M30.2357 83.3354L30.8029 81.2185L31.3745 81.3717L30.8073 83.4886L30.2357 83.3354Z" fill="black"/>
<path d="M33.7867 84.2869L32.7482 82.4498L32.3585 83.9042L31.7869 83.7511L32.3541 81.6342L32.975 81.8005L34.0134 83.6442L34.4048 82.1836L34.9733 82.336L34.406 84.4529L33.7867 84.2869Z" fill="black"/>
<path d="M37.3293 82.9095C37.5368 82.9651 37.7245 83.0346 37.8926 83.1182C38.062 83.201 38.2137 83.2901 38.3478 83.3855L38.209 83.9032C38.1593 83.8546 38.1016 83.805 38.0359 83.7544C37.9712 83.704 37.8989 83.6555 37.819 83.6087C37.739 83.562 37.6517 83.5182 37.5569 83.4774C37.4622 83.4366 37.3603 83.4016 37.2515 83.3725C37.1159 83.3361 36.9951 83.3142 36.8893 83.3068C36.7834 83.2993 36.6901 83.3024 36.6094 83.316C36.5287 83.3296 36.4593 83.3523 36.4012 83.3841C36.3434 83.4148 36.2946 83.4513 36.2547 83.4934C36.2148 83.5356 36.1828 83.5809 36.1588 83.6295C36.1347 83.6782 36.1162 83.7266 36.1033 83.7749C36.092 83.817 36.0839 83.8638 36.0789 83.9153C36.0749 83.9671 36.0781 84.0208 36.0886 84.0764C36.1 84.1323 36.1212 84.1887 36.1523 84.2454C36.1833 84.3022 36.2285 84.3572 36.288 84.4106C36.3485 84.4642 36.4246 84.5149 36.5164 84.5626C36.6085 84.6093 36.7218 84.6507 36.8564 84.6867C36.9242 84.7049 36.9838 84.7187 37.0352 84.728C37.0866 84.7374 37.1339 84.744 37.1769 84.7478C37.2209 84.7519 37.2623 84.7536 37.301 84.753C37.3407 84.7526 37.3816 84.752 37.4237 84.7512L37.4922 84.4954L36.8513 84.3237L36.9755 83.86L38.1881 84.1849L37.8982 85.2664C37.8154 85.2717 37.7238 85.2725 37.6235 85.2688C37.5245 85.2643 37.4228 85.2557 37.3183 85.2431C37.2145 85.2318 37.1112 85.2168 37.0083 85.1981C36.9055 85.1793 36.8094 85.158 36.72 85.134C36.5813 85.0969 36.4508 85.052 36.3284 84.9994C36.206 84.9467 36.0944 84.8866 35.9937 84.8188C35.8942 84.7504 35.8068 84.6741 35.7313 84.59C35.6569 84.5062 35.5983 84.4146 35.5556 84.3151C35.514 84.2158 35.4893 84.1085 35.4817 83.9931C35.4754 83.8769 35.49 83.7526 35.5255 83.6201C35.5608 83.4886 35.6112 83.3744 35.6768 83.2775C35.7424 83.1806 35.8191 83.0998 35.9068 83.0353C35.9956 82.971 36.0942 82.9214 36.2026 82.8866C36.312 82.8521 36.4273 82.8307 36.5484 82.8224C36.6708 82.8134 36.7977 82.8166 36.929 82.8319C37.0613 82.8476 37.1947 82.8734 37.3293 82.9095Z" fill="black"/>
<path d="M20.0292 84.4422C19.947 84.4532 19.8651 84.461 19.7835 84.4655C19.7019 84.4701 19.6187 84.4704 19.534 84.4664C19.4489 84.4634 19.3604 84.4546 19.2686 84.4399C19.1778 84.4254 19.0815 84.4046 18.9798 84.3774C18.7641 84.3196 18.5716 84.2432 18.4022 84.1483C18.2338 84.0536 18.0962 83.9424 17.9895 83.8148C17.8841 83.6863 17.8135 83.543 17.7778 83.3848C17.7423 83.2256 17.7494 83.053 17.7992 82.8671C17.8491 82.6812 17.929 82.5287 18.0391 82.4096C18.1494 82.2894 18.2822 82.2006 18.4375 82.1431C18.594 82.0849 18.7688 82.0568 18.962 82.0591C19.1562 82.0616 19.3611 82.0917 19.5768 82.1495C19.6785 82.1767 19.7723 82.2068 19.8581 82.2397C19.945 82.2729 20.026 82.3095 20.1012 82.3495C20.1766 82.3884 20.2485 82.4302 20.3169 82.475C20.3853 82.5197 20.4523 82.5674 20.518 82.618L20.3801 83.1326C20.3301 83.0851 20.2769 83.0372 20.2204 82.9891C20.1642 82.9399 20.1004 82.8925 20.029 82.847C19.9578 82.8004 19.8775 82.7568 19.7882 82.7164C19.6991 82.6749 19.596 82.6385 19.4789 82.6071C19.2992 82.5589 19.1448 82.5374 19.0157 82.5424C18.8877 82.5478 18.78 82.5718 18.6926 82.6144C18.6052 82.657 18.5364 82.7146 18.4862 82.787C18.4363 82.8583 18.3999 82.9367 18.377 83.0219C18.3619 83.0784 18.353 83.136 18.3505 83.1948C18.3482 83.2525 18.3549 83.3099 18.3704 83.3669C18.3863 83.4229 18.4118 83.4776 18.447 83.5311C18.4822 83.5846 18.5302 83.6354 18.5911 83.6837C18.6519 83.7319 18.7257 83.777 18.8124 83.8189C18.9005 83.8601 19.0046 83.8968 19.1247 83.929C19.2418 83.9604 19.349 83.9814 19.4464 83.9921C19.544 84.0017 19.6351 84.0047 19.7198 84.001C19.8044 83.9972 19.8832 83.9886 19.9562 83.9751C20.0295 83.9606 20.0998 83.9448 20.1671 83.9276L20.0292 84.4422Z" fill="black"/>
<path d="M22.6627 84.8737L21.4825 84.5575L21.1764 84.9048L20.5386 84.7339L22.2136 82.9138L22.8514 83.0847L23.392 85.4985L22.7541 85.3276L22.6627 84.8737ZM21.7981 84.1995L22.5715 84.4067L22.3952 83.5239L21.7981 84.1995Z" fill="black"/>
<path d="M24.6258 85.8291L24.0542 85.6759L24.6214 83.559L26.0543 83.9429C26.2083 83.9842 26.3345 84.0351 26.4328 84.0955C26.5321 84.1563 26.6073 84.2249 26.6584 84.3013C26.7105 84.378 26.7403 84.462 26.7478 84.5531C26.7566 84.6436 26.7473 84.7396 26.7201 84.8413C26.6962 84.9307 26.6624 85.0053 26.6188 85.0652C26.5763 85.1253 26.527 85.1738 26.4709 85.2105C26.4161 85.2465 26.3561 85.2733 26.2908 85.291C26.2255 85.3088 26.1586 85.32 26.0902 85.3248L26.5594 86.3472L25.8907 86.168L25.4586 85.2167L24.8347 85.0495L24.6258 85.8291ZM26.1432 84.6834C26.1542 84.6423 26.1579 84.6059 26.1543 84.5741C26.1517 84.5426 26.1394 84.5145 26.1174 84.4899C26.0957 84.4643 26.0633 84.4413 26.0203 84.421C25.9783 84.4009 25.924 84.3819 25.8572 84.364L25.0745 84.1543L24.9531 84.6073L25.7358 84.817C25.8026 84.8349 25.8592 84.8457 25.9055 84.8493C25.9529 84.8532 25.9923 84.85 26.0237 84.8397C26.0553 84.8283 26.0802 84.8097 26.0981 84.7836C26.1171 84.7579 26.1322 84.7245 26.1432 84.6834Z" fill="black"/>
<path d="M30.1617 86.1763C30.1254 86.3119 30.0782 86.4286 30.02 86.5264C29.9622 86.6232 29.8956 86.7033 29.8202 86.7668C29.7459 86.8306 29.6634 86.8795 29.5728 86.9135C29.4833 86.9479 29.3879 86.9691 29.2866 86.9772C29.1854 86.9853 29.0793 86.9828 28.9683 86.9695C28.8576 86.9553 28.7443 86.9326 28.6282 86.9015L27.2847 86.5415L27.8519 84.4246L29.1924 84.7838C29.3084 84.8149 29.4178 84.8524 29.5205 84.8965C29.6235 84.9395 29.7168 84.9898 29.8004 85.0474C29.8851 85.1053 29.9581 85.1717 30.0195 85.2465C30.0812 85.3203 30.1282 85.4039 30.1604 85.4973C30.1939 85.5899 30.2115 85.6926 30.2133 85.8054C30.215 85.9181 30.1978 86.0418 30.1617 86.1763ZM29.5855 86.0219C29.6128 85.9202 29.6231 85.8283 29.6165 85.7462C29.6109 85.6643 29.5853 85.5914 29.5397 85.5275C29.4954 85.4627 29.4296 85.406 29.3425 85.3574C29.2556 85.3077 29.1449 85.2648 29.0104 85.2288L28.3001 85.0384L27.9798 86.234L28.69 86.4243C28.8246 86.4604 28.9417 86.4791 29.0415 86.4806C29.1416 86.4809 29.227 86.4642 29.2978 86.4303C29.3698 86.3957 29.4287 86.3443 29.4745 86.2762C29.5213 86.2084 29.5583 86.1236 29.5855 86.0219Z" fill="black"/>
<path d="M45.7972 -6.81691L45.2255 -4.68339L53.2102 -2.5439L52.5093 0.0716739L44.5247 -2.06781L43.2115 2.83305L39.8942 1.9442L43.1808 -10.3213L54.9208 -7.17561L54.22 -4.56003L45.7972 -6.81691Z" fill="black"/>
<path d="M56.2999 6.34008L59.5865 -5.92546L62.9037 -5.03661L59.6172 7.22894L56.2999 6.34008Z" fill="black"/>
<path d="M65.3021 8.75221L68.5886 -3.51333L71.9059 -2.62448L69.3393 6.95407L78.3075 9.3571L77.5876 12.0441L65.3021 8.75221Z" fill="black"/>
<path d="M99.622 11.3847C99.3397 12.438 98.8964 13.3175 98.2921 14.0231C97.6894 14.7227 96.9548 15.2466 96.0884 15.5949C95.222 15.9432 94.2357 16.1191 93.1296 16.1224C92.0309 16.1215 90.8408 15.9493 89.5592 15.6059C88.2776 15.2625 87.1549 14.8149 86.191 14.2633C85.2347 13.7072 84.4655 13.061 83.8834 12.3246C83.3013 11.5882 82.9212 10.7655 82.743 9.8567C82.5665 8.94191 82.6193 7.95783 82.9016 6.90446C83.1838 5.85108 83.6293 4.97539 84.238 4.27739C84.8483 3.57344 85.5896 3.04811 86.4619 2.70141C87.3343 2.3547 88.3228 2.18263 89.4274 2.18519C90.5395 2.1834 91.7364 2.35421 93.018 2.69761C94.2996 3.04101 95.4155 3.48993 96.3659 4.04436C97.3238 4.59444 98.0908 5.2369 98.6669 5.97172C99.2431 6.70655 99.6165 7.53056 99.7871 8.44375C99.9592 9.35099 99.9042 10.3313 99.622 11.3847ZM96.2689 10.4862C96.3917 10.028 96.4392 9.55275 96.4114 9.06052C96.3911 8.56394 96.2418 8.08383 95.9636 7.62017C95.6913 7.15812 95.2635 6.72777 94.6803 6.32912C94.0972 5.93047 93.3078 5.59778 92.3123 5.33104C91.6447 5.15215 91.0432 5.04839 90.5078 5.01975C89.9741 4.98515 89.4977 5.01059 89.0786 5.09605C88.6596 5.18151 88.2915 5.31568 87.9741 5.49855C87.6584 5.67546 87.3877 5.88679 87.1622 6.13252C86.9382 6.3723 86.752 6.63813 86.6035 6.93003C86.4625 7.21757 86.3522 7.51012 86.2725 7.80769C86.1911 8.1112 86.1388 8.42568 86.1155 8.75111C86.0982 9.07815 86.1257 9.40446 86.1982 9.73005C86.2723 10.0497 86.4018 10.3651 86.5868 10.6761C86.7718 10.9872 87.0243 11.2845 87.3445 11.568C87.6662 11.8456 88.0661 12.1058 88.544 12.3487C89.0236 12.5857 89.5972 12.7936 90.2648 12.9725C91.2603 13.2392 92.1102 13.3457 92.8146 13.2921C93.519 13.2384 94.1046 13.0796 94.5715 12.8156C95.0443 12.5532 95.4128 12.215 95.677 11.8011C95.9489 11.3828 96.1462 10.9445 96.2689 10.4862Z" fill="black"/>
<path d="M112.112 11.0095L109.541 20.6059L106.223 19.717L108.795 10.1206L103.582 8.72382L104.297 6.05468L118.049 9.73948L117.334 12.4086L112.112 11.0095Z" fill="black"/>
<path d="M85.2288 65.7815C82.3808 76.4104 67.8013 81.7389 52.6646 77.6831C37.5279 73.6272 27.5659 61.7229 30.414 51.094C33.262 40.4651 47.8414 35.1366 62.9781 39.1924C78.1148 43.2483 88.0768 55.1526 85.2288 65.7815Z" fill="#C4C4C4"/>
<path d="M83.1289 62.1445C80.2809 72.7734 65.7014 78.1019 50.5647 74.046C35.428 69.9901 25.4661 58.0858 28.3141 47.4569C31.1621 36.828 45.7416 31.4995 60.8782 35.5553C76.0149 39.6112 85.9769 51.5156 83.1289 62.1445Z" fill="#C5E1ED"/>
<path fill-rule="evenodd" clip-rule="evenodd" d="M70.7915 71.7763C76.2735 69.7727 80.0398 66.177 81.2549 61.6423C82.4699 57.1077 81.0061 52.1106 77.2603 47.6344C73.5192 43.1638 67.6057 39.3703 60.3751 37.4329C53.1446 35.4955 46.1267 35.824 40.6515 37.8251C35.1694 39.8287 31.4031 43.4244 30.1881 47.959C28.973 52.4937 30.4369 57.4908 34.1827 61.9669C37.9238 66.4375 43.8373 70.231 51.0678 72.1684C58.2983 74.1058 65.3163 73.7773 70.7915 71.7763ZM50.5647 74.046C65.7014 78.1019 80.2809 72.7734 83.1289 62.1445C85.9769 51.5156 76.0149 39.6112 60.8782 35.5553C45.7416 31.4995 31.1621 36.828 28.3141 47.4569C25.4661 58.0858 35.428 69.9901 50.5647 74.046Z" fill="black"/>
<path fill-rule="evenodd" clip-rule="evenodd" d="M62.3152 67.5385C60.2016 67.9204 58.2658 67.7747 57.0872 67.506L57.5255 65.5949C58.4613 65.8082 60.1388 65.9455 61.9937 65.6104C63.8404 65.2767 65.8043 64.4862 67.3964 62.9016L68.7401 64.2943C66.797 66.2283 64.4371 67.1551 62.3152 67.5385Z" fill="black"/>
<path d="M50.599 50.2051C49.3911 54.7129 45.1423 57.4911 41.109 56.4104C37.0757 55.3296 34.7853 50.7993 35.9931 46.2915C37.201 41.7837 41.4498 39.0055 45.4831 40.0862C49.5164 41.1669 51.8068 45.6973 50.599 50.2051Z" fill="white"/>
<path fill-rule="evenodd" clip-rule="evenodd" d="M41.6089 54.5447C44.3929 55.2907 47.7238 53.3968 48.7143 49.7001C49.7049 46.0034 47.7672 42.6978 44.9832 41.9518C42.1992 41.2059 38.8683 43.0998 37.8778 46.7965C36.8872 50.4932 38.825 53.7988 41.6089 54.5447ZM41.109 56.4104C45.1423 57.4911 49.3911 54.7129 50.599 50.2051C51.8068 45.6973 49.5164 41.1669 45.4831 40.0862C41.4498 39.0055 37.201 41.7837 35.9931 46.2915C34.7853 50.7993 37.0757 55.3296 41.109 56.4104Z" fill="black"/>
<path d="M39.6705 46.3141C39.9826 45.1494 41.1587 44.4526 42.2975 44.7577C43.4364 45.0629 44.1066 46.2544 43.7945 47.4191L43.5433 48.3564C43.2313 49.521 42.0551 50.2179 40.9163 49.9127C39.7775 49.6076 39.1073 48.416 39.4193 47.2513L39.6705 46.3141Z" fill="black"/>
<path d="M60.909 52.9676C59.7011 57.4754 55.4908 60.2639 51.505 59.1959C47.5191 58.1279 45.2671 53.6079 46.475 49.1001C47.6828 44.5923 51.8932 41.8038 55.879 42.8718C59.8648 43.9398 62.1168 48.4599 60.909 52.9676Z" fill="white"/>
<path fill-rule="evenodd" clip-rule="evenodd" d="M52.0048 57.3303C54.7561 58.0675 58.056 56.1653 59.0465 52.4686C60.037 48.7719 58.1303 45.4746 55.3791 44.7374C52.6279 44.0002 49.328 45.9024 48.3374 49.5991C47.3469 53.2958 49.2536 56.5931 52.0048 57.3303ZM51.505 59.1959C55.4908 60.2639 59.7011 57.4754 60.909 52.9676C62.1168 48.4599 59.8648 43.9398 55.879 42.8718C51.8932 41.8038 47.6828 44.5923 46.475 49.1001C45.2671 53.6079 47.5191 58.1279 51.505 59.1959Z" fill="black"/>
<path d="M49.9177 49.311C50.2644 48.0169 51.5841 47.2461 52.8653 47.5893C54.1465 47.9326 54.9039 49.26 54.5572 50.5541L54.4316 51.0227C54.0849 52.3168 52.7652 53.0876 51.484 52.7443C50.2029 52.4011 49.4454 51.0737 49.7921 49.7796L49.9177 49.311Z" fill="black"/>
<path fill-rule="evenodd" clip-rule="evenodd" d="M78.2161 22.0557L67.1968 35.485L66.0915 27.5043L55.7509 39.8907L54.2481 38.6483L67.4187 22.872L68.517 30.802L76.7029 20.8259L78.2161 22.0557Z" fill="black"/>
<path d="M74.2061 20.5253C74.6893 18.7222 76.5426 17.6522 78.3458 18.1353C80.1489 18.6185 81.2189 20.4718 80.7358 22.2749C80.2526 24.0781 78.3993 25.1481 76.5961 24.665C74.793 24.1818 73.723 22.3284 74.2061 20.5253Z" fill="black"/>
<path fill-rule="evenodd" clip-rule="evenodd" d="M66.8372 61.1297C67.1704 60.1851 67.838 59.4306 68.2865 59.0883L69.5116 60.6067C69.3189 60.7537 68.8947 61.2191 68.6978 61.7773C68.5231 62.2725 68.5402 62.7579 69.0233 63.2454C69.5721 63.7993 70.2254 63.9453 70.8622 63.9095C71.5277 63.8721 72.0986 63.6345 72.2918 63.5265L73.2869 65.1958C72.8803 65.423 72.0199 65.7689 71.0027 65.8261C69.9567 65.8849 68.6757 65.6366 67.6188 64.57C66.4962 63.4372 66.4818 62.1372 66.8372 61.1297Z" fill="black"/>
<path d="M81.6022 45.16C80.9156 47.7224 78.1665 49.212 75.4618 48.4873C72.7571 47.7626 71.1211 45.0979 71.8077 42.5356C72.4943 39.9733 75.2434 38.4836 77.9481 39.2083C80.6528 39.933 82.2888 42.5977 81.6022 45.16Z" fill="white"/>
<path fill-rule="evenodd" clip-rule="evenodd" d="M75.9591 46.6315C77.7202 47.1034 79.3472 46.1133 79.7366 44.6602C80.1259 43.207 79.212 41.536 77.4508 41.0641C75.6897 40.5922 74.0627 41.5824 73.6733 43.0355C73.284 44.4886 74.1979 46.1596 75.9591 46.6315ZM75.4618 48.4873C78.1665 49.212 80.9156 47.7224 81.6022 45.16C82.2888 42.5977 80.6528 39.933 77.9481 39.2083C75.2434 38.4836 72.4943 39.9733 71.8077 42.5356C71.1211 45.0979 72.7571 47.7626 75.4618 48.4873Z" fill="black"/>
<path d="M106.866 38.8534C105.06 45.5913 97.8269 49.5075 90.7094 47.6003C83.5918 45.6932 79.2855 38.685 81.0909 31.947C82.8963 25.209 90.1298 21.2929 97.2474 23.2C104.365 25.1072 108.671 32.1154 106.866 38.8534Z" fill="white"/>
<path fill-rule="evenodd" clip-rule="evenodd" d="M91.2123 45.7234C97.395 47.3801 103.49 43.9546 104.991 38.3511C106.493 32.7475 102.927 26.7336 96.7445 25.077C90.5617 23.4203 84.4669 26.8457 82.9654 32.4493C81.464 38.0528 85.0296 44.0667 91.2123 45.7234ZM90.7094 47.6003C97.8269 49.5075 105.06 45.5913 106.866 38.8534C108.671 32.1154 104.365 25.1072 97.2474 23.2C90.1298 21.2929 82.8963 25.209 81.0909 31.947C79.2855 38.685 83.5918 45.6932 90.7094 47.6003Z" fill="black"/>
<path d="M86.8075 33.2946L89.385 33.9852L88.0037 39.1402L85.4262 38.4496L86.8075 33.2946Z" fill="black"/>
<path d="M91.5424 31.4324L94.2917 32.1691L92.8644 37.4959L90.115 36.7592L91.5424 31.4324Z" fill="black"/>
<path d="M96.2312 29.7419L98.9805 30.4786L97.4611 36.1491L94.7118 35.4124L96.2312 29.7419Z" fill="black"/>
<path d="M99.4467 33.5503L102.196 34.287L100.769 39.6138L98.0194 38.8771L99.4467 33.5503Z" fill="black"/>
<path fill-rule="evenodd" clip-rule="evenodd" d="M89.2041 31.9108L86.902 40.5024L85.871 40.2262L88.1731 31.6345L89.2041 31.9108Z" fill="black"/>
<path fill-rule="evenodd" clip-rule="evenodd" d="M93.4325 31.9387L91.1764 40.3586L90.1454 40.0823L92.4015 31.6625L93.4325 31.9387Z" fill="black"/>
<path fill-rule="evenodd" clip-rule="evenodd" d="M98.6739 28.1864L96.4638 36.4344L95.4328 36.1582L97.6429 27.9102L98.6739 28.1864Z" fill="black"/>
<path fill-rule="evenodd" clip-rule="evenodd" d="M101.475 33.5413L99.2649 41.7893L98.2339 41.513L100.444 33.265L101.475 33.5413Z" fill="black"/>
<path d="M46.8832 82.5696C47.2228 81.3022 48.5255 80.5501 49.7929 80.8897L93.1074 92.4957C94.3747 92.8353 95.1269 94.1381 94.7873 95.4054L92.7889 102.864C92.4493 104.131 91.1466 104.883 89.8792 104.543L46.5647 92.9374C45.2973 92.5978 44.5452 91.2951 44.8848 90.0277L46.8832 82.5696Z" fill="white"/>
<path fill-rule="evenodd" clip-rule="evenodd" d="M92.6462 94.2169L49.3317 82.6108C49.0149 82.5259 48.6892 82.7139 48.6043 83.0308L46.6059 90.4889C46.521 90.8057 46.709 91.1314 47.0259 91.2163L90.3403 102.822C90.6572 102.907 90.9829 102.719 91.0678 102.402L93.0662 94.9443C93.1511 94.6274 92.963 94.3017 92.6462 94.2169ZM49.7929 80.8897C48.5255 80.5501 47.2228 81.3022 46.8832 82.5696L44.8848 90.0277C44.5452 91.2951 45.2973 92.5978 46.5647 92.9374L89.8792 104.543C91.1466 104.883 92.4493 104.131 92.7889 102.864L94.7873 95.4054C95.1269 94.1381 94.3747 92.8353 93.1074 92.4957L49.7929 80.8897Z" fill="black"/>
<path d="M53.8362 88.0957L53.4566 88.8296L54.0944 89.0005L53.8735 89.8252L53.0552 89.6059L52.558 90.5465L51.7076 90.3186L52.2047 89.378L51.3994 89.1622L50.9022 90.1028L50.0517 89.8749L50.5489 88.9344L49.8821 88.7557L50.103 87.931L50.9406 88.1554L51.3299 87.4242L50.6824 87.2507L50.9034 86.426L51.7345 86.6487L52.2139 85.7102L53.0643 85.9381L52.585 86.8765L53.3904 87.0923L53.8697 86.1539L54.7202 86.3818L54.2408 87.3202L54.8948 87.4954L54.6738 88.3201L53.8362 88.0957ZM52.1804 87.652L51.7943 88.3842L52.6061 88.6017L52.9858 87.8678L52.1804 87.652Z" fill="black"/>
<path d="M56.2234 91.5286L57.1729 87.985L55.8849 88.037L56.1223 87.1511L57.4094 87.1023L58.5982 87.4209L57.4121 91.8472L56.2234 91.5286Z" fill="black"/>
<path d="M64.9942 91.5102C64.8999 91.8624 64.7465 92.1643 64.534 92.4158C64.3244 92.6658 64.0751 92.8614 63.7864 93.0027C63.4982 93.1418 63.1802 93.2247 62.8324 93.2512C62.4852 93.2755 62.1291 93.2388 61.764 93.141C61.5191 93.0754 61.2917 92.988 61.0816 92.8787C60.8714 92.7695 60.6813 92.6414 60.5112 92.4946C60.3432 92.3483 60.1979 92.1862 60.0752 92.0083C59.9553 91.8288 59.8625 91.6382 59.7969 91.4365C59.7312 91.2348 59.6949 91.0225 59.6878 90.7996C59.6829 90.5773 59.7122 90.3481 59.7755 90.1118C59.8382 89.8777 59.9272 89.6656 60.0426 89.4756C60.1607 89.284 60.2986 89.1172 60.4563 88.9753C60.614 88.8334 60.7894 88.7158 60.9825 88.6225C61.1782 88.5277 61.3854 88.4589 61.604 88.4162C61.8248 88.374 62.0534 88.3582 62.29 88.3687C62.5266 88.3791 62.7673 88.4171 63.0122 88.4827C63.3773 88.5806 63.7038 88.7279 63.9917 88.9248C64.2802 89.1195 64.5142 89.3502 64.6936 89.6169C64.8736 89.8815 64.9916 90.1756 65.0476 90.499C65.1064 90.8209 65.0886 91.158 64.9942 91.5102ZM63.7991 91.1899C63.8589 90.9666 63.8732 90.7586 63.8419 90.5661C63.8106 90.3736 63.7453 90.2007 63.646 90.0475C63.5488 89.8948 63.4234 89.7657 63.2698 89.6601C63.1163 89.5545 62.9461 89.4767 62.7592 89.4266C62.5724 89.3766 62.385 89.3586 62.1971 89.3727C62.0092 89.3868 61.8339 89.4353 61.6712 89.5184C61.5107 89.6019 61.3677 89.719 61.2422 89.8695C61.1188 90.0206 61.0272 90.2078 60.9674 90.4312C60.9075 90.6546 60.8933 90.8625 60.9245 91.055C60.958 91.2481 61.0233 91.421 61.1205 91.5737C61.2204 91.7247 61.348 91.8544 61.5031 91.9627C61.6588 92.0689 61.83 92.147 62.0169 92.1971C62.2037 92.2472 62.39 92.2649 62.5758 92.2502C62.7622 92.2334 62.9353 92.1842 63.0953 92.1028C63.2579 92.0198 63.4009 91.9027 63.5243 91.7516C63.6476 91.6005 63.7392 91.4133 63.7991 91.1899Z" fill="black"/>
<path d="M69.6666 92.5999C69.8746 92.7085 70.0475 92.8193 70.1853 92.9322C70.3236 93.0429 70.4298 93.1577 70.5039 93.2765C70.5785 93.3932 70.6231 93.5145 70.6377 93.6404C70.6529 93.7642 70.6426 93.8926 70.607 94.0258C70.5448 94.2577 70.4271 94.4437 70.2538 94.5837C70.0826 94.7243 69.8698 94.8226 69.6153 94.8788C69.3636 94.9333 69.0789 94.9479 68.7611 94.9226C68.4428 94.8995 68.1075 94.8407 67.7553 94.7463C67.519 94.683 67.305 94.6142 67.1132 94.5398C66.9208 94.4675 66.7451 94.3928 66.5862 94.3157C66.4295 94.2392 66.2865 94.1629 66.1573 94.0868C66.0286 94.0086 65.9096 93.933 65.8003 93.86L66.0843 92.8001C66.1984 92.9067 66.3307 93.01 66.4811 93.1102C66.6337 93.2109 66.7925 93.3052 66.9577 93.3932C67.1256 93.4797 67.2969 93.5578 67.4715 93.6276C67.6467 93.6953 67.8149 93.7507 67.976 93.7938C68.268 93.8721 68.5057 93.9173 68.6888 93.9296C68.8726 93.9397 69.0167 93.93 69.1213 93.9005C69.2265 93.8688 69.3003 93.8253 69.3428 93.7699C69.3874 93.7151 69.4172 93.6598 69.4321 93.6039C69.4574 93.5094 69.4482 93.4195 69.4043 93.3341C69.3626 93.2492 69.2704 93.1635 69.1279 93.077C68.9875 92.9911 68.7892 92.9022 68.5329 92.8106C68.2772 92.7167 67.9499 92.6152 67.5511 92.506L67.7859 91.6298C68.1488 91.727 68.4515 91.8001 68.6939 91.8489C68.9385 91.8984 69.137 91.9262 69.2895 91.9326C69.4421 91.9389 69.5542 91.9241 69.626 91.8881C69.7 91.8526 69.747 91.7973 69.7671 91.7222C69.7735 91.6986 69.7761 91.6716 69.775 91.6414C69.776 91.6118 69.7677 91.5785 69.75 91.5415C69.7322 91.5045 69.7024 91.4655 69.6605 91.4243C69.6186 91.3831 69.5576 91.3403 69.4774 91.2958C69.3973 91.2513 69.2956 91.2057 69.1723 91.1588C69.049 91.112 68.8983 91.0647 68.72 91.0169C68.5525 90.972 68.3795 90.9349 68.2009 90.9054C68.0245 90.8766 67.849 90.8572 67.6744 90.8472C67.4999 90.8373 67.3286 90.8363 67.1608 90.8443C66.9929 90.8522 66.8345 90.8719 66.6857 90.9034L66.9688 89.8468C67.2868 89.8284 67.6183 89.8412 67.9632 89.8853C68.3088 89.9273 68.6448 89.992 68.9712 90.0795C69.2912 90.1652 69.5872 90.2675 69.8592 90.3865C70.1333 90.5059 70.364 90.6414 70.5513 90.7929C70.7413 90.9428 70.8785 91.1096 70.9628 91.2933C71.0476 91.4749 71.0616 91.672 71.0046 91.8846C70.9741 91.9984 70.9246 92.1014 70.8562 92.1935C70.7905 92.2841 70.7032 92.3609 70.5943 92.4237C70.4854 92.4866 70.3543 92.5332 70.2012 92.5636C70.048 92.5939 69.8699 92.606 69.6666 92.5999Z" fill="black"/>
<path d="M73.8746 95.4227C74.1753 95.5033 74.4402 95.5455 74.6694 95.5493C74.9007 95.5538 75.0998 95.5277 75.2669 95.4712C75.4345 95.4125 75.5708 95.3293 75.6756 95.2216C75.781 95.1118 75.8578 94.9839 75.9061 94.838C75.7801 94.8618 75.6482 94.8817 75.5104 94.8977C75.3753 94.9121 75.2317 94.9197 75.0796 94.9204C74.9302 94.9195 74.771 94.9079 74.6021 94.8856C74.4352 94.864 74.2573 94.8278 74.0683 94.7771C73.7827 94.7006 73.5249 94.6016 73.2951 94.4802C73.0658 94.3566 72.8767 94.2116 72.728 94.0451C72.5798 93.8765 72.4792 93.685 72.4262 93.4705C72.3732 93.256 72.3815 93.0189 72.4511 92.759C72.5288 92.4691 72.6551 92.2382 72.83 92.0664C73.0056 91.8925 73.2161 91.7682 73.4617 91.6936C73.7078 91.6168 73.9818 91.5866 74.2835 91.603C74.5858 91.6173 74.9034 91.669 75.2363 91.7582C75.6186 91.8606 75.9549 92.0014 76.2453 92.1805C76.5379 92.3601 76.7726 92.575 76.9496 92.825C77.1266 93.075 77.2392 93.3595 77.2872 93.6785C77.3358 93.9953 77.3089 94.3449 77.2065 94.7272C77.119 95.0536 76.9806 95.3469 76.7912 95.6069C76.6024 95.8647 76.3608 96.0705 76.0665 96.2241C75.7748 96.3761 75.4295 96.4666 75.0304 96.4955C74.6341 96.5228 74.1836 96.4688 73.6789 96.3336C73.535 96.295 73.3883 96.2499 73.2387 96.1984C73.089 96.1468 72.9438 96.0917 72.803 96.0333C72.6637 95.9775 72.5317 95.9203 72.407 95.8616C72.2829 95.8007 72.1749 95.7441 72.083 95.6919L72.348 94.7029C72.4114 94.7498 72.489 94.804 72.5807 94.8654C72.6746 94.9274 72.7841 94.9912 72.9092 95.057C73.037 95.1212 73.1799 95.1848 73.338 95.2478C73.4982 95.3115 73.677 95.3698 73.8746 95.4227ZM76.1451 93.8558C76.1457 93.7593 76.121 93.6537 76.0712 93.5391C76.0235 93.425 75.9499 93.3132 75.8503 93.2037C75.7535 93.0926 75.6312 92.9907 75.4833 92.8982C75.3361 92.8035 75.1647 92.73 74.9693 92.6776C74.8103 92.635 74.6587 92.6082 74.5143 92.5971C74.3706 92.5839 74.2402 92.5893 74.1233 92.6132C74.0086 92.6377 73.9105 92.6816 73.8291 92.745C73.7504 92.8067 73.6966 92.8913 73.6679 92.9987C73.6368 93.1147 73.6339 93.2198 73.6593 93.3141C73.6847 93.4083 73.7356 93.4933 73.812 93.569C73.8889 93.6426 73.9898 93.7088 74.1144 93.7675C74.2413 93.8268 74.3895 93.8792 74.5592 93.9246C74.6988 93.962 74.8407 93.9863 74.9851 93.9973C75.1316 94.009 75.2737 94.0113 75.4113 94.0045C75.5495 93.9955 75.6809 93.9777 75.8054 93.9513C75.932 93.9253 76.0453 93.8935 76.1451 93.8558Z" fill="black"/>
<path d="M77.911 97.3398L78.1233 96.5473C78.7697 96.4374 79.3323 96.3349 79.8112 96.24C80.2923 96.1456 80.694 96.0507 81.0166 95.9553C81.3412 95.8604 81.5899 95.7613 81.7626 95.658C81.9359 95.5525 82.0401 95.4342 82.0752 95.3032C82.085 95.2667 82.0916 95.2248 82.0951 95.1774C82.1013 95.1284 82.0968 95.0765 82.0815 95.0218C82.069 94.9655 82.0433 94.9068 82.0044 94.8458C81.9655 94.7847 81.9056 94.7249 81.8246 94.6664C81.7442 94.6057 81.6403 94.5468 81.5129 94.4896C81.386 94.4303 81.2281 94.3754 81.0391 94.3247C80.8652 94.2781 80.6805 94.2413 80.4852 94.2143C80.2905 94.1851 80.0953 94.1662 79.8996 94.1575C79.704 94.1488 79.5125 94.1505 79.3252 94.1624C79.1378 94.1743 78.9624 94.1976 78.799 94.232L79.0812 93.1786C79.4052 93.1549 79.7568 93.1571 80.136 93.185C80.518 93.2114 80.9098 93.2784 81.3114 93.386C81.6872 93.4867 82.0144 93.6101 82.2929 93.7561C82.5715 93.902 82.7958 94.0657 82.9659 94.2471C83.1387 94.4269 83.2546 94.6214 83.3136 94.8306C83.3754 95.0382 83.3761 95.2547 83.3156 95.4802C83.2823 95.6048 83.2369 95.7181 83.1797 95.8202C83.1251 95.9206 83.0497 96.0132 82.9533 96.0979C82.857 96.1826 82.7356 96.2617 82.5893 96.3353C82.4457 96.4073 82.2682 96.4771 82.0567 96.5447C81.8474 96.6129 81.6 96.6813 81.3147 96.7499C81.0298 96.8163 80.7002 96.8868 80.3257 96.9614L82.8385 97.6347L82.5821 98.5914L77.911 97.3398Z" fill="black"/>
<path d="M86.16 98.7146C86.4607 98.7951 86.7256 98.8373 86.9548 98.8412C87.1861 98.8456 87.3852 98.8196 87.5523 98.7631C87.7199 98.7044 87.8562 98.6212 87.961 98.5135C88.0664 98.4036 88.1432 98.2757 88.1915 98.1299C88.0655 98.1536 87.9335 98.1735 87.7957 98.1895C87.6607 98.204 87.5171 98.2115 87.365 98.2122C87.2156 98.2113 87.0564 98.1998 86.8874 98.1775C86.7206 98.1558 86.5427 98.1196 86.3537 98.069C86.0681 97.9925 85.8103 97.8935 85.5805 97.772C85.3512 97.6485 85.1621 97.5034 85.0134 97.337C84.8652 97.1684 84.7646 96.9768 84.7116 96.7624C84.6586 96.5479 84.6669 96.3107 84.7365 96.0509C84.8142 95.7609 84.9405 95.5301 85.1154 95.3583C85.2909 95.1843 85.5015 95.06 85.7471 94.9854C85.9932 94.9087 86.2672 94.8785 86.5689 94.8949C86.8712 94.9091 87.1888 94.9609 87.5217 95.0501C87.904 95.1525 88.2403 95.2933 88.5307 95.4723C88.8232 95.652 89.058 95.8668 89.235 96.1168C89.412 96.3668 89.5246 96.6513 89.5726 96.9703C89.6212 97.2872 89.5943 97.6368 89.4918 98.0191C89.4044 98.3455 89.266 98.6387 89.0766 98.8987C88.8878 99.1566 88.6462 99.3623 88.3519 99.5159C88.0602 99.668 87.7149 99.7584 87.3158 99.7873C86.9195 99.8146 86.469 99.7607 85.9643 99.6254C85.8204 99.5869 85.6736 99.5418 85.524 99.4902C85.3744 99.4386 85.2292 99.3836 85.0883 99.3251C84.9491 99.2694 84.8171 99.2122 84.6924 99.1534C84.5683 99.0926 84.4603 99.036 84.3684 98.9838L84.6334 97.9948C84.6968 98.0417 84.7744 98.0958 84.8661 98.1572C84.96 98.2192 85.0695 98.2831 85.1946 98.3488C85.3224 98.413 85.4653 98.4766 85.6234 98.5397C85.7835 98.6033 85.9624 98.6616 86.16 98.7146ZM88.4305 97.1477C88.4311 97.0512 88.4064 96.9456 88.3566 96.831C88.3089 96.7169 88.2353 96.6051 88.1357 96.4956C88.0389 96.3844 87.9165 96.2826 87.7687 96.1901C87.6214 96.0953 87.4501 96.0218 87.2547 95.9694C87.0957 95.9269 86.9441 95.9 86.7997 95.889C86.656 95.8758 86.5256 95.8811 86.4087 95.9051C86.294 95.9296 86.1959 95.9735 86.1145 96.0368C86.0358 96.0986 85.982 96.1832 85.9532 96.2906C85.9222 96.4065 85.9193 96.5117 85.9447 96.6059C85.9701 96.7002 86.021 96.7852 86.0974 96.8609C86.1743 96.9345 86.2751 97.0006 86.3998 97.0593C86.5266 97.1186 86.6749 97.171 86.8446 97.2165C86.9841 97.2539 87.1261 97.2781 87.2705 97.2892C87.417 97.3008 87.5591 97.3032 87.6967 97.2964C87.8349 97.2874 87.9663 97.2696 88.0908 97.2431C88.2174 97.2172 88.3307 97.1854 88.4305 97.1477Z" fill="black"/>
<path d="M6.25594 95.3568L94.606 119.03L91.3009 131.365L10.9827 109.844L5.21831 99.2293L6.25594 95.3568Z" fill="#C4C4C4"/>
<path d="M7.28529 98.3997L9.0064 98.8608L7.54603 104.311L5.82493 103.85L7.28529 98.3997Z" fill="black"/>
<path d="M29.9465 104.472L31.6676 104.933L29.0543 114.686L27.3332 114.225L29.9465 104.472Z" fill="black"/>
<path d="M52.3208 110.467L54.042 110.928L51.4287 120.681L49.7076 120.22L52.3208 110.467Z" fill="black"/>
<path d="M74.9821 116.539L76.7032 117L74.0899 126.753L72.3688 126.292L74.9821 116.539Z" fill="black"/>
<path d="M33.6756 105.471L35.3967 105.932L32.7834 115.685L31.0623 115.224L33.6756 105.471Z" fill="black"/>
<path d="M11.0144 99.3988L12.7355 99.86L10.3528 108.752L8.63165 108.291L11.0144 99.3988Z" fill="black"/>
<path d="M56.3368 111.543L58.0579 112.004L55.4446 121.757L53.7235 121.296L56.3368 111.543Z" fill="black"/>
<path d="M78.7111 117.538L80.4322 117.999L77.8189 127.752L76.0978 127.291L78.7111 117.538Z" fill="black"/>
<path d="M37.4046 106.47L39.1257 106.931L36.5124 116.684L34.7913 116.223L37.4046 106.47Z" fill="black"/>
<path d="M41.1337 107.469L42.8548 107.93L40.2415 117.683L38.5204 117.222L41.1337 107.469Z" fill="black"/>
<path d="M60.0658 112.542L61.7869 113.003L59.1736 122.756L57.4525 122.295L60.0658 112.542Z" fill="black"/>
<path d="M14.7434 100.398L16.4645 100.859L13.8512 110.612L12.1301 110.151L14.7434 100.398Z" fill="black"/>
<path d="M82.4402 118.537L84.1613 118.999L81.548 128.751L79.8269 128.29L82.4402 118.537Z" fill="black"/>
<path d="M44.8627 108.469L46.5838 108.93L43.9705 118.683L42.2494 118.221L44.8627 108.469Z" fill="black"/>
<path d="M63.7949 113.541L65.516 114.003L62.9027 123.755L61.1816 123.294L63.7949 113.541Z" fill="black"/>
<path d="M67.5239 114.541L69.245 115.002L66.6318 124.755L64.9107 124.293L67.5239 114.541Z" fill="black"/>
<path d="M86.1692 119.536L88.1772 120.075L85.5639 129.827L83.5559 129.289L86.1692 119.536Z" fill="black"/>
<path d="M48.5918 109.468L50.3129 109.929L47.6996 119.682L45.9785 119.221L48.5918 109.468Z" fill="black"/>
<path d="M90.1851 120.613L91.9062 121.074L89.293 130.827L87.5719 130.365L90.1851 120.613Z" fill="black"/>
<path d="M71.253 115.54L72.9741 116.001L70.3608 125.754L68.6397 125.293L71.253 115.54Z" fill="black"/>
<path d="M18.4725 101.397L20.1936 101.858L17.5803 111.611L15.8592 111.15L18.4725 101.397Z" fill="black"/>
<path d="M22.2015 102.396L24.2095 102.934L21.5962 112.687L19.5882 112.149L22.2015 102.396Z" fill="black"/>
<path d="M26.2174 103.473L27.9385 103.934L25.3253 113.687L23.6041 113.225L26.2174 103.473Z" fill="black"/>
<path d="M69.1586 107.292L67.9605 102.821L72.432 104.019L69.1586 107.292Z" fill="black"/>
<path d="M74.0232 107.674L74.5905 105.557L75.1621 105.71L74.5948 107.827L74.0232 107.674Z" fill="black"/>
<path d="M77.5742 108.625L76.5357 106.788L76.146 108.242L75.5744 108.089L76.1416 105.972L76.7625 106.139L77.8009 107.982L78.1923 106.522L78.7608 106.674L78.1936 108.791L77.5742 108.625Z" fill="black"/>
<path d="M81.5296 108.055C81.4948 108.025 81.4478 107.989 81.3887 107.946C81.3296 107.904 81.2613 107.861 81.1839 107.817C81.1067 107.772 81.0213 107.729 80.9276 107.689C80.8341 107.647 80.736 107.613 80.6333 107.585C80.5511 107.563 80.4801 107.547 80.4202 107.536C80.3613 107.526 80.3107 107.52 80.2684 107.517C80.2272 107.515 80.1933 107.516 80.1666 107.521C80.1413 107.526 80.1209 107.532 80.1056 107.54C80.0902 107.548 80.079 107.557 80.0718 107.567C80.0657 107.577 80.0614 107.587 80.059 107.597C80.0507 107.627 80.0588 107.659 80.0833 107.691C80.1081 107.721 80.1447 107.753 80.1931 107.786C80.2418 107.818 80.2994 107.851 80.3659 107.887C80.4327 107.921 80.5032 107.958 80.5777 107.996C80.6534 108.034 80.7306 108.075 80.8093 108.118C80.8893 108.16 80.9653 108.205 81.0372 108.253C81.1102 108.302 81.1773 108.353 81.2385 108.408C81.3001 108.462 81.3512 108.52 81.3919 108.581C81.4327 108.643 81.4602 108.709 81.4745 108.778C81.4888 108.848 81.4854 108.923 81.4642 109.002C81.4369 109.104 81.3956 109.186 81.3401 109.249C81.2846 109.313 81.2198 109.361 81.1457 109.395C81.0726 109.43 80.9924 109.452 80.9051 109.461C80.818 109.47 80.7286 109.471 80.6369 109.464C80.5462 109.457 80.4555 109.444 80.3648 109.426C80.2751 109.407 80.1902 109.387 80.1101 109.366C79.9005 109.309 79.7111 109.24 79.5417 109.157C79.3731 109.076 79.2274 108.991 79.1045 108.903L79.2399 108.398C79.3597 108.513 79.5036 108.617 79.6715 108.71C79.8404 108.802 80.0276 108.876 80.2331 108.931C80.3543 108.964 80.4545 108.984 80.5338 108.992C80.6144 108.999 80.6789 108.999 80.7273 108.991C80.7759 108.982 80.8111 108.968 80.8329 108.948C80.8546 108.929 80.8684 108.908 80.8741 108.887C80.8832 108.853 80.8757 108.819 80.8514 108.786C80.8275 108.753 80.7913 108.719 80.7429 108.686C80.6947 108.653 80.6372 108.618 80.5705 108.584C80.504 108.549 80.4328 108.512 80.3568 108.476C80.2821 108.438 80.2051 108.399 80.1259 108.358C80.0466 108.317 79.9702 108.273 79.8967 108.227C79.8245 108.18 79.7573 108.131 79.6953 108.079C79.6335 108.026 79.5819 107.97 79.5406 107.91C79.4996 107.85 79.4717 107.785 79.4568 107.718C79.4422 107.649 79.4455 107.575 79.4667 107.496C79.4918 107.402 79.5298 107.326 79.5809 107.267C79.6319 107.208 79.6915 107.162 79.7596 107.13C79.829 107.097 79.9042 107.075 79.9851 107.065C80.067 107.055 80.1508 107.053 80.2363 107.058C80.3219 107.063 80.4071 107.074 80.4919 107.09C80.5768 107.106 80.6567 107.124 80.7317 107.144C80.8138 107.166 80.897 107.193 80.981 107.224C81.0661 107.256 81.1487 107.291 81.2288 107.329C81.3092 107.366 81.3858 107.404 81.4586 107.445C81.5325 107.486 81.5999 107.526 81.6609 107.565L81.5296 108.055Z" fill="black"/>
<path d="M82.1557 109.853L82.7229 107.736L84.866 108.31L84.7451 108.761L83.1889 108.344L83.0952 108.694L84.5712 109.09L84.4503 109.541L82.9743 109.146L82.8636 109.558L84.4413 109.981L84.3204 110.433L82.1557 109.853Z" fill="black"/>
<path d="M85.7606 110.819L85.189 110.665L85.7562 108.548L87.1891 108.932C87.3432 108.974 87.4693 109.025 87.5676 109.085C87.6669 109.146 87.7421 109.214 87.7932 109.291C87.8453 109.367 87.8751 109.451 87.8826 109.543C87.8914 109.633 87.8822 109.729 87.8549 109.831C87.831 109.92 87.7972 109.995 87.7537 110.055C87.7111 110.115 87.6618 110.163 87.6057 110.2C87.551 110.236 87.4909 110.263 87.4256 110.281C87.3603 110.298 87.2935 110.31 87.225 110.314L87.6942 111.337L87.0255 111.157L86.5935 110.206L85.9695 110.039L85.7606 110.819ZM87.278 109.673C87.289 109.632 87.2927 109.595 87.2891 109.564C87.2866 109.532 87.2743 109.504 87.2522 109.479C87.2305 109.454 87.1981 109.431 87.1551 109.41C87.1132 109.39 87.0588 109.371 86.992 109.354L86.2094 109.144L86.088 109.597L86.8707 109.806C86.9374 109.824 86.994 109.835 87.0404 109.839C87.0877 109.843 87.1271 109.839 87.1585 109.829C87.1902 109.818 87.215 109.799 87.233 109.773C87.252 109.747 87.267 109.714 87.278 109.673Z" fill="black"/>
<path d="M90.0497 110.193L89.6059 111.849L89.0343 111.696L89.4781 110.039L88.5798 109.799L88.7033 109.338L91.0729 109.973L90.9494 110.434L90.0497 110.193Z" fill="black"/>
</svg>
