<svg width="246" height="204" viewBox="0 0 246 204" fill="none" xmlns="http://www.w3.org/2000/svg">
<path d="M189.463 137.293C189.463 173.898 147.204 203.572 95.074 203.572C42.9444 203.572 0.685059 173.898 0.685059 137.293C0.685059 100.688 42.9444 71.0137 95.074 71.0137C147.204 71.0137 189.463 100.688 189.463 137.293Z" fill="#C5E1ED"/>
<path fill-rule="evenodd" clip-rule="evenodd" d="M158.113 178.864C174.003 167.706 183.009 152.91 183.009 137.293C183.009 121.676 174.003 106.88 158.113 95.7217C142.243 84.5778 119.975 77.4799 95.074 77.4799C70.1727 77.4799 47.9052 84.5778 32.0351 95.7217C16.145 106.88 7.139 121.676 7.139 137.293C7.139 152.91 16.145 167.706 32.0351 178.864C47.9052 190.008 70.1727 197.106 95.074 197.106C119.975 197.106 142.243 190.008 158.113 178.864ZM95.074 203.572C147.204 203.572 189.463 173.898 189.463 137.293C189.463 100.688 147.204 71.0137 95.074 71.0137C42.9444 71.0137 0.685059 100.688 0.685059 137.293C0.685059 173.898 42.9444 203.572 95.074 203.572Z" fill="black"/>
<path fill-rule="evenodd" clip-rule="evenodd" d="M127.228 172.545C120.765 175.592 114.419 176.791 110.401 176.942L110.164 170.424C113.354 170.304 118.863 169.301 124.535 166.627C130.181 163.965 135.811 159.734 139.563 153.271L145.079 156.589C140.501 164.477 133.716 169.487 127.228 172.545Z" fill="black"/>
<path d="M74.6575 126.937C74.6575 142.461 63.3972 155.046 49.5069 155.046C35.6165 155.046 24.3562 142.461 24.3562 126.937C24.3562 111.412 35.6165 98.8273 49.5069 98.8273C63.3972 98.8273 74.6575 111.412 74.6575 126.937Z" fill="white"/>
<path fill-rule="evenodd" clip-rule="evenodd" d="M49.5069 148.621C59.0946 148.621 68.167 139.668 68.167 126.937C68.167 114.206 59.0946 105.252 49.5069 105.252C39.9191 105.252 30.8467 114.206 30.8467 126.937C30.8467 139.668 39.9191 148.621 49.5069 148.621ZM49.5069 155.046C63.3972 155.046 74.6575 142.461 74.6575 126.937C74.6575 111.412 63.3972 98.8273 49.5069 98.8273C35.6165 98.8273 24.3562 111.412 24.3562 126.937C24.3562 142.461 35.6165 155.046 49.5069 155.046Z" fill="black"/>
<path d="M36.1919 123.844C36.1919 119.833 39.3713 116.581 43.2933 116.581C47.2152 116.581 50.3946 119.833 50.3946 123.844V127.072C50.3946 131.083 47.2152 134.334 43.2933 134.334C39.3713 134.334 36.1919 131.083 36.1919 127.072V123.844Z" fill="black"/>
<path d="M110.164 126.937C110.164 142.461 99.0363 155.046 85.3093 155.046C71.5824 155.046 60.4546 142.461 60.4546 126.937C60.4546 111.412 71.5824 98.8274 85.3093 98.8274C99.0363 98.8274 110.164 111.412 110.164 126.937Z" fill="white"/>
<path fill-rule="evenodd" clip-rule="evenodd" d="M85.3093 148.621C94.7843 148.621 103.75 139.668 103.75 126.937C103.75 114.206 94.7843 105.252 85.3093 105.252C75.8344 105.252 66.8687 114.206 66.8687 126.937C66.8687 139.668 75.8344 148.621 85.3093 148.621ZM85.3093 155.046C99.0363 155.046 110.164 142.461 110.164 126.937C110.164 111.412 99.0363 98.8274 85.3093 98.8274C71.5824 98.8274 60.4546 111.412 60.4546 126.937C60.4546 142.461 71.5824 155.046 85.3093 155.046Z" fill="black"/>
<path d="M71.6982 124.651C71.6982 120.194 75.2751 116.581 79.6873 116.581C84.0995 116.581 87.6763 120.194 87.6763 124.651V126.265C87.6763 130.721 84.0995 134.334 79.6873 134.334C75.2751 134.334 71.6982 130.721 71.6982 126.265V124.651Z" fill="black"/>
<path fill-rule="evenodd" clip-rule="evenodd" d="M139.161 12.709L115.316 65.3477L104.893 40.6557L82.3312 89.3589L76.4326 86.6606L105.17 24.6282L115.526 49.1636L133.24 10.0603L139.161 12.709Z" fill="black"/>
<path d="M124.959 11.2439C124.959 5.03411 129.993 7.62939e-05 136.203 7.62939e-05C142.412 7.62939e-05 147.446 5.03411 147.446 11.2439C147.446 17.4537 142.412 22.4877 136.203 22.4877C129.993 22.4877 124.959 17.4537 124.959 11.2439Z" fill="black"/>
<path fill-rule="evenodd" clip-rule="evenodd" d="M136.24 148.059C136.498 144.738 137.993 141.738 139.14 140.252L144.383 144.076C143.891 144.715 142.929 146.575 142.776 148.538C142.641 150.28 143.114 151.825 145.086 152.976C147.327 154.283 149.552 154.19 151.567 153.526C153.673 152.833 155.303 151.578 155.831 151.065L160.466 155.572C159.355 156.652 156.888 158.504 153.668 159.564C150.358 160.653 146.028 160.958 141.714 158.441C137.132 155.767 135.966 151.603 136.24 148.059Z" fill="black"/>
<path d="M169.934 84.0329C169.934 92.8573 162.383 100.011 153.068 100.011C143.754 100.011 136.203 92.8573 136.203 84.0329C136.203 75.2084 143.754 68.0548 153.068 68.0548C162.383 68.0548 169.934 75.2084 169.934 84.0329Z" fill="white"/>
<path fill-rule="evenodd" clip-rule="evenodd" d="M153.068 93.6197C159.134 93.6197 163.509 89.0372 163.509 84.0329C163.509 79.0285 159.134 74.446 153.068 74.446C147.003 74.446 142.628 79.0285 142.628 84.0329C142.628 89.0372 147.003 93.6197 153.068 93.6197ZM153.068 100.011C162.383 100.011 169.934 92.8573 169.934 84.0329C169.934 75.2084 162.383 68.0548 153.068 68.0548C143.754 68.0548 136.203 75.2084 136.203 84.0329C136.203 92.8573 143.754 100.011 153.068 100.011Z" fill="black"/>
<path d="M245.682 42.0164C245.682 65.2214 225.811 84.0328 201.299 84.0328C176.786 84.0328 156.915 65.2214 156.915 42.0164C156.915 18.8114 176.786 0 201.299 0C225.811 0 245.682 18.8114 245.682 42.0164Z" fill="white"/>
<path fill-rule="evenodd" clip-rule="evenodd" d="M201.299 77.5687C222.591 77.5687 239.226 61.3146 239.226 42.0164C239.226 22.7182 222.591 6.46406 201.299 6.46406C180.006 6.46406 163.371 22.7182 163.371 42.0164C163.371 61.3146 180.006 77.5687 201.299 77.5687ZM201.299 84.0328C225.811 84.0328 245.682 65.2214 245.682 42.0164C245.682 18.8114 225.811 0 201.299 0C176.786 0 156.915 18.8114 156.915 42.0164C156.915 65.2214 176.786 84.0328 201.299 84.0328Z" fill="black"/>
<path d="M176.444 41.4247H185.321V59.1781H176.444V41.4247Z" fill="black"/>
<path d="M190.055 31.3644H199.524V49.7096H190.055V31.3644Z" fill="black"/>
<path d="M203.666 21.8959H213.134V41.4247H203.666V21.8959Z" fill="black"/>
<path d="M217.277 31.3644H226.745V49.7096H217.277V31.3644Z" fill="black"/>
<path fill-rule="evenodd" clip-rule="evenodd" d="M182.954 34.9152V64.5042H179.403V34.9152H182.954Z" fill="black"/>
<path fill-rule="evenodd" clip-rule="evenodd" d="M196.565 31.3646V60.3618H193.014V31.3646H196.565Z" fill="black"/>
<path fill-rule="evenodd" clip-rule="evenodd" d="M210.175 14.7945V43.1999H206.625V14.7945H210.175Z" fill="black"/>
<path fill-rule="evenodd" clip-rule="evenodd" d="M223.786 29.5889V57.9944H220.236V29.5889H223.786Z" fill="black"/>
</svg>
