<svg width="14" height="14" viewBox="0 0 14 14" fill="none" xmlns="http://www.w3.org/2000/svg">
<path fill-rule="evenodd" clip-rule="evenodd" d="M2 7C2 9.76142 4.23858 12 7 12C9.76142 12 12 9.76142 12 7C12 4.23858 9.76142 2 7 2C4.23858 2 2 4.23858 2 7ZM7 0C3.13401 0 0 3.13401 0 7C0 10.866 3.13401 14 7 14C10.866 14 14 10.866 14 7C14 3.13401 10.866 0 7 0Z" fill="#25DF43"/>
<path fill-rule="evenodd" clip-rule="evenodd" d="M10.7072 5.70718L6.50008 9.91429L3.79297 7.20718L5.20718 5.79297L6.50008 7.08586L9.29297 4.29297L10.7072 5.70718Z" fill="#25DF43"/>
</svg>
