<svg width="82" height="118" viewBox="0 0 82 118" fill="none" xmlns="http://www.w3.org/2000/svg">
<path d="M81.8 3.27274H2.67273V108.858L10.4618 117.018H81.8V3.27274Z" fill="black"/>
<path d="M79.3273 0.799988H0.200012V25.6509L2.67274 28.6182V39.2509L0.200012 42.3418V106.385L7.9891 114.545H79.3273V0.799988Z" fill="#E0E0E0"/>
<path fill-rule="evenodd" clip-rule="evenodd" d="M4.15638 28.081V39.7713L1.68365 42.8622V105.791L8.62395 113.062H77.8437V2.28362H1.68365V25.1137L4.15638 28.081ZM0.200012 25.6509V0.799988H79.3273V114.545H7.9891L0.200012 106.385V42.3418L2.67274 39.2509V28.6182L0.200012 25.6509Z" fill="black"/>
<path d="M9.42096 82.9505V84.3782H8.92823V82.9505H8.15393V82.5534H10.1966V82.9505H9.42096Z" fill="black"/>
<path d="M11.288 84.3782H10.7953V82.5534H12.0305C12.1633 82.5534 12.2757 82.5671 12.3678 82.5945C12.4608 82.622 12.536 82.6609 12.5936 82.7114C12.652 82.7619 12.6941 82.823 12.7198 82.8947C12.7463 82.9655 12.7596 83.0448 12.7596 83.1324C12.7596 83.2094 12.7485 83.2767 12.7264 83.3343C12.7051 83.3918 12.6759 83.4414 12.6387 83.483C12.6024 83.5238 12.5599 83.5583 12.5112 83.5866C12.4625 83.615 12.4112 83.6384 12.3572 83.657L12.9548 84.3782H12.3784L11.8259 83.7062H11.288V84.3782ZM12.2616 83.1298C12.2616 83.0943 12.2567 83.0642 12.2469 83.0394C12.2381 83.0147 12.2222 82.9947 12.1991 82.9797C12.1761 82.9637 12.1451 82.9522 12.1062 82.9451C12.0681 82.9381 12.0203 82.9345 11.9627 82.9345H11.288V83.325H11.9627C12.0203 83.325 12.0681 83.3214 12.1062 83.3144C12.1451 83.3073 12.1761 83.2962 12.1991 83.2812C12.2222 83.2652 12.2381 83.2449 12.2469 83.2201C12.2567 83.1953 12.2616 83.1652 12.2616 83.1298Z" fill="black"/>
<path d="M15.0464 84.0329H14.029L13.8577 84.3782H13.3079L14.2628 82.5534H14.8126L15.7675 84.3782H15.2177L15.0464 84.0329ZM14.2057 83.6769H14.8724L14.5404 83.0049L14.2057 83.6769Z" fill="black"/>
<path d="M18.5736 83.4644C18.5736 83.5813 18.5608 83.6854 18.5351 83.7766C18.5094 83.8669 18.4731 83.9457 18.4262 84.013C18.3801 84.0803 18.3244 84.1374 18.2588 84.1843C18.1942 84.2312 18.122 84.2688 18.0424 84.2972C17.9627 84.3255 17.8768 84.3463 17.7847 84.3596C17.6926 84.372 17.5965 84.3782 17.4965 84.3782H16.3384V82.5534H17.4938C17.5939 82.5534 17.69 82.56 17.782 82.5733C17.8741 82.5857 17.96 82.606 18.0397 82.6344C18.1203 82.6627 18.1933 82.7003 18.2588 82.7473C18.3244 82.7933 18.3801 82.8504 18.4262 82.9186C18.4731 82.9859 18.5094 83.0647 18.5351 83.155C18.5608 83.2453 18.5736 83.3485 18.5736 83.4644ZM18.0769 83.4644C18.0769 83.3768 18.0654 83.3006 18.0424 83.236C18.0202 83.1714 17.9839 83.1182 17.9334 83.0766C17.8839 83.0341 17.8188 83.0027 17.7382 82.9823C17.6576 82.9611 17.5594 82.9505 17.4434 82.9505H16.8311V83.9811H17.4434C17.5594 83.9811 17.6576 83.9709 17.7382 83.9505C17.8188 83.9293 17.8839 83.8974 17.9334 83.8549C17.9839 83.8115 18.0202 83.7575 18.0424 83.6929C18.0654 83.6282 18.0769 83.5521 18.0769 83.4644Z" fill="black"/>
<path d="M19.2958 84.3782V82.5534H19.7886V84.3782H19.2958Z" fill="black"/>
<path d="M22.3569 84.3782L21.1257 83.1244V84.3782H20.633V82.5534H21.1682L22.4007 83.8124V82.5534H22.8908V84.3782H22.3569Z" fill="black"/>
<path d="M24.9093 82.5069C25.0881 82.5069 25.2542 82.5224 25.4073 82.5534C25.5614 82.5835 25.7026 82.6224 25.831 82.6702V83.1165C25.7805 83.0881 25.7234 83.0607 25.6597 83.0341C25.5968 83.0076 25.5282 82.9841 25.4538 82.9637C25.3794 82.9434 25.2998 82.927 25.2148 82.9146C25.1298 82.9022 25.0403 82.896 24.9465 82.896C24.8296 82.896 24.7278 82.9044 24.641 82.9212C24.5542 82.9381 24.4799 82.9606 24.4179 82.989C24.3559 83.0173 24.305 83.0505 24.2651 83.0886C24.2253 83.1258 24.1939 83.1656 24.1709 83.2081C24.1478 83.2506 24.1319 83.294 24.123 83.3383C24.1142 83.3825 24.1098 83.4255 24.1098 83.4671C24.1098 83.5034 24.1133 83.5428 24.1204 83.5853C24.1284 83.6278 24.1425 83.6703 24.1629 83.7128C24.1841 83.7553 24.2134 83.796 24.2505 83.835C24.2877 83.8739 24.336 83.9085 24.3953 83.9386C24.4555 83.9687 24.5277 83.993 24.6118 84.0116C24.6959 84.0293 24.796 84.0382 24.9119 84.0382C24.9704 84.0382 25.0213 84.0364 25.0647 84.0329C25.1081 84.0293 25.1475 84.0245 25.1829 84.0183C25.2192 84.0121 25.2528 84.0045 25.2838 83.9957C25.3157 83.9868 25.3485 83.9775 25.3821 83.9678V83.7473H24.8296V83.3476H25.8748V84.2799C25.8093 84.302 25.7358 84.3224 25.6544 84.341C25.5738 84.3587 25.4901 84.3738 25.4034 84.3862C25.3175 84.3994 25.2311 84.4096 25.1444 84.4167C25.0576 84.4238 24.9757 84.4273 24.8987 84.4273C24.7791 84.4273 24.6645 84.4194 24.5547 84.4034C24.4449 84.3875 24.3422 84.3631 24.2466 84.3304C24.1518 84.2967 24.065 84.2542 23.9862 84.2029C23.9083 84.1515 23.8415 84.0904 23.7857 84.0196C23.7308 83.9488 23.6879 83.8678 23.6569 83.7766C23.6268 83.6845 23.6117 83.5813 23.6117 83.4671C23.6117 83.3538 23.6276 83.2511 23.6595 83.159C23.6914 83.0669 23.7357 82.9854 23.7923 82.9146C23.8499 82.8438 23.9185 82.7827 23.9982 82.7313C24.0788 82.68 24.1669 82.6379 24.2625 82.6051C24.359 82.5715 24.4617 82.5467 24.5706 82.5308C24.6804 82.5148 24.7933 82.5069 24.9093 82.5069Z" fill="black"/>
<path d="M10.0797 86.2819C10.0452 86.2651 9.99958 86.246 9.94291 86.2248C9.88625 86.2035 9.82206 86.1836 9.75034 86.165C9.67862 86.1455 9.6007 86.1296 9.51659 86.1172C9.43247 86.1039 9.34614 86.0973 9.2576 86.0973C9.18677 86.0973 9.12612 86.0995 9.07565 86.1039C9.02607 86.1083 8.98401 86.1141 8.94948 86.1212C8.91583 86.1283 8.88883 86.1367 8.86846 86.1464C8.84898 86.1553 8.83393 86.1646 8.82331 86.1743C8.81268 86.184 8.8056 86.1938 8.80206 86.2035C8.7994 86.2133 8.79807 86.2221 8.79807 86.2301C8.79807 86.2566 8.81135 86.2801 8.83792 86.3005C8.86448 86.32 8.90078 86.3377 8.94682 86.3536C8.99286 86.3687 9.04643 86.3833 9.10752 86.3974C9.16862 86.4107 9.23325 86.4249 9.30143 86.4399C9.37049 86.4541 9.44133 86.47 9.51393 86.4877C9.58742 86.5046 9.65825 86.5245 9.72643 86.5475C9.79549 86.5705 9.86057 86.5975 9.92166 86.6285C9.98276 86.6586 10.0363 86.694 10.0824 86.7348C10.1284 86.7755 10.1647 86.8224 10.1913 86.8756C10.2178 86.9287 10.2311 86.9893 10.2311 87.0575C10.2311 87.1452 10.2156 87.2204 10.1846 87.2833C10.1536 87.3462 10.112 87.3993 10.0598 87.4427C10.0084 87.486 9.94867 87.521 9.88049 87.5476C9.81232 87.5733 9.7406 87.5932 9.66534 87.6073C9.59096 87.6215 9.51526 87.6308 9.43823 87.6352C9.36208 87.6397 9.28948 87.6419 9.22041 87.6419C9.03979 87.6419 8.87245 87.6268 8.71838 87.5967C8.56521 87.5675 8.42974 87.5308 8.31198 87.4865V87.0509C8.43328 87.1182 8.5714 87.1708 8.72635 87.2089C8.88219 87.247 9.04864 87.266 9.22573 87.266C9.33021 87.266 9.41521 87.2607 9.48073 87.2501C9.54713 87.2386 9.59893 87.2244 9.63612 87.2076C9.67331 87.1899 9.69854 87.1708 9.71182 87.1505C9.7251 87.1301 9.73174 87.1106 9.73174 87.092C9.73174 87.0628 9.71846 87.0376 9.6919 87.0163C9.66534 86.9942 9.62903 86.9752 9.58299 86.9592C9.53695 86.9424 9.48338 86.9273 9.42229 86.9141C9.3612 86.8999 9.29612 86.8862 9.22706 86.8729C9.15888 86.8587 9.08849 86.8437 9.01588 86.8277C8.94328 86.8118 8.87245 86.7932 8.80338 86.772C8.73521 86.7498 8.67057 86.7246 8.60948 86.6963C8.54838 86.667 8.49482 86.6329 8.44877 86.594C8.40273 86.5541 8.36643 86.5085 8.33987 86.4572C8.31331 86.405 8.30002 86.3447 8.30002 86.2766C8.30002 86.196 8.31419 86.1265 8.34252 86.0681C8.37086 86.0096 8.40893 85.96 8.45674 85.9193C8.50544 85.8777 8.56122 85.844 8.62409 85.8184C8.68784 85.7927 8.75469 85.7728 8.82463 85.7586C8.89458 85.7444 8.96542 85.7347 9.03713 85.7294C9.10885 85.7241 9.17703 85.7214 9.24167 85.7214C9.3125 85.7214 9.3851 85.725 9.45948 85.732C9.53474 85.7391 9.60867 85.7493 9.68127 85.7626C9.75388 85.775 9.82383 85.7896 9.89112 85.8064C9.9593 85.8232 10.0222 85.8409 10.0797 85.8595V86.2819Z" fill="black"/>
<path d="M10.9706 87.5927V85.7679H12.818V86.157H11.4766V86.4585H12.749V86.8477H11.4766V87.2036H12.8366V87.5927H10.9706Z" fill="black"/>
<path d="M14.6081 86.165V87.5927H14.1154V86.165H13.3411V85.7679H15.3837V86.165H14.6081Z" fill="black"/>
<path d="M17.0051 86.165V87.5927H16.5124V86.165H15.7381V85.7679H17.7807V86.165H17.0051Z" fill="black"/>
<path d="M18.3794 87.5927V85.7679H18.8722V87.5927H18.3794Z" fill="black"/>
<path d="M21.4405 87.5927L20.2093 86.339V87.5927H19.7166V85.7679H20.2518L21.4843 87.027V85.7679H21.9744V87.5927H21.4405Z" fill="black"/>
<path d="M23.9929 85.7214C24.1717 85.7214 24.3378 85.7369 24.4909 85.7679C24.645 85.798 24.7862 85.837 24.9146 85.8848V86.331C24.8641 86.3027 24.807 86.2752 24.7433 86.2487C24.6804 86.2221 24.6118 86.1987 24.5374 86.1783C24.463 86.1579 24.3834 86.1415 24.2984 86.1291C24.2134 86.1168 24.1239 86.1106 24.0301 86.1106C23.9132 86.1106 23.8114 86.119 23.7246 86.1358C23.6378 86.1526 23.5635 86.1752 23.5015 86.2035C23.4395 86.2319 23.3886 86.2651 23.3487 86.3031C23.3089 86.3403 23.2775 86.3802 23.2544 86.4227C23.2314 86.4652 23.2155 86.5085 23.2066 86.5528C23.1978 86.5971 23.1934 86.64 23.1934 86.6816C23.1934 86.7179 23.1969 86.7573 23.204 86.7998C23.2119 86.8423 23.2261 86.8848 23.2465 86.9273C23.2677 86.9698 23.2969 87.0106 23.3341 87.0495C23.3713 87.0885 23.4196 87.123 23.4789 87.1531C23.5391 87.1832 23.6113 87.2076 23.6954 87.2262C23.7795 87.2439 23.8795 87.2527 23.9955 87.2527C24.054 87.2527 24.1049 87.251 24.1483 87.2474C24.1917 87.2439 24.2311 87.239 24.2665 87.2328C24.3028 87.2266 24.3364 87.2191 24.3674 87.2102C24.3993 87.2014 24.432 87.1921 24.4657 87.1823V86.9619H23.9132V86.5621H24.9584V87.4945C24.8929 87.5166 24.8194 87.537 24.738 87.5556C24.6574 87.5733 24.5737 87.5883 24.4869 87.6007C24.4011 87.614 24.3147 87.6242 24.228 87.6313C24.1412 87.6383 24.0593 87.6419 23.9823 87.6419C23.8627 87.6419 23.7481 87.6339 23.6383 87.618C23.5285 87.602 23.4258 87.5777 23.3301 87.5449C23.2354 87.5113 23.1486 87.4688 23.0698 87.4174C22.9919 87.3661 22.9251 87.305 22.8693 87.2341C22.8144 87.1633 22.7715 87.0823 22.7405 86.9911C22.7104 86.899 22.6953 86.7959 22.6953 86.6816C22.6953 86.5683 22.7112 86.4656 22.7431 86.3735C22.775 86.2814 22.8193 86.2 22.8759 86.1291C22.9335 86.0583 23.0021 85.9972 23.0818 85.9459C23.1624 85.8945 23.2505 85.8525 23.3461 85.8197C23.4426 85.786 23.5453 85.7613 23.6542 85.7453C23.764 85.7294 23.8769 85.7214 23.9929 85.7214Z" fill="black"/>
<path d="M10.4091 90.6824C10.3453 90.709 10.2811 90.7329 10.2165 90.7542C10.1519 90.7754 10.085 90.7936 10.016 90.8086C9.9469 90.8246 9.87385 90.8365 9.79682 90.8445C9.72068 90.8524 9.63877 90.8564 9.55112 90.8564C9.36518 90.8564 9.19385 90.8365 9.03713 90.7967C8.8813 90.7568 8.74672 90.6971 8.63338 90.6174C8.52094 90.5368 8.43328 90.4367 8.37042 90.3172C8.30755 90.1968 8.27612 90.0565 8.27612 89.8962C8.27612 89.7359 8.30755 89.596 8.37042 89.4765C8.43328 89.3561 8.52094 89.256 8.63338 89.1763C8.74672 89.0958 8.8813 89.0356 9.03713 88.9957C9.19385 88.9559 9.36518 88.936 9.55112 88.936C9.63877 88.936 9.72068 88.9399 9.79682 88.9479C9.87385 88.9559 9.9469 88.9678 10.016 88.9838C10.085 88.9988 10.1519 89.017 10.2165 89.0382C10.2811 89.0595 10.3453 89.0834 10.4091 89.1099V89.5535C10.3586 89.5261 10.3055 89.4991 10.2497 89.4725C10.1939 89.4451 10.1324 89.4207 10.0651 89.3995C9.99781 89.3773 9.92388 89.3596 9.84331 89.3463C9.76273 89.3322 9.67198 89.3251 9.57104 89.3251C9.41609 89.3251 9.28726 89.341 9.18456 89.3729C9.08273 89.4048 9.00127 89.4473 8.94018 89.5004C8.87909 89.5535 8.83614 89.6146 8.81135 89.6837C8.78656 89.7519 8.77417 89.8227 8.77417 89.8962C8.77417 89.9449 8.77948 89.9931 8.7901 90.041C8.80073 90.0879 8.81844 90.1326 8.84323 90.1751C8.86802 90.2167 8.90034 90.2552 8.94018 90.2906C8.98002 90.3261 9.02961 90.3566 9.08893 90.3823C9.14825 90.408 9.21732 90.4283 9.29612 90.4434C9.37581 90.4575 9.46745 90.4646 9.57104 90.4646C9.67198 90.4646 9.76273 90.4584 9.84331 90.446C9.92388 90.4328 9.99781 90.4155 10.0651 90.3942C10.1324 90.373 10.1939 90.3491 10.2497 90.3225C10.3055 90.2951 10.3586 90.2672 10.4091 90.2388V90.6824Z" fill="black"/>
<path d="M12.6201 90.462H11.6028L11.4315 90.8073H10.8816L11.8366 88.9824H12.3864L13.3413 90.8073H12.7915L12.6201 90.462ZM11.7794 90.106H12.4462L12.1141 89.434L11.7794 90.106Z" fill="black"/>
<path d="M14.4049 90.8073H13.9121V88.9824H15.1473C15.2801 88.9824 15.3926 88.9962 15.4846 89.0236C15.5776 89.0511 15.6529 89.09 15.7104 89.1405C15.7689 89.191 15.8109 89.2521 15.8366 89.3238C15.8632 89.3946 15.8764 89.4738 15.8764 89.5615C15.8764 89.6385 15.8654 89.7058 15.8432 89.7634C15.822 89.8209 15.7928 89.8705 15.7556 89.9121C15.7193 89.9529 15.6768 89.9874 15.6281 90.0157C15.5794 90.0441 15.528 90.0675 15.474 90.0861L16.0717 90.8073H15.4953L14.9428 90.1353H14.4049V90.8073ZM15.3784 89.5588C15.3784 89.5234 15.3735 89.4933 15.3638 89.4685C15.3549 89.4437 15.339 89.4238 15.316 89.4088C15.293 89.3928 15.262 89.3813 15.223 89.3742C15.1849 89.3672 15.1371 89.3636 15.0796 89.3636H14.4049V89.7541H15.0796C15.1371 89.7541 15.1849 89.7505 15.223 89.7435C15.262 89.7364 15.293 89.7253 15.316 89.7103C15.339 89.6943 15.3549 89.674 15.3638 89.6492C15.3735 89.6244 15.3784 89.5943 15.3784 89.5588Z" fill="black"/>
<path d="M18.9322 89.8935C18.9322 90.0104 18.9194 90.1144 18.8937 90.2056C18.868 90.296 18.8317 90.3748 18.7848 90.4421C18.7387 90.5093 18.683 90.5665 18.6174 90.6134C18.5528 90.6603 18.4806 90.6979 18.4009 90.7263C18.3213 90.7546 18.2354 90.7754 18.1433 90.7887C18.0512 90.8011 17.9551 90.8073 17.8551 90.8073H16.697V88.9824H17.8524C17.9525 88.9824 18.0485 88.9891 18.1406 89.0024C18.2327 89.0148 18.3186 89.0351 18.3983 89.0635C18.4789 89.0918 18.5519 89.1294 18.6174 89.1763C18.683 89.2224 18.7387 89.2795 18.7848 89.3477C18.8317 89.415 18.868 89.4938 18.8937 89.5841C18.9194 89.6744 18.9322 89.7775 18.9322 89.8935ZM18.4355 89.8935C18.4355 89.8059 18.424 89.7297 18.4009 89.6651C18.3788 89.6005 18.3425 89.5473 18.292 89.5057C18.2425 89.4632 18.1774 89.4318 18.0968 89.4114C18.0162 89.3902 17.918 89.3796 17.802 89.3796H17.1897V90.4102H17.802C17.918 90.4102 18.0162 90.4 18.0968 90.3796C18.1774 90.3584 18.2425 90.3265 18.292 90.284C18.3425 90.2406 18.3788 90.1866 18.4009 90.122C18.424 90.0573 18.4355 89.9812 18.4355 89.8935Z" fill="black"/>
<path d="M11.4669 11.7313V13.5705H18.3498V15.8252H11.4669V20.0498H8.6073V9.47661H18.7275V11.7313H11.4669Z" fill="black"/>
<path d="M22.7494 20.0498V9.47661H25.609V20.0498H22.7494Z" fill="black"/>
<path d="M30.5095 20.0498V9.47661H33.3691V17.7336H41.0999V20.0498H30.5095Z" fill="black"/>
<path d="M58.6797 14.7709C58.6797 15.6789 58.5127 16.4818 58.1787 17.1795C57.8447 17.8721 57.3668 18.4518 56.745 18.9186C56.1233 19.3855 55.3679 19.7395 54.479 19.9806C53.5951 20.2166 52.6008 20.3345 51.4961 20.3345C50.3913 20.3345 49.3919 20.2166 48.4978 19.9806C47.6088 19.7395 46.8509 19.3855 46.224 18.9186C45.5971 18.4518 45.1141 17.8721 44.7749 17.1795C44.4358 16.4818 44.2662 15.6789 44.2662 14.7709C44.2662 13.8629 44.4358 13.0626 44.7749 12.37C45.1141 11.6723 45.5971 11.09 46.224 10.6232C46.8509 10.1564 47.6088 9.80494 48.4978 9.56895C49.3919 9.32783 50.3913 9.20728 51.4961 9.20728C52.6008 9.20728 53.5951 9.32783 54.479 9.56895C55.3679 9.80494 56.1233 10.1564 56.745 10.6232C57.3668 11.09 57.8447 11.6723 58.1787 12.37C58.5127 13.0626 58.6797 13.8629 58.6797 14.7709ZM55.7893 14.7709C55.7893 14.3759 55.725 13.9834 55.5966 13.5935C55.4733 13.1985 55.2497 12.8445 54.926 12.5316C54.6074 12.2187 54.1706 11.9647 53.6157 11.7698C53.0607 11.5748 52.3542 11.4774 51.4961 11.4774C50.9206 11.4774 50.4144 11.5235 49.9777 11.6159C49.5409 11.7031 49.1632 11.8262 48.8446 11.9852C48.526 12.1443 48.2588 12.3315 48.043 12.547C47.8272 12.7573 47.6551 12.9856 47.5266 13.2319C47.3981 13.473 47.3056 13.7269 47.2491 13.9937C47.1977 14.2553 47.1721 14.5144 47.1721 14.7709C47.1721 15.0325 47.1977 15.2968 47.2491 15.5635C47.3056 15.8303 47.3981 16.0868 47.5266 16.333C47.6551 16.5742 47.8272 16.7999 48.043 17.0102C48.2588 17.2206 48.526 17.4052 48.8446 17.5643C49.1632 17.7182 49.5409 17.8413 49.9777 17.9336C50.4144 18.0209 50.9206 18.0645 51.4961 18.0645C52.3542 18.0645 53.0607 17.967 53.6157 17.772C54.1706 17.5771 54.6074 17.3232 54.926 17.0102C55.2497 16.6973 55.4733 16.3459 55.5966 15.956C55.725 15.561 55.7893 15.1659 55.7893 14.7709Z" fill="black"/>
<path d="M68.6442 11.7775V20.0498H65.7846V11.7775H61.291V9.47661H73.1455V11.7775H68.6442Z" fill="black"/>
<path d="M58.8264 61.6231C58.8264 70.7855 48.2487 78.2131 35.2005 78.2131C22.1523 78.2131 11.5746 70.7855 11.5746 61.6231C11.5746 52.4607 22.1523 45.0331 35.2005 45.0331C48.2487 45.0331 58.8264 52.4607 58.8264 61.6231Z" fill="#C4C4C4"/>
<path d="M56.3536 59.1504C56.3536 68.3128 45.7759 75.7404 32.7277 75.7404C19.6795 75.7404 9.10181 68.3128 9.10181 59.1504C9.10181 49.988 19.6795 42.5604 32.7277 42.5604C45.7759 42.5604 56.3536 49.988 56.3536 59.1504Z" fill="#C5E1ED"/>
<path fill-rule="evenodd" clip-rule="evenodd" d="M48.5066 69.5559C52.4839 66.763 54.7381 63.0594 54.7381 59.1504C54.7381 55.2414 52.4839 51.5378 48.5066 48.7449C44.5342 45.9556 38.9606 44.179 32.7277 44.179C26.4948 44.179 20.9212 45.9556 16.9488 48.7449C12.9715 51.5378 10.7173 55.2414 10.7173 59.1504C10.7173 63.0594 12.9715 66.763 16.9488 69.5559C20.9212 72.3452 26.4948 74.1218 32.7277 74.1218C38.9606 74.1218 44.5342 72.3452 48.5066 69.5559ZM32.7277 75.7404C45.7759 75.7404 56.3536 68.3128 56.3536 59.1504C56.3536 49.988 45.7759 42.5604 32.7277 42.5604C19.6795 42.5604 9.10181 49.988 9.10181 59.1504C9.10181 68.3128 19.6795 75.7404 32.7277 75.7404Z" fill="black"/>
<path fill-rule="evenodd" clip-rule="evenodd" d="M40.776 67.9742C39.1584 68.7368 37.5701 69.0368 36.5643 69.0747L36.5049 67.4432C37.3035 67.4131 38.6823 67.162 40.102 66.4927C41.5153 65.8264 42.9245 64.7674 43.8635 63.1497L45.2443 63.9803C44.0983 65.9546 42.4 67.2085 40.776 67.9742Z" fill="black"/>
<path d="M27.6174 56.5582C27.6174 60.444 24.7989 63.5941 21.3221 63.5941C17.8453 63.5941 15.0268 60.444 15.0268 56.5582C15.0268 52.6724 17.8453 49.5223 21.3221 49.5223C24.7989 49.5223 27.6174 52.6724 27.6174 56.5582Z" fill="white"/>
<path fill-rule="evenodd" clip-rule="evenodd" d="M21.3221 61.9859C23.7219 61.9859 25.9928 59.7448 25.9928 56.5582C25.9928 53.3716 23.7219 51.1305 21.3221 51.1305C18.9222 51.1305 16.6514 53.3716 16.6514 56.5582C16.6514 59.7448 18.9222 61.9859 21.3221 61.9859ZM21.3221 63.5941C24.7989 63.5941 27.6174 60.444 27.6174 56.5582C27.6174 52.6724 24.7989 49.5223 21.3221 49.5223C17.8453 49.5223 15.0268 52.6724 15.0268 56.5582C15.0268 60.444 17.8453 63.5941 21.3221 63.5941Z" fill="black"/>
<path d="M17.9893 55.7839C17.9893 54.7799 18.7851 53.966 19.7668 53.966C20.7485 53.966 21.5443 54.7799 21.5443 55.7839V56.5919C21.5443 57.5959 20.7485 58.4098 19.7668 58.4098C18.7851 58.4098 17.9893 57.5959 17.9893 56.5919V55.7839Z" fill="black"/>
<path d="M36.5049 56.5582C36.5049 60.444 33.7196 63.5941 30.2837 63.5941C26.8478 63.5941 24.0624 60.444 24.0624 56.5582C24.0624 52.6724 26.8478 49.5223 30.2837 49.5223C33.7196 49.5223 36.5049 52.6724 36.5049 56.5582Z" fill="white"/>
<path fill-rule="evenodd" clip-rule="evenodd" d="M30.2837 61.9859C32.6553 61.9859 34.8994 59.7448 34.8994 56.5582C34.8994 53.3716 32.6553 51.1305 30.2837 51.1305C27.9121 51.1305 25.6679 53.3716 25.6679 56.5582C25.6679 59.7448 27.9121 61.9859 30.2837 61.9859ZM30.2837 63.5941C33.7196 63.5941 36.5049 60.444 36.5049 56.5582C36.5049 52.6724 33.7196 49.5223 30.2837 49.5223C26.8478 49.5223 24.0624 52.6724 24.0624 56.5582C24.0624 60.444 26.8478 63.5941 30.2837 63.5941Z" fill="black"/>
<path d="M26.8768 55.9859C26.8768 54.8704 27.7721 53.966 28.8765 53.966C29.9809 53.966 30.8762 54.8704 30.8762 55.9859V56.3899C30.8762 57.5054 29.9809 58.4098 28.8765 58.4098C27.7721 58.4098 26.8768 57.5054 26.8768 56.3899V55.9859Z" fill="black"/>
<path fill-rule="evenodd" clip-rule="evenodd" d="M43.763 27.9666L37.7945 41.1422L35.1856 34.9617L29.5382 47.1523L28.0618 46.4769L35.2548 30.95L37.8471 37.0913L42.2809 27.3036L43.763 27.9666Z" fill="black"/>
<path d="M40.208 27.5998C40.208 26.0455 41.4681 24.7855 43.0224 24.7855C44.5767 24.7855 45.8368 26.0455 45.8368 27.5998C45.8368 29.1542 44.5767 30.4142 43.0224 30.4142C41.4681 30.4142 40.208 29.1542 40.208 27.5998Z" fill="black"/>
<path fill-rule="evenodd" clip-rule="evenodd" d="M43.0318 61.8452C43.0963 61.0138 43.4706 60.263 43.7575 59.891L45.0701 60.8482C44.9468 61.0081 44.7059 61.4738 44.6679 61.9651C44.6341 62.401 44.7524 62.7878 45.2461 63.0758C45.8068 63.403 46.3637 63.3796 46.8682 63.2136C47.3953 63.0401 47.8033 62.7259 47.9354 62.5975L49.0955 63.7256C48.8175 63.996 48.2 64.4595 47.3942 64.7248C46.5656 64.9975 45.4818 65.0739 44.4019 64.4438C43.2549 63.7746 42.9631 62.7321 43.0318 61.8452Z" fill="black"/>
<path d="M51.4655 45.8192C51.4655 48.028 49.5755 49.8185 47.244 49.8185C44.9125 49.8185 43.0224 48.028 43.0224 45.8192C43.0224 43.6104 44.9125 41.8198 47.244 41.8198C49.5755 41.8198 51.4655 43.6104 51.4655 45.8192Z" fill="white"/>
<path fill-rule="evenodd" clip-rule="evenodd" d="M47.244 48.2188C48.7621 48.2188 49.8573 47.0718 49.8573 45.8192C49.8573 44.5665 48.7621 43.4195 47.244 43.4195C45.7258 43.4195 44.6306 44.5665 44.6306 45.8192C44.6306 47.0718 45.7258 48.2188 47.244 48.2188ZM47.244 49.8185C49.5755 49.8185 51.4655 48.028 51.4655 45.8192C51.4655 43.6104 49.5755 41.8198 47.244 41.8198C44.9125 41.8198 43.0224 43.6104 43.0224 45.8192C43.0224 48.028 44.9125 49.8185 47.244 49.8185Z" fill="black"/>
<path d="M70.4255 35.3023C70.4255 41.1106 65.4516 45.8192 59.3161 45.8192C53.1806 45.8192 48.2068 41.1106 48.2068 35.3023C48.2068 29.494 53.1806 24.7855 59.3161 24.7855C65.4516 24.7855 70.4255 29.494 70.4255 35.3023Z" fill="white"/>
<path fill-rule="evenodd" clip-rule="evenodd" d="M59.3161 44.2012C64.6458 44.2012 68.8096 40.1327 68.8096 35.3023C68.8096 30.4719 64.6458 26.4034 59.3161 26.4034C53.9864 26.4034 49.8227 30.4719 49.8227 35.3023C49.8227 40.1327 53.9864 44.2012 59.3161 44.2012ZM59.3161 45.8192C65.4516 45.8192 70.4255 41.1106 70.4255 35.3023C70.4255 29.494 65.4516 24.7855 59.3161 24.7855C53.1806 24.7855 48.2068 29.494 48.2068 35.3023C48.2068 41.1106 53.1806 45.8192 59.3161 45.8192Z" fill="black"/>
<path d="M53.0949 35.1542H55.3168V39.5979H53.0949V35.1542Z" fill="black"/>
<path d="M56.5018 32.636H58.8718V37.2279H56.5018V32.636Z" fill="black"/>
<path d="M59.9086 30.2661H62.2786V35.1542H59.9086V30.2661Z" fill="black"/>
<path d="M63.3155 32.636H65.6855V37.2279H63.3155V32.636Z" fill="black"/>
<path fill-rule="evenodd" clip-rule="evenodd" d="M54.7243 33.5248V40.931H53.8355V33.5248H54.7243Z" fill="black"/>
<path fill-rule="evenodd" clip-rule="evenodd" d="M58.1311 32.636V39.8942H57.2424V32.636H58.1311Z" fill="black"/>
<path fill-rule="evenodd" clip-rule="evenodd" d="M61.538 28.4886V35.5985H60.6493V28.4886H61.538Z" fill="black"/>
<path fill-rule="evenodd" clip-rule="evenodd" d="M64.9449 32.1917V39.3017H64.0561V32.1917H64.9449Z" fill="black"/>
<path d="M31.6036 83.3891C31.6036 82.2966 32.4893 81.4109 33.5818 81.4109H70.92C72.0125 81.4109 72.8982 82.2966 72.8982 83.3891V89.8182C72.8982 90.9107 72.0125 91.7963 70.92 91.7963H33.5818C32.4893 91.7963 31.6036 90.9107 31.6036 89.8182V83.3891Z" fill="white"/>
<path fill-rule="evenodd" clip-rule="evenodd" d="M70.92 82.8945H33.5818C33.3087 82.8945 33.0873 83.1159 33.0873 83.3891V89.8182C33.0873 90.0913 33.3087 90.3127 33.5818 90.3127H70.92C71.1931 90.3127 71.4145 90.0913 71.4145 89.8182V83.3891C71.4145 83.1159 71.1931 82.8945 70.92 82.8945ZM33.5818 81.4109C32.4893 81.4109 31.6036 82.2966 31.6036 83.3891V89.8182C31.6036 90.9107 32.4893 91.7963 33.5818 91.7963H70.92C72.0125 91.7963 72.8982 90.9107 72.8982 89.8182V83.3891C72.8982 82.2966 72.0125 81.4109 70.92 81.4109H33.5818Z" fill="black"/>
<path d="M38.3867 86.3352L38.2396 87.0073H38.7894V87.7182H38.0841L37.8869 88.5818H37.1538L37.3509 87.7182H36.6567L36.4595 88.5818H35.7264L35.9236 87.7182H35.3487V87.0073H36.0707L36.2263 86.3352H35.6681V85.6243H36.3845L36.5678 84.7662H37.3009L37.1177 85.6243H37.8119L37.9952 84.7662H38.7283L38.545 85.6243H39.1088V86.3352H38.3867ZM36.9594 86.3352L36.8066 87.0073H37.5064L37.6536 86.3352H36.9594Z" fill="black"/>
<path d="M41.0465 88.5818V85.5271L40.0218 85.8465V85.0828L41.0465 84.7662H42.0713V88.5818H41.0465Z" fill="black"/>
<path d="M48.0968 86.6768C48.0968 86.9804 48.0385 87.2563 47.9218 87.5043C47.807 87.7506 47.6487 87.9616 47.447 88.1375C47.2452 88.3115 47.0073 88.4467 46.7333 88.5429C46.4593 88.6374 46.1649 88.6846 45.8502 88.6846C45.6391 88.6846 45.4373 88.6633 45.2448 88.6207C45.0523 88.5781 44.8718 88.5161 44.7033 88.4346C44.5367 88.3532 44.3849 88.2541 44.2479 88.1375C44.1127 88.019 43.997 87.8857 43.9007 87.7376C43.8045 87.5895 43.7295 87.4266 43.6758 87.2489C43.624 87.0711 43.598 86.8804 43.598 86.6768C43.598 86.475 43.624 86.2852 43.6758 86.1075C43.7295 85.9279 43.8045 85.7641 43.9007 85.616C43.997 85.4679 44.1127 85.3355 44.2479 85.2189C44.3849 85.1004 44.5367 85.0004 44.7033 84.919C44.8718 84.8375 45.0523 84.7755 45.2448 84.7329C45.4373 84.6903 45.6391 84.669 45.8502 84.669C46.1649 84.669 46.4593 84.7172 46.7333 84.8134C47.0073 84.9079 47.2452 85.043 47.447 85.2189C47.6487 85.3929 47.807 85.604 47.9218 85.852C48.0385 86.0983 48.0968 86.3732 48.0968 86.6768ZM47.0665 86.6768C47.0665 86.4843 47.0332 86.3139 46.9665 86.1658C46.8999 86.0177 46.8101 85.8928 46.6972 85.7909C46.5861 85.6891 46.4574 85.6123 46.3112 85.5605C46.1649 85.5086 46.0112 85.4827 45.8502 85.4827C45.6891 85.4827 45.5345 85.5086 45.3864 85.5605C45.2383 85.6123 45.1078 85.6891 44.9949 85.7909C44.8838 85.8928 44.794 86.0177 44.7255 86.1658C44.6589 86.3139 44.6255 86.4843 44.6255 86.6768C44.6255 86.8693 44.6589 87.0397 44.7255 87.1878C44.794 87.3359 44.8838 87.4608 44.9949 87.5627C45.1078 87.6626 45.2383 87.7395 45.3864 87.7931C45.5345 87.845 45.6891 87.8709 45.8502 87.8709C46.0112 87.8709 46.1649 87.845 46.3112 87.7931C46.4574 87.7395 46.5861 87.6626 46.6972 87.5627C46.8101 87.4608 46.8999 87.3359 46.9665 87.1878C47.0332 87.0397 47.0665 86.8693 47.0665 86.6768Z" fill="black"/>
<path d="M52.0895 86.5463C52.2802 86.5889 52.4431 86.6407 52.5783 86.7018C52.7134 86.761 52.8236 86.8305 52.9087 86.9101C52.9939 86.9878 53.0559 87.0758 53.0948 87.1739C53.1337 87.2701 53.1531 87.3757 53.1531 87.4905C53.1531 87.6904 53.0985 87.8654 52.9893 88.0153C52.8819 88.1653 52.7319 88.2902 52.5394 88.3902C52.3487 88.4883 52.1228 88.5614 51.8618 88.6096C51.6008 88.6596 51.3184 88.6846 51.0148 88.6846C50.8112 88.6846 50.6242 88.6753 50.4539 88.6568C50.2836 88.6401 50.1262 88.6179 49.9818 88.5901C49.8392 88.5624 49.7078 88.5318 49.5875 88.4985C49.4671 88.4633 49.3551 88.4282 49.2514 88.393V87.4793C49.3662 87.5404 49.4949 87.5951 49.6374 87.6432C49.7818 87.6913 49.93 87.733 50.0818 87.7682C50.2354 87.8015 50.39 87.8274 50.5455 87.8459C50.701 87.8626 50.8482 87.8709 50.9871 87.8709C51.2388 87.8709 51.4397 87.8561 51.5897 87.8265C51.7396 87.795 51.8535 87.7561 51.9312 87.7098C52.009 87.6617 52.059 87.6108 52.0812 87.5571C52.1053 87.5034 52.1173 87.4525 52.1173 87.4044C52.1173 87.3229 52.0904 87.2526 52.0368 87.1933C51.9849 87.1341 51.8924 87.085 51.7591 87.0461C51.6276 87.0073 51.449 86.9786 51.2231 86.9601C50.9972 86.9397 50.7121 86.9286 50.3678 86.9267V86.1714C50.6807 86.1714 50.9398 86.1649 51.1453 86.1519C51.3527 86.139 51.5184 86.1186 51.6424 86.0909C51.7665 86.0631 51.8535 86.027 51.9035 85.9826C51.9553 85.9381 51.9812 85.8835 51.9812 85.8187C51.9812 85.7983 51.9775 85.7761 51.9701 85.7521C51.9646 85.728 51.9507 85.703 51.9285 85.6771C51.9062 85.6512 51.8738 85.6262 51.8313 85.6021C51.7887 85.578 51.7304 85.5567 51.6563 85.5382C51.5823 85.5197 51.4906 85.5049 51.3814 85.4938C51.2722 85.4827 51.1407 85.4771 50.9871 85.4771C50.8427 85.4771 50.6955 85.4845 50.5455 85.4994C50.3974 85.5142 50.2521 85.5364 50.1095 85.566C49.967 85.5956 49.8291 85.6317 49.6958 85.6743C49.5625 85.7169 49.4394 85.7669 49.3264 85.8243V84.9134C49.5782 84.8301 49.8476 84.769 50.1345 84.7301C50.4215 84.6894 50.7057 84.669 50.9871 84.669C51.2629 84.669 51.523 84.6876 51.7674 84.7246C52.0136 84.7616 52.2284 84.8208 52.4117 84.9023C52.5968 84.9819 52.743 85.0865 52.8504 85.2161C52.9578 85.3438 53.0115 85.4994 53.0115 85.6826C53.0115 85.7808 52.9939 85.8742 52.9587 85.9631C52.9254 86.0501 52.8717 86.1307 52.7977 86.2047C52.7236 86.2788 52.6283 86.3445 52.5116 86.4019C52.395 86.4593 52.2543 86.5074 52.0895 86.5463Z" fill="black"/>
<path d="M56.0823 87.9098C56.3415 87.9098 56.5636 87.8866 56.7488 87.8404C56.9357 87.7941 57.0903 87.7302 57.2125 87.6487C57.3347 87.5654 57.4263 87.4692 57.4874 87.3599C57.5485 87.2489 57.5828 87.1294 57.5902 87.0017C57.4939 87.048 57.3921 87.0924 57.2847 87.135C57.1792 87.1757 57.0653 87.2128 56.9431 87.2461C56.8228 87.2776 56.6923 87.3025 56.5516 87.3211C56.4127 87.3396 56.2619 87.3488 56.0989 87.3488C55.8527 87.3488 55.6241 87.3248 55.413 87.2766C55.202 87.2266 55.0187 87.1507 54.8632 87.0489C54.7077 86.9452 54.5855 86.8129 54.4966 86.6518C54.4078 86.4907 54.3633 86.2982 54.3633 86.0742C54.3633 85.8243 54.4152 85.6114 54.5188 85.4355C54.6225 85.2578 54.7651 85.1124 54.9465 84.9995C55.1279 84.8847 55.3417 84.8014 55.588 84.7496C55.8342 84.6959 56.1008 84.669 56.3877 84.669C56.7173 84.669 57.0181 84.7098 57.2903 84.7912C57.5643 84.8727 57.7994 84.9949 57.9956 85.1578C58.1919 85.3207 58.3437 85.5253 58.451 85.7715C58.5584 86.0159 58.6121 86.3028 58.6121 86.6324C58.6121 86.9138 58.564 87.1794 58.4677 87.4294C58.3714 87.6774 58.2215 87.895 58.0178 88.082C57.816 88.2671 57.5578 88.4143 57.2431 88.5235C56.9302 88.6309 56.5562 88.6846 56.1212 88.6846C55.9971 88.6846 55.8694 88.6799 55.7379 88.6707C55.6065 88.6614 55.4778 88.6485 55.3519 88.6318C55.2279 88.617 55.1094 88.5994 54.9965 88.579C54.8835 88.5568 54.7845 88.5346 54.6993 88.5124V87.6599C54.7604 87.6839 54.8345 87.7108 54.9215 87.7404C55.0104 87.77 55.1122 87.7978 55.227 87.8237C55.3436 87.8478 55.4723 87.8681 55.613 87.8848C55.7555 87.9015 55.912 87.9098 56.0823 87.9098ZM57.5707 86.1603C57.5504 86.0825 57.5078 86.0029 57.443 85.9215C57.3801 85.84 57.2967 85.7659 57.1931 85.6993C57.0912 85.6308 56.9709 85.5753 56.8321 85.5327C56.6932 85.4882 56.5396 85.466 56.3711 85.466C56.2341 85.466 56.1063 85.4771 55.9879 85.4994C55.8694 85.5197 55.7657 85.5521 55.6768 85.5966C55.5898 85.641 55.5204 85.6974 55.4686 85.7659C55.4186 85.8326 55.3936 85.9122 55.3936 86.0048C55.3936 86.1047 55.4139 86.1899 55.4547 86.2603C55.4954 86.3306 55.5546 86.388 55.6324 86.4324C55.7102 86.475 55.8055 86.5065 55.9184 86.5268C56.0332 86.5472 56.1637 86.5574 56.31 86.5574C56.4303 86.5574 56.5497 86.5463 56.6682 86.5241C56.7886 86.5018 56.9033 86.4732 57.0126 86.438C57.1218 86.401 57.2236 86.3584 57.318 86.3102C57.4143 86.2621 57.4985 86.2121 57.5707 86.1603Z" fill="black"/>
<path d="M59.7418 88.5818V87.8987C60.2379 87.671 60.6684 87.4673 61.0331 87.2877C61.3997 87.1082 61.7023 86.9452 61.9412 86.799C62.1818 86.6527 62.3605 86.5194 62.4771 86.3991C62.5938 86.2769 62.6521 86.1594 62.6521 86.0464C62.6521 86.015 62.6484 85.9798 62.641 85.9409C62.6354 85.9002 62.6206 85.8594 62.5965 85.8187C62.5743 85.7761 62.541 85.7345 62.4966 85.6937C62.4521 85.653 62.391 85.6178 62.3133 85.5882C62.2355 85.5567 62.1393 85.5318 62.0245 85.5132C61.9097 85.4929 61.7708 85.4827 61.6079 85.4827C61.458 85.4827 61.3015 85.4929 61.1386 85.5132C60.9757 85.5318 60.8146 85.5586 60.6554 85.5938C60.4962 85.6289 60.3425 85.6715 60.1944 85.7215C60.0463 85.7715 59.9103 85.828 59.7862 85.8909V84.9828C60.0417 84.894 60.325 84.8199 60.636 84.7607C60.9489 84.6996 61.2784 84.669 61.6246 84.669C61.9486 84.669 62.2383 84.6977 62.4938 84.7551C62.7493 84.8125 62.965 84.8958 63.1408 85.0051C63.3186 85.1124 63.4537 85.2439 63.5463 85.3994C63.6407 85.553 63.6879 85.7271 63.6879 85.9215C63.6879 86.0288 63.6759 86.1297 63.6518 86.2242C63.6296 86.3167 63.5888 86.4074 63.5296 86.4963C63.4704 86.5852 63.3898 86.6749 63.288 86.7657C63.188 86.8545 63.0603 86.9489 62.9048 87.0489C62.7511 87.1489 62.5669 87.2572 62.3522 87.3738C62.1374 87.4886 61.8875 87.6163 61.6024 87.757H63.7684V88.5818H59.7418Z" fill="black"/>
<path d="M66.6726 87.9098C66.9318 87.9098 67.1539 87.8866 67.3391 87.8404C67.5261 87.7941 67.6806 87.7302 67.8028 87.6487C67.925 87.5654 68.0167 87.4692 68.0778 87.3599C68.1389 87.2489 68.1731 87.1294 68.1805 87.0017C68.0842 87.048 67.9824 87.0924 67.875 87.135C67.7695 87.1757 67.6557 87.2128 67.5335 87.2461C67.4131 87.2776 67.2826 87.3025 67.1419 87.3211C67.0031 87.3396 66.8522 87.3488 66.6893 87.3488C66.443 87.3488 66.2144 87.3248 66.0033 87.2766C65.7923 87.2266 65.609 87.1507 65.4535 87.0489C65.298 86.9452 65.1758 86.8129 65.0869 86.6518C64.9981 86.4907 64.9536 86.2982 64.9536 86.0742C64.9536 85.8243 65.0055 85.6114 65.1092 85.4355C65.2128 85.2578 65.3554 85.1124 65.5368 84.9995C65.7182 84.8847 65.9321 84.8014 66.1783 84.7496C66.4245 84.6959 66.6911 84.669 66.9781 84.669C67.3076 84.669 67.6084 84.7098 67.8806 84.7912C68.1546 84.8727 68.3897 84.9949 68.5859 85.1578C68.7822 85.3207 68.934 85.5253 69.0414 85.7715C69.1488 86.0159 69.2024 86.3028 69.2024 86.6324C69.2024 86.9138 69.1543 87.1794 69.058 87.4294C68.9618 87.6774 68.8118 87.895 68.6082 88.082C68.4064 88.2671 68.1481 88.4143 67.8334 88.5235C67.5205 88.6309 67.1465 88.6846 66.7115 88.6846C66.5874 88.6846 66.4597 88.6799 66.3283 88.6707C66.1968 88.6614 66.0681 88.6485 65.9423 88.6318C65.8182 88.617 65.6997 88.5994 65.5868 88.579C65.4739 88.5568 65.3748 88.5346 65.2897 88.5124V87.6599C65.3508 87.6839 65.4248 87.7108 65.5118 87.7404C65.6007 87.77 65.7025 87.7978 65.8173 87.8237C65.9339 87.8478 66.0626 87.8681 66.2033 87.8848C66.3458 87.9015 66.5023 87.9098 66.6726 87.9098ZM68.1611 86.1603C68.1407 86.0825 68.0981 86.0029 68.0333 85.9215C67.9704 85.84 67.8871 85.7659 67.7834 85.6993C67.6816 85.6308 67.5612 85.5753 67.4224 85.5327C67.2835 85.4882 67.1299 85.466 66.9614 85.466C66.8244 85.466 66.6967 85.4771 66.5782 85.4994C66.4597 85.5197 66.356 85.5521 66.2672 85.5966C66.1801 85.641 66.1107 85.6974 66.0589 85.7659C66.0089 85.8326 65.9839 85.9122 65.9839 86.0048C65.9839 86.1047 66.0043 86.1899 66.045 86.2603C66.0857 86.3306 66.145 86.388 66.2227 86.4324C66.3005 86.475 66.3958 86.5065 66.5088 86.5268C66.6235 86.5472 66.7541 86.5574 66.9003 86.5574C67.0207 86.5574 67.1401 86.5463 67.2585 86.5241C67.3789 86.5018 67.4937 86.4732 67.6029 86.438C67.7121 86.401 67.8139 86.3584 67.9084 86.3102C68.0046 86.2621 68.0889 86.2121 68.1611 86.1603Z" fill="black"/>
<path d="M1.68365 102.429H77.8437V113.062H8.60729L1.68365 105.767V102.429Z" fill="#C4C4C4"/>
<path d="M3.1673 104.655H4.65093V109.353H3.1673V104.655Z" fill="black"/>
<path d="M22.7018 104.655H24.1855V113.062H22.7018V104.655Z" fill="black"/>
<path d="M41.9891 104.655H43.4727V113.062H41.9891V104.655Z" fill="black"/>
<path d="M61.5237 104.655H63.0073V113.062H61.5237V104.655Z" fill="black"/>
<path d="M25.9164 104.655H27.4V113.062H25.9164V104.655Z" fill="black"/>
<path d="M6.38184 104.655H7.86547V112.32H6.38184V104.655Z" fill="black"/>
<path d="M45.4509 104.655H46.9346V113.062H45.4509V104.655Z" fill="black"/>
<path d="M64.7382 104.655H66.2218V113.062H64.7382V104.655Z" fill="black"/>
<path d="M29.1309 104.655H30.6146V113.062H29.1309V104.655Z" fill="black"/>
<path d="M32.3455 104.655H33.8291V113.062H32.3455V104.655Z" fill="black"/>
<path d="M48.6655 104.655H50.1491V113.062H48.6655V104.655Z" fill="black"/>
<path d="M9.59637 104.655H11.08V113.062H9.59637V104.655Z" fill="black"/>
<path d="M67.9527 104.655H69.4364V113.062H67.9527V104.655Z" fill="black"/>
<path d="M35.56 104.655H37.0437V113.062H35.56V104.655Z" fill="black"/>
<path d="M51.88 104.655H53.3636V113.062H51.88V104.655Z" fill="black"/>
<path d="M55.0945 104.655H56.5782V113.062H55.0945V104.655Z" fill="black"/>
<path d="M71.1673 104.655H72.8982V113.062H71.1673V104.655Z" fill="black"/>
<path d="M38.7746 104.655H40.2582V113.062H38.7746V104.655Z" fill="black"/>
<path d="M74.6291 104.655H76.1128V113.062H74.6291V104.655Z" fill="black"/>
<path d="M58.3091 104.655H59.7927V113.062H58.3091V104.655Z" fill="black"/>
<path d="M12.8109 104.655H14.2945V113.062H12.8109V104.655Z" fill="black"/>
<path d="M16.0255 104.655H17.7564V113.062H16.0255V104.655Z" fill="black"/>
<path d="M19.4873 104.655H20.9709V113.062H19.4873V104.655Z" fill="black"/>
<path d="M54.8473 98.4727L52.92 95.1345L56.7746 95.1345L54.8473 98.4727Z" fill="black"/>
<path d="M58.8419 97.7309V95.906H59.3347V97.7309H58.8419Z" fill="black"/>
<path d="M61.903 97.7309L60.6718 96.4771V97.7309H60.1791V95.906H60.7143L61.9468 97.1651V95.906H62.4369V97.7309H61.903Z" fill="black"/>
<path d="M64.9614 96.42C64.9269 96.4032 64.8813 96.3842 64.8246 96.3629C64.7679 96.3417 64.7037 96.3217 64.632 96.3032C64.5603 96.2837 64.4824 96.2677 64.3983 96.2553C64.3141 96.2421 64.2278 96.2354 64.1393 96.2354C64.0684 96.2354 64.0078 96.2376 63.9573 96.2421C63.9077 96.2465 63.8657 96.2522 63.8312 96.2593C63.7975 96.2664 63.7705 96.2748 63.7501 96.2846C63.7307 96.2934 63.7156 96.3027 63.705 96.3124C63.6944 96.3222 63.6873 96.3319 63.6837 96.3417C63.6811 96.3514 63.6797 96.3603 63.6797 96.3682C63.6797 96.3948 63.693 96.4183 63.7196 96.4386C63.7462 96.4581 63.7825 96.4758 63.8285 96.4917C63.8745 96.5068 63.9281 96.5214 63.9892 96.5356C64.0503 96.5489 64.1149 96.563 64.1831 96.5781C64.2522 96.5922 64.323 96.6082 64.3956 96.6259C64.4691 96.6427 64.5399 96.6626 64.6081 96.6857C64.6772 96.7087 64.7422 96.7357 64.8033 96.7667C64.8644 96.7968 64.918 96.8322 64.964 96.8729C65.0101 96.9136 65.0464 96.9606 65.073 97.0137C65.0995 97.0668 65.1128 97.1275 65.1128 97.1957C65.1128 97.2833 65.0973 97.3586 65.0663 97.4214C65.0353 97.4843 64.9937 97.5374 64.9415 97.5808C64.8901 97.6242 64.8303 97.6592 64.7622 97.6857C64.694 97.7114 64.6223 97.7313 64.547 97.7455C64.4726 97.7597 64.3969 97.769 64.3199 97.7734C64.2438 97.7778 64.1712 97.78 64.1021 97.78C63.9215 97.78 63.7541 97.765 63.6001 97.7349C63.4469 97.7057 63.3114 97.6689 63.1937 97.6246V97.189C63.315 97.2563 63.4531 97.309 63.608 97.3471C63.7639 97.3851 63.9303 97.4042 64.1074 97.4042C64.2119 97.4042 64.2969 97.3989 64.3624 97.3882C64.4288 97.3767 64.4806 97.3626 64.5178 97.3457C64.555 97.328 64.5802 97.309 64.5935 97.2886C64.6068 97.2683 64.6134 97.2488 64.6134 97.2302C64.6134 97.201 64.6001 97.1757 64.5736 97.1545C64.547 97.1323 64.5107 97.1133 64.4647 97.0974C64.4186 97.0805 64.3651 97.0655 64.304 97.0522C64.2429 97.038 64.1778 97.0243 64.1087 97.011C64.0406 96.9969 63.9702 96.9818 63.8976 96.9659C63.825 96.9499 63.7541 96.9314 63.6851 96.9101C63.6169 96.888 63.5522 96.8627 63.4912 96.8344C63.4301 96.8052 63.3765 96.7711 63.3305 96.7321C63.2844 96.6923 63.2481 96.6467 63.2215 96.5953C63.195 96.5431 63.1817 96.4829 63.1817 96.4147C63.1817 96.3341 63.1959 96.2646 63.2242 96.2062C63.2525 96.1478 63.2906 96.0982 63.3384 96.0574C63.3871 96.0158 63.4429 95.9822 63.5058 95.9565C63.5695 95.9308 63.6364 95.9109 63.7063 95.8967C63.7763 95.8826 63.8471 95.8728 63.9188 95.8675C63.9905 95.8622 64.0587 95.8596 64.1233 95.8596C64.1942 95.8596 64.2668 95.8631 64.3412 95.8702C64.4164 95.8773 64.4903 95.8874 64.563 95.9007C64.6356 95.9131 64.7055 95.9277 64.7728 95.9446C64.841 95.9614 64.9038 95.9791 64.9614 95.9977V96.42Z" fill="black"/>
<path d="M65.8523 97.7309V95.906H67.6997V96.2952H66.3583V96.5967H67.6307V96.9858H66.3583V97.3417H67.7183V97.7309H65.8523Z" fill="black"/>
<path d="M68.9598 97.7309H68.4671V95.906H69.7023C69.8351 95.906 69.9475 95.9198 70.0396 95.9472C70.1326 95.9747 70.2078 96.0136 70.2654 96.0641C70.3238 96.1146 70.3659 96.1757 70.3916 96.2474C70.4181 96.3182 70.4314 96.3974 70.4314 96.4851C70.4314 96.5621 70.4203 96.6294 70.3982 96.687C70.377 96.7445 70.3477 96.7941 70.3105 96.8357C70.2742 96.8765 70.2317 96.911 70.183 96.9393C70.1343 96.9677 70.083 96.9911 70.029 97.0097L70.6266 97.7309H70.0502L69.4977 97.0589H68.9598V97.7309ZM69.9334 96.4824C69.9334 96.447 69.9285 96.4169 69.9187 96.3921C69.9099 96.3673 69.894 96.3474 69.8709 96.3324C69.8479 96.3164 69.8169 96.3049 69.778 96.2978C69.7399 96.2908 69.6921 96.2872 69.6345 96.2872H68.9598V96.6777H69.6345C69.6921 96.6777 69.7399 96.6741 69.778 96.6671C69.8169 96.66 69.8479 96.6489 69.8709 96.6339C69.894 96.6179 69.9099 96.5976 69.9187 96.5728C69.9285 96.548 69.9334 96.5179 69.9334 96.4824Z" fill="black"/>
<path d="M72.2746 96.3032V97.7309H71.7818V96.3032H71.0075V95.906H73.0502V96.3032H72.2746Z" fill="black"/>
</svg>
