<svg width="185" height="46" viewBox="0 0 185 46" fill="none" xmlns="http://www.w3.org/2000/svg">
<path d="M60.782 25.2666V28.9766H74.6441V33.5248H60.782V42.0469H55.023V20.7184H75.4047V25.2666H60.782Z" fill="black"/>
<path d="M83.5046 42.0469V20.7184H89.2636V42.0469H83.5046Z" fill="black"/>
<path d="M99.1331 42.0469V20.7184H104.892V37.3745H120.462V42.0469H99.1331Z" fill="black"/>
<path d="M155.867 31.3982C155.867 33.2299 155.53 34.8494 154.858 36.2569C154.185 37.6539 153.222 38.8233 151.97 39.765C150.718 40.7068 149.197 41.4208 147.406 41.9072C145.627 42.3833 143.624 42.6213 141.399 42.6213C139.174 42.6213 137.161 42.3833 135.361 41.9072C133.57 41.4208 132.044 40.7068 130.781 39.765C129.519 38.8233 128.546 37.6539 127.863 36.2569C127.18 34.8494 126.839 33.2299 126.839 31.3982C126.839 29.5665 127.18 27.9521 127.863 26.555C128.546 25.1476 129.519 23.973 130.781 23.0313C132.044 22.0895 133.57 21.3807 135.361 20.9046C137.161 20.4182 139.174 20.175 141.399 20.175C143.624 20.175 145.627 20.4182 147.406 20.9046C149.197 21.3807 150.718 22.0895 151.97 23.0313C153.222 23.973 154.185 25.1476 154.858 26.555C155.53 27.9521 155.867 29.5665 155.867 31.3982ZM150.045 31.3982C150.045 30.6013 149.916 29.8096 149.657 29.0231C149.409 28.2263 148.959 27.5122 148.307 26.881C147.665 26.2497 146.786 25.7374 145.668 25.3442C144.55 24.951 143.127 24.7543 141.399 24.7543C140.24 24.7543 139.221 24.8475 138.341 25.0337C137.461 25.2097 136.701 25.458 136.059 25.7788C135.418 26.0997 134.879 26.4774 134.445 26.912C134.01 27.3363 133.663 27.7968 133.405 28.2936C133.146 28.78 132.96 29.2922 132.846 29.8303C132.742 30.3581 132.691 30.8807 132.691 31.3982C132.691 31.9259 132.742 32.4589 132.846 32.997C132.96 33.5352 133.146 34.0526 133.405 34.5493C133.663 35.0357 134.01 35.4911 134.445 35.9153C134.879 36.3396 135.418 36.7122 136.059 37.033C136.701 37.3435 137.461 37.5918 138.341 37.7781C139.221 37.954 140.24 38.042 141.399 38.042C143.127 38.042 144.55 37.8454 145.668 37.4521C146.786 37.0589 147.665 36.5466 148.307 35.9153C148.959 35.2841 149.409 34.5752 149.657 33.7887C149.916 32.9919 150.045 32.195 150.045 31.3982Z" fill="black"/>
<path d="M175.935 25.3597V42.0469H170.176V25.3597H161.126V20.7184H185V25.3597H175.935Z" fill="black"/>
<path d="M42.1843 30.5683C42.1843 38.6719 32.741 45.2411 21.0921 45.2411C9.44328 45.2411 0 38.6719 0 30.5683C0 22.4647 9.44328 15.8955 21.0921 15.8955C32.741 15.8955 42.1843 22.4647 42.1843 30.5683Z" fill="#C5E1ED"/>
<path fill-rule="evenodd" clip-rule="evenodd" d="M34.9636 39.4665C38.4452 37.0445 40.3671 33.871 40.3671 30.5683C40.3671 27.2656 38.4452 24.0921 34.9636 21.6701C31.4876 19.252 26.589 17.6992 21.0921 17.6992C15.5953 17.6992 10.6967 19.252 7.22068 21.6701C3.73909 24.0921 1.81717 27.2656 1.81717 30.5683C1.81717 33.871 3.73909 37.0445 7.22068 39.4665C10.6967 41.8846 15.5953 43.4374 21.0921 43.4374C26.589 43.4374 31.4876 41.8846 34.9636 39.4665ZM21.0921 45.2411C32.741 45.2411 42.1843 38.6719 42.1843 30.5683C42.1843 22.4647 32.741 15.8955 21.0921 15.8955C9.44328 15.8955 0 22.4647 0 30.5683C0 38.6719 9.44328 45.2411 21.0921 45.2411Z" fill="black"/>
<path fill-rule="evenodd" clip-rule="evenodd" d="M28.3423 38.752C26.8791 39.4347 25.4407 39.7046 24.5212 39.7389L24.4547 37.9276C25.1417 37.902 26.345 37.6864 27.5861 37.1074C28.8201 36.5317 30.0413 35.621 30.8534 34.2366L32.4024 35.1586C31.3581 36.9389 29.8126 38.0661 28.3423 38.752Z" fill="black"/>
<path d="M16.5069 28.1228C16.5069 31.4993 14.0435 34.2365 11.0046 34.2365C7.96578 34.2365 5.50232 31.4993 5.50232 28.1228C5.50232 24.7463 7.96578 22.0092 11.0046 22.0092C14.0435 22.0092 16.5069 24.7463 16.5069 28.1228Z" fill="white"/>
<path fill-rule="evenodd" clip-rule="evenodd" d="M11.0046 32.4758C12.8574 32.4758 14.7178 30.7338 14.7178 28.1228C14.7178 25.5118 12.8574 23.7699 11.0046 23.7699C9.1518 23.7699 7.29145 25.5118 7.29145 28.1228C7.29145 30.7338 9.1518 32.4758 11.0046 32.4758ZM11.0046 34.2365C14.0435 34.2365 16.5069 31.4993 16.5069 28.1228C16.5069 24.7463 14.0435 22.0092 11.0046 22.0092C7.96578 22.0092 5.50232 24.7463 5.50232 28.1228C5.50232 31.4993 7.96578 34.2365 11.0046 34.2365Z" fill="black"/>
<path d="M7.94775 27.4281C7.94775 26.4612 8.76891 25.6774 9.78185 25.6774C10.7948 25.6774 11.616 26.4612 11.616 27.4281V28.2062C11.616 29.1731 10.7948 29.9569 9.78185 29.9569C8.76891 29.9569 7.94775 29.1731 7.94775 28.2062V27.4281Z" fill="black"/>
<path d="M24.4547 28.1228C24.4547 31.4993 21.9912 34.2365 18.9524 34.2365C15.9135 34.2365 13.4501 31.4993 13.4501 28.1228C13.4501 24.7463 15.9135 22.0092 18.9524 22.0092C21.9912 22.0092 24.4547 24.7463 24.4547 28.1228Z" fill="white"/>
<path fill-rule="evenodd" clip-rule="evenodd" d="M18.9524 32.4758C20.8052 32.4758 22.6655 30.7338 22.6655 28.1228C22.6655 25.5118 20.8052 23.7699 18.9524 23.7699C17.0996 23.7699 15.2392 25.5118 15.2392 28.1228C15.2392 30.7338 17.0996 32.4758 18.9524 32.4758ZM18.9524 34.2365C21.9912 34.2365 24.4547 31.4993 24.4547 28.1228C24.4547 24.7463 21.9912 22.0092 18.9524 22.0092C15.9135 22.0092 13.4501 24.7463 13.4501 28.1228C13.4501 31.4993 15.9135 34.2365 18.9524 34.2365Z" fill="black"/>
<path d="M15.8955 27.6226C15.8955 26.5483 16.7167 25.6774 17.7296 25.6774C18.7426 25.6774 19.5637 26.5483 19.5637 27.6226V28.0117C19.5637 29.086 18.7426 29.9569 17.7296 29.9569C16.7167 29.9569 15.8955 29.086 15.8955 28.0117V27.6226Z" fill="black"/>
<path fill-rule="evenodd" clip-rule="evenodd" d="M31.1797 3.1851L25.7879 15.2418L23.5055 9.76464L18.7445 20.1751L17.1183 19.4215L23.5817 5.28874L25.8459 10.7222L29.5473 2.44543L31.1797 3.1851Z" fill="black"/>
<path d="M28.1229 2.44547C28.1229 1.09487 29.2177 0 30.5683 0C31.9189 0 33.0138 1.09487 33.0138 2.44547C33.0138 3.79606 31.9189 4.89093 30.5683 4.89093C29.2177 4.89093 28.1229 3.79606 28.1229 2.44547Z" fill="black"/>
<path fill-rule="evenodd" clip-rule="evenodd" d="M29.9665 33.0594C30.0309 32.2615 30.4029 31.5437 30.6956 31.1797L32.2663 32.2786C32.1694 32.3991 31.9572 32.7896 31.9242 33.197C31.8965 33.5408 31.9875 33.8155 32.3756 34.0327C32.8441 34.2949 33.308 34.28 33.747 34.1414C34.2133 33.9941 34.5749 33.7256 34.6823 33.6254L36.0706 34.9204C35.7885 35.1836 35.1763 35.6237 34.3765 35.8762C33.5495 36.1373 32.4552 36.2132 31.3655 35.6032C30.1954 34.9483 29.8968 33.9209 29.9665 33.0594Z" fill="black"/>
<path d="M37.9048 18.6467C37.9048 20.5038 36.2624 22.0092 34.2366 22.0092C32.2107 22.0092 30.5684 20.5038 30.5684 18.6467C30.5684 16.7896 32.2107 15.2842 34.2366 15.2842C36.2624 15.2842 37.9048 16.7896 37.9048 18.6467Z" fill="white"/>
<path fill-rule="evenodd" clip-rule="evenodd" d="M34.2366 20.3145C35.372 20.3145 36.144 19.4908 36.144 18.6467C36.144 17.8026 35.372 16.9789 34.2366 16.9789C33.1012 16.9789 32.3291 17.8026 32.3291 18.6467C32.3291 19.4908 33.1012 20.3145 34.2366 20.3145ZM34.2366 22.0092C36.2624 22.0092 37.9048 20.5038 37.9048 18.6467C37.9048 16.7896 36.2624 15.2842 34.2366 15.2842C32.2107 15.2842 30.5684 16.7896 30.5684 18.6467C30.5684 20.5038 32.2107 22.0092 34.2366 22.0092Z" fill="black"/>
<path d="M55.023 9.47618C55.023 14.7097 50.5066 18.9524 44.9354 18.9524C39.3642 18.9524 34.8479 14.7097 34.8479 9.47618C34.8479 4.24263 39.3642 0 44.9354 0C50.5066 0 55.023 4.24263 55.023 9.47618Z" fill="white"/>
<path fill-rule="evenodd" clip-rule="evenodd" d="M44.9354 17.1154C49.5847 17.1154 53.1742 13.5995 53.1742 9.47618C53.1742 5.35285 49.5847 1.83692 44.9354 1.83692C40.2862 1.83692 36.6967 5.35285 36.6967 9.47618C36.6967 13.5995 40.2862 17.1154 44.9354 17.1154ZM44.9354 18.9524C50.5066 18.9524 55.023 14.7097 55.023 9.47618C55.023 4.24263 50.5066 0 44.9354 0C39.3642 0 34.8479 4.24263 34.8479 9.47618C34.8479 14.7097 39.3642 18.9524 44.9354 18.9524Z" fill="black"/>
<path d="M39.1274 9.17053H41.5729V13.4501H39.1274V9.17053Z" fill="black"/>
<path d="M42.1843 6.7251H44.6297V11.0047H42.1843V6.7251Z" fill="black"/>
<path d="M45.2411 4.89099H47.6866V9.17056H45.2411V4.89099Z" fill="black"/>
<path d="M48.298 6.7251H50.7434V11.0047H48.298V6.7251Z" fill="black"/>
<path fill-rule="evenodd" clip-rule="evenodd" d="M40.9616 7.94788V14.0615H39.7388V7.94788H40.9616Z" fill="black"/>
<path fill-rule="evenodd" clip-rule="evenodd" d="M44.0184 6.7251V13.4501H42.7957V6.7251H44.0184Z" fill="black"/>
<path fill-rule="evenodd" clip-rule="evenodd" d="M47.0752 3.05688V9.78192H45.8525V3.05688H47.0752Z" fill="black"/>
<path fill-rule="evenodd" clip-rule="evenodd" d="M50.132 6.7251V12.8388H48.9093V6.7251H50.132Z" fill="black"/>
</svg>
